<?xml version="1.0" encoding="UTF-8" standalone="no"?>
<!-- Created with Inkscape (http://www.inkscape.org/) -->

<svg
   xmlns:dc="http://purl.org/dc/elements/1.1/"
   xmlns:cc="http://creativecommons.org/ns#"
   xmlns:rdf="http://www.w3.org/1999/02/22-rdf-syntax-ns#"
   xmlns:svg="http://www.w3.org/2000/svg"
   xmlns="http://www.w3.org/2000/svg"
   xmlns:sodipodi="http://sodipodi.sourceforge.net/DTD/sodipodi-0.dtd"
   xmlns:inkscape="http://www.inkscape.org/namespaces/inkscape"
   version="1.1"
   id="svg15661"
   xml:space="preserve"
   width="666.66669"
   height="666.66669"
   viewBox="0 0 666.66669 666.66669"
   sodipodi:docname="I-love-France-publicdomainvectors.org.svg"
   inkscape:version="0.92.4 (5da689c313, 2019-01-14)"><metadata
     id="metadata15667"><rdf:RDF><cc:Work
         rdf:about=""><dc:format>image/svg+xml</dc:format><dc:type
           rdf:resource="http://purl.org/dc/dcmitype/StillImage" /><dc:title></dc:title></cc:Work></rdf:RDF></metadata><defs
     id="defs15665"><clipPath
       clipPathUnits="userSpaceOnUse"
       id="clipPath15677"><path
         d="M 0,500 H 500 V 0 H 0 Z"
         id="path15675"
         inkscape:connector-curvature="0" /></clipPath></defs><sodipodi:namedview
     pagecolor="#ffffff"
     bordercolor="#666666"
     borderopacity="1"
     objecttolerance="10"
     gridtolerance="10"
     guidetolerance="10"
     inkscape:pageopacity="0"
     inkscape:pageshadow="2"
     inkscape:window-width="724"
     inkscape:window-height="480"
     id="namedview15663"
     showgrid="false"
     inkscape:zoom="0.35399999"
     inkscape:cx="333.33334"
     inkscape:cy="333.33334"
     inkscape:window-x="0"
     inkscape:window-y="0"
     inkscape:window-maximized="0"
     inkscape:current-layer="g15669" /><g
     id="g15669"
     inkscape:groupmode="layer"
     inkscape:label="I-love-France-publicdomainvectors.org"
     transform="matrix(1.3333333,0,0,-1.3333333,0,666.66667)"><g
       id="g15671"><g
         id="g15673"
         clip-path="url(#clipPath15677)"><path
           d="M 500,0 H 0 v 500 h 500 z"
           style="fill:#000000;fill-opacity:1;fill-rule:nonzero;stroke:none"
           id="path15679"
           inkscape:connector-curvature="0" /><path
           d="m 458.233,353.431 c 0.671,0.41 1.043,1.127 1.043,1.861 0,0.378 -0.097,0.761 -0.304,1.109 -0.608,1.025 -1.928,1.37 -2.96,0.774 0,0 -59.417,-34.304 -108.718,-62.768 40.109,24.155 92.921,55.96 92.921,55.96 0.678,0.408 1.054,1.128 1.054,1.866 0,0.376 -0.098,0.757 -0.303,1.104 -0.607,1.029 -1.929,1.376 -2.962,0.78 0,0 -59.889,-34.577 -112.464,-64.93 57.576,34.787 120.774,72.97 120.774,72.97 0.677,0.409 1.053,1.128 1.053,1.865 0,0.376 -0.098,0.758 -0.303,1.105 -0.608,1.028 -1.928,1.375 -2.962,0.778 0,0 -58.106,-33.546 -126.141,-72.826 v -25.132 c 70.759,43.122 140.272,85.484 140.272,85.484"
           style="fill:#ed2939;fill-opacity:1;fill-rule:nonzero;stroke:none"
           id="path15681"
           inkscape:connector-curvature="0" /><path
           d="m 415.335,383.496 c 0.669,0.41 1.04,1.126 1.04,1.858 0,0.379 -0.099,0.762 -0.306,1.111 -0.608,1.023 -1.927,1.368 -2.959,0.773 0,0 -41.762,-24.112 -95.149,-54.935 v -8.394 c 54.082,33.095 97.374,59.587 97.374,59.587"
           style="fill:#ed2939;fill-opacity:1;fill-rule:nonzero;stroke:none"
           id="path15683"
           inkscape:connector-curvature="0" /><path
           d="m 413.969,393.218 c 0.671,0.41 1.042,1.125 1.042,1.86 0,0.378 -0.099,0.76 -0.306,1.109 -0.608,1.024 -1.928,1.369 -2.959,0.773 0,0 -41.374,-23.886 -93.785,-54.147 v -8.28 c 53.821,32.898 96.008,58.685 96.008,58.685"
           style="fill:#ed2939;fill-opacity:1;fill-rule:nonzero;stroke:none"
           id="path15685"
           inkscape:connector-curvature="0" /><path
           d="m 397.492,392.978 c 0.674,0.41 1.047,1.126 1.047,1.863 0,0.377 -0.099,0.759 -0.304,1.107 -0.608,1.026 -1.928,1.372 -2.962,0.775 0,0 -32.86,-18.972 -77.312,-44.637 v -7.43 c 44.793,27.217 79.531,48.322 79.531,48.322"
           style="fill:#ed2939;fill-opacity:1;fill-rule:nonzero;stroke:none"
           id="path15687"
           inkscape:connector-curvature="0" /><path
           d="m 436.705,385.481 c 0.671,0.41 1.04,1.124 1.04,1.858 0,0.379 -0.098,0.762 -0.306,1.111 -0.608,1.023 -1.927,1.367 -2.959,0.771 0,0 -52.659,-30.402 -116.519,-67.272 v -9.168 c 64.667,39.592 118.744,72.7 118.744,72.7"
           style="fill:#ed2939;fill-opacity:1;fill-rule:nonzero;stroke:none"
           id="path15689"
           inkscape:connector-curvature="0" /><path
           d="m 388.952,397.978 c 0.673,0.41 1.044,1.126 1.044,1.86 0,0.378 -0.098,0.761 -0.305,1.108 -0.608,1.025 -1.928,1.371 -2.961,0.775 0,0 -42.751,-24.683 -64.927,-37.486 22.22,13.315 64.791,38.823 64.791,38.823 0.68,0.407 1.057,1.129 1.057,1.868 0,0.375 -0.096,0.756 -0.299,1.101 -0.608,1.031 -1.93,1.38 -2.965,0.782 0,0 -27.593,-15.93 -66.426,-38.351 v -13.779 c 41.023,25.022 70.991,43.299 70.991,43.299"
           style="fill:#ed2939;fill-opacity:1;fill-rule:nonzero;stroke:none"
           id="path15691"
           inkscape:connector-curvature="0" /><path
           d="m 462.779,324.709 c 0,0 -61.987,-35.788 -120.068,-69.321 50.785,30.816 107.169,65.031 107.169,65.031 0.675,0.409 1.048,1.126 1.048,1.863 0,0.376 -0.098,0.759 -0.303,1.106 -0.608,1.027 -1.929,1.373 -2.962,0.776 0,0 -62.17,-35.893 -129.702,-74.881 v -13.211 c 2.188,1.264 4.38,2.529 6.57,3.793 -2.191,-1.344 -4.383,-2.689 -6.57,-4.031 v -16.803 c 1.971,1.137 3.942,2.278 5.915,3.416 -1.973,-1.213 -3.944,-2.424 -5.915,-3.634 v -32.022 c 6.921,3.994 13.93,8.041 20.937,12.088 -7.019,-4.367 -14.037,-8.734 -20.937,-13.029 v -16.873 c 10.927,6.308 22.283,12.865 33.608,19.404 -11.395,-7.19 -22.795,-14.383 -33.608,-21.205 v -8.594 c 10.198,5.889 20.928,12.084 31.655,18.277 -10.828,-6.871 -21.702,-13.771 -31.655,-20.088 v -7.443 c 14.753,8.518 31.928,18.432 48.551,28.031 -22.382,-14.908 -44.971,-29.955 -48.551,-32.339 v -4.188 c 0.577,-0.201 1.231,-0.166 1.801,0.162 l 87.361,50.436 c 1.042,0.599 1.398,1.931 0.797,2.972 -0.6,1.041 -1.932,1.399 -2.973,0.797 0,0 -15.976,-9.222 -28.514,-16.461 24.42,16.266 49.085,32.696 49.085,32.696 0.628,0.418 0.97,1.107 0.97,1.812 0,0.393 -0.105,0.789 -0.328,1.147 -0.62,0.998 -1.919,1.324 -2.937,0.736 0,0 -30.107,-17.383 -57.382,-33.131 36.723,23.303 73.993,46.951 73.993,46.951 0.653,0.414 1.011,1.119 1.011,1.84 0,0.385 -0.102,0.774 -0.315,1.125 -0.614,1.015 -1.925,1.351 -2.95,0.758 0,0 -45.107,-26.043 -90.12,-52.031 50.076,31.591 100.261,63.253 100.261,63.253 0.654,0.414 1.014,1.12 1.014,1.842 0,0.383 -0.101,0.773 -0.313,1.123 -0.613,1.015 -1.926,1.354 -2.951,0.761 0,0 -40.563,-23.419 -74.925,-43.259 35.991,22.139 77.415,47.617 77.415,47.617 0.667,0.411 1.036,1.125 1.036,1.856 0,0.379 -0.1,0.763 -0.308,1.112 -0.609,1.023 -1.925,1.366 -2.957,0.771 0,0 -50.454,-29.129 -100.502,-58.026 53.903,33.543 107.841,67.107 107.841,67.107 0.662,0.412 1.028,1.122 1.028,1.849 0,0.381 -0.101,0.767 -0.311,1.117 -0.61,1.02 -1.925,1.36 -2.954,0.767 0,0 -41.774,-24.119 -72.588,-41.908 35.125,21.365 79.602,48.417 79.602,48.417 0.673,0.41 1.046,1.126 1.046,1.861 0,0.378 -0.098,0.76 -0.305,1.108 -0.608,1.026 -1.929,1.371 -2.96,0.776 0,0 -45.324,-26.167 -81.01,-46.771 40.936,24.888 89.598,54.473 89.598,54.473 0.674,0.409 1.047,1.126 1.047,1.862 0,0.377 -0.099,0.759 -0.305,1.108 -0.607,1.025 -1.928,1.371 -2.96,0.775 0,0 -45.944,-26.525 -78.855,-45.527 30.275,18.304 74.081,44.787 74.081,44.787 0.675,0.409 1.05,1.128 1.05,1.864 0,0.377 -0.097,0.758 -0.302,1.106 -0.608,1.027 -1.929,1.374 -2.962,0.777 0,0 -63.115,-36.438 -125.983,-72.735 66.238,40.701 132.489,81.411 132.489,81.411 0.668,0.411 1.037,1.124 1.037,1.856 0,0.379 -0.099,0.763 -0.308,1.112 -0.608,1.023 -1.926,1.366 -2.957,0.771 0,0 -45.271,-26.137 -76.145,-43.963 29.545,17.836 73.596,44.427 73.596,44.427 0.677,0.408 1.053,1.129 1.053,1.866 0,0.376 -0.098,0.756 -0.302,1.104 -0.608,1.029 -1.929,1.375 -2.964,0.779 0,0 -64.379,-37.17 -128.506,-74.193 69.492,42.648 138.984,85.296 138.984,85.296 0.669,0.41 1.039,1.125 1.039,1.858 0,0.378 -0.1,0.762 -0.306,1.111 -0.609,1.022 -1.927,1.366 -2.959,0.77"
           style="fill:#ed2939;fill-opacity:1;fill-rule:nonzero;stroke:none"
           id="path15693"
           inkscape:connector-curvature="0" /><path
           d="m 443.713,371.792 c 0.67,0.411 1.04,1.125 1.04,1.857 0,0.379 -0.099,0.763 -0.306,1.111 -0.609,1.024 -1.927,1.368 -2.959,0.772 0,0 -54.607,-31.528 -91.927,-53.074 30.043,18 79.013,47.341 79.013,47.341 0.68,0.408 1.057,1.129 1.057,1.869 0,0.375 -0.096,0.755 -0.301,1.102 -0.605,1.029 -1.928,1.378 -2.964,0.78 0,0 -48.899,-28.231 -108.405,-62.587 v -16.22 c 67.789,41.535 125.752,77.049 125.752,77.049"
           style="fill:#ed2939;fill-opacity:1;fill-rule:nonzero;stroke:none"
           id="path15695"
           inkscape:connector-curvature="0" /><path
           d="m 447.654,329.872 c 0.667,0.411 1.035,1.124 1.035,1.856 0,0.379 -0.098,0.763 -0.306,1.112 -0.61,1.023 -1.927,1.366 -2.958,0.771 0,0 -55.588,-32.094 -101.837,-58.795 47.146,28.479 103.082,62.267 103.082,62.267 0.676,0.409 1.052,1.128 1.052,1.865 0,0.376 -0.099,0.758 -0.303,1.105 -0.607,1.028 -1.929,1.375 -2.964,0.779 0,0 -63.073,-36.416 -126.494,-73.031 v -17.736 c 67.476,41.521 129.693,79.807 129.693,79.807"
           style="fill:#ed2939;fill-opacity:1;fill-rule:nonzero;stroke:none"
           id="path15697"
           inkscape:connector-curvature="0" /><path
           d="m 207.188,397.25 c 0.662,0.412 1.028,1.124 1.028,1.851 0,0.382 -0.101,0.767 -0.311,1.117 -0.611,1.019 -1.925,1.361 -2.954,0.766 0,0 -6.776,-3.912 -17.58,-10.15 v -5.893 c 10.062,6.251 19.817,12.309 19.817,12.309"
           style="fill:#ffffff;fill-opacity:1;fill-rule:nonzero;stroke:none"
           id="path15699"
           inkscape:connector-curvature="0" /><path
           d="m 264.757,342.199 c 0.657,0.413 1.018,1.121 1.018,1.845 0,0.383 -0.1,0.77 -0.312,1.122 -0.612,1.016 -1.925,1.354 -2.952,0.76 0,0 -37.812,-21.829 -72.111,-41.634 29.49,18.366 63.621,39.622 63.621,39.622 0.662,0.411 1.026,1.122 1.026,1.848 0,0.382 -0.101,0.768 -0.311,1.118 -0.61,1.019 -1.926,1.36 -2.954,0.766 0,0 -29.808,-17.21 -64.411,-37.189 v -16.894 c 39.978,25.126 77.386,48.636 77.386,48.636"
           style="fill:#ffffff;fill-opacity:1;fill-rule:nonzero;stroke:none"
           id="path15701"
           inkscape:connector-curvature="0" /><path
           d="m 245.109,348.032 c 0.656,0.414 1.016,1.12 1.016,1.843 0,0.383 -0.102,0.771 -0.313,1.124 -0.614,1.014 -1.926,1.352 -2.952,0.76 0,0 -24.375,-14.073 -55.489,-32.037 v -8.132 c 31.122,19.644 57.738,36.442 57.738,36.442"
           style="fill:#ffffff;fill-opacity:1;fill-rule:nonzero;stroke:none"
           id="path15703"
           inkscape:connector-curvature="0" /><path
           d="m 240.667,356.495 c 0.646,0.415 1.001,1.116 1.001,1.833 0,0.387 -0.104,0.777 -0.318,1.131 -0.615,1.01 -1.923,1.344 -2.947,0.752 0,0 -22.356,-12.906 -51.032,-29.463 v -8.462 c 29.954,19.227 53.296,34.209 53.296,34.209"
           style="fill:#ffffff;fill-opacity:1;fill-rule:nonzero;stroke:none"
           id="path15705"
           inkscape:connector-curvature="0" /><path
           d="m 297.358,237.388 c 6.882,4.235 13.768,8.473 20.603,12.677 v 17.736 c -1.515,-0.875 -3.029,-1.748 -4.543,-2.623 1.514,0.924 3.028,1.846 4.543,2.769 v 25.132 c -15.372,-8.874 -31.249,-18.04 -47.078,-27.18 15.823,9.695 31.703,19.425 47.078,28.844 v 16.22 c -16.813,-9.706 -34.471,-19.901 -52.113,-30.086 17.578,10.761 35.206,21.555 52.113,31.904 v 9.168 c -18.293,-10.561 -37.503,-21.653 -56.659,-32.712 19.282,11.8 38.574,23.605 56.659,34.672 v 8.394 c -20.761,-11.986 -43.277,-24.985 -65.78,-37.977 22.489,13.746 45.001,27.506 65.78,40.207 v 8.28 c -19.335,-11.162 -40.171,-23.192 -60.986,-35.21 20.88,12.688 41.85,25.428 60.986,37.053 v 7.43 c -24.238,-13.993 -51.922,-29.976 -79.606,-45.96 27.796,16.954 55.594,33.908 79.606,48.553 v 13.779 c -37.89,-21.876 -86.48,-49.93 -130.59,-75.397 v -11.465 c 14.548,8.4 29.807,17.21 45.046,26.007 -15.222,-9.284 -30.444,-18.568 -45.046,-27.474 v -8.465 c 13.531,7.813 27.573,15.919 41.584,24.009 -14.017,-8.516 -28.071,-17.055 -41.584,-25.266 v -8.015 c 23.8,13.741 49.977,28.854 76.076,43.922 -26.259,-16.051 -52.551,-32.122 -76.076,-46.502 v -7.931 c 24.685,14.253 52.587,30.361 80.436,46.44 -28.04,-17.159 -56.097,-34.327 -80.436,-49.223 v -7.573 c 30.173,17.422 66.688,38.503 102.969,59.45 -36.397,-22.282 -73.02,-44.704 -102.969,-63.039 v -7.393 c 2.985,1.723 5.845,3.375 8.513,4.914 -2.701,-1.618 -5.556,-3.328 -8.513,-5.1 v -6.564 c 32.248,18.617 72.287,41.735 111.894,64.601 -39.956,-24.481 -80.268,-49.179 -111.894,-68.556 v -7.18 c 21.15,12.211 45.688,26.379 69.52,40.137 -23.84,-14.404 -48.637,-29.387 -69.52,-42.004 v -6.402 c 15.655,9.039 32.985,19.043 48.685,28.107 -15.593,-9.391 -33.103,-19.935 -48.685,-29.32 v -6.127 c 29.404,16.976 70.65,40.791 111.889,64.599 -41.97,-25.578 -84.015,-51.201 -111.889,-68.187 v -6.08 c 19.585,11.307 45.612,26.334 69.005,39.84 -23.491,-14.192 -49.153,-29.692 -69.005,-41.684 V 179.6 c 30.326,17.507 78.232,45.166 125.772,72.612 -48.621,-29.917 -97.497,-59.995 -125.772,-77.394 v -5.957 c 21.906,12.649 56.758,32.77 89.675,51.774 -33.311,-20.213 -69.005,-41.873 -89.675,-54.414 v -5.545 c 25.087,14.484 77.361,44.666 130.59,75.396 v 13.211 c -6.833,-3.945 -13.72,-7.922 -20.603,-11.895"
           style="fill:#ffffff;fill-opacity:1;fill-rule:nonzero;stroke:none"
           id="path15707"
           inkscape:connector-curvature="0" /><path
           d="m 215.951,395.796 c 0.653,0.414 1.012,1.119 1.012,1.843 0,0.382 -0.1,0.771 -0.313,1.123 -0.613,1.014 -1.925,1.351 -2.951,0.759 0,0 -13.178,-7.608 -26.328,-15.201 v -6.592 c 16.771,10.604 28.58,18.068 28.58,18.068"
           style="fill:#ffffff;fill-opacity:1;fill-rule:nonzero;stroke:none"
           id="path15709"
           inkscape:connector-curvature="0" /><path
           d="m 201.458,404.768 c 0.641,0.416 0.992,1.115 0.992,1.828 0,0.388 -0.103,0.78 -0.321,1.135 -0.617,1.005 -1.922,1.337 -2.944,0.747 0,0 -4.486,-2.589 -11.814,-6.82 v -6.034 c 8.736,5.669 14.087,9.144 14.087,9.144"
           style="fill:#ffffff;fill-opacity:1;fill-rule:nonzero;stroke:none"
           id="path15711"
           inkscape:connector-curvature="0" /><path
           d="m 242.724,367.88 c 0.653,0.413 1.011,1.118 1.011,1.84 0,0.384 -0.101,0.773 -0.315,1.126 -0.613,1.013 -1.924,1.349 -2.95,0.757 0,0 -23.159,-13.371 -53.099,-30.658 v -8.158 c 30.957,19.627 55.353,35.093 55.353,35.093"
           style="fill:#ffffff;fill-opacity:1;fill-rule:nonzero;stroke:none"
           id="path15713"
           inkscape:connector-curvature="0" /><path
           d="m 229.355,383.507 c 0.666,0.412 1.033,1.123 1.033,1.854 0,0.379 -0.099,0.764 -0.308,1.115 -0.61,1.02 -1.927,1.363 -2.957,0.767 0,0 -16.515,-9.535 -39.752,-22.951 v -6.738 c 16.236,10.037 41.984,25.953 41.984,25.953"
           style="fill:#ffffff;fill-opacity:1;fill-rule:nonzero;stroke:none"
           id="path15715"
           inkscape:connector-curvature="0" /><path
           d="m 230.055,371.433 c 0.644,0.416 0.997,1.115 0.997,1.831 0,0.387 -0.103,0.778 -0.319,1.133 -0.616,1.007 -1.923,1.34 -2.946,0.75 0,0 -16.129,-9.312 -20.512,-11.843 4.316,2.64 20.2,12.359 20.2,12.359 0.67,0.41 1.041,1.124 1.041,1.858 0,0.378 -0.099,0.761 -0.307,1.11 -0.608,1.024 -1.927,1.368 -2.958,0.773 0,0 -24.023,-13.869 -37.88,-21.87 v -13.646 c 24.468,15.789 42.684,27.545 42.684,27.545"
           style="fill:#ffffff;fill-opacity:1;fill-rule:nonzero;stroke:none"
           id="path15717"
           inkscape:connector-curvature="0" /><path
           d="m 212.089,384.541 c 0.642,0.416 0.994,1.114 0.994,1.829 0,0.388 -0.104,0.779 -0.32,1.133 -0.617,1.007 -1.923,1.34 -2.945,0.75 0,0 -9.139,-5.278 -22.447,-12.961 v -6.754 c 14.886,9.637 24.718,16.003 24.718,16.003"
           style="fill:#ffffff;fill-opacity:1;fill-rule:nonzero;stroke:none"
           id="path15719"
           inkscape:connector-curvature="0" /><path
           d="m 187.371,155.688 v -5.036 c 0.14,0.045 0.279,0.106 0.412,0.182 0,0 45.038,26.004 75.584,43.639 -29.538,-17.83 -73.586,-44.42 -73.586,-44.42 -0.676,-0.408 -1.052,-1.127 -1.052,-1.865 0,-0.377 0.098,-0.758 0.303,-1.104 0.607,-1.029 1.929,-1.375 2.963,-0.779 0,0 62.081,35.841 125.966,72.726 v 16.803 C 257.31,198.611 198.333,162.414 187.371,155.688"
           style="fill:#ffffff;fill-opacity:1;fill-rule:nonzero;stroke:none"
           id="path15721"
           inkscape:connector-curvature="0" /><path
           d="m 251.278,125.107 c -0.655,-0.414 -1.015,-1.121 -1.015,-1.843 0,-0.383 0.1,-0.772 0.313,-1.123 0.612,-1.016 1.925,-1.354 2.951,-0.76 0,0 29,16.744 64.434,37.201 v 8.594 c -36.723,-23.168 -66.683,-42.069 -66.683,-42.069"
           style="fill:#ffffff;fill-opacity:1;fill-rule:nonzero;stroke:none"
           id="path15723"
           inkscape:connector-curvature="0" /><path
           d="m 191.387,141.035 c -0.668,-0.41 -1.038,-1.125 -1.038,-1.857 0,-0.379 0.1,-0.762 0.307,-1.112 0.61,-1.023 1.927,-1.365 2.958,-0.769 0,0 45.046,26.006 76.688,44.273 -30.269,-18.299 -74.071,-44.779 -74.071,-44.779 -0.677,-0.408 -1.051,-1.127 -1.051,-1.865 0,-0.377 0.097,-0.758 0.303,-1.106 0.607,-1.025 1.929,-1.373 2.962,-0.777 0,0 52.847,30.512 99.382,57.379 -40.917,-24.877 -89.57,-54.455 -89.57,-54.455 -0.674,-0.41 -1.046,-1.127 -1.046,-1.863 0,-0.377 0.098,-0.76 0.304,-1.108 0.608,-1.025 1.927,-1.371 2.961,-0.775 0,0 45.821,26.453 82.499,47.629 -35.139,-21.371 -79.622,-48.43 -79.622,-48.43 -0.674,-0.408 -1.047,-1.125 -1.047,-1.861 0,-0.377 0.099,-0.76 0.305,-1.108 0.608,-1.025 1.928,-1.371 2.961,-0.775 0,0 48.499,28.002 102.389,59.115 v 32.022 C 253.752,179.357 191.387,141.035 191.387,141.035"
           style="fill:#ffffff;fill-opacity:1;fill-rule:nonzero;stroke:none"
           id="path15725"
           inkscape:connector-curvature="0" /><path
           d="m 231.042,131.764 c -0.662,-0.412 -1.027,-1.123 -1.027,-1.852 0,-0.379 0.101,-0.766 0.31,-1.115 0.611,-1.02 1.926,-1.361 2.955,-0.766 0,0 42.31,24.428 79.176,45.711 -35.976,-22.127 -77.391,-47.599 -77.391,-47.599 -0.667,-0.411 -1.035,-1.125 -1.035,-1.856 0,-0.379 0.098,-0.764 0.307,-1.113 0.609,-1.022 1.927,-1.365 2.958,-0.772 0,0 36.871,21.289 80.666,46.575 v 16.873 c -46.104,-28.69 -86.919,-54.086 -86.919,-54.086"
           style="fill:#ffffff;fill-opacity:1;fill-rule:nonzero;stroke:none"
           id="path15727"
           inkscape:connector-curvature="0" /><path
           d="m 317.466,144.689 c -0.627,-0.418 -0.97,-1.107 -0.97,-1.812 0,-0.393 0.106,-0.789 0.327,-1.147 0.274,-0.439 0.683,-0.74 1.138,-0.898 v 4.188 c -0.323,-0.215 -0.495,-0.331 -0.495,-0.331"
           style="fill:#ffffff;fill-opacity:1;fill-rule:nonzero;stroke:none"
           id="path15729"
           inkscape:connector-curvature="0" /><path
           d="m 275.617,129.902 c -0.652,-0.412 -1.011,-1.117 -1.011,-1.838 0,-0.384 0.102,-0.773 0.316,-1.125 0.613,-1.013 1.924,-1.351 2.949,-0.757 0,0 17.108,9.877 40.09,23.146 v 7.443 c -23.809,-15.105 -42.344,-26.869 -42.344,-26.869"
           style="fill:#ffffff;fill-opacity:1;fill-rule:nonzero;stroke:none"
           id="path15731"
           inkscape:connector-curvature="0" /><path
           d="m 185.557,154.574 c -0.669,-0.41 -1.039,-1.125 -1.039,-1.855 0,-0.381 0.099,-0.764 0.307,-1.114 0.529,-0.89 1.598,-1.265 2.546,-0.953 v 5.036 c -1.189,-0.731 -1.814,-1.114 -1.814,-1.114"
           style="fill:#002395;fill-opacity:1;fill-rule:nonzero;stroke:none"
           id="path15733"
           inkscape:connector-curvature="0" /><path
           d="m 116.827,188.09 c -0.68,-0.406 -1.058,-1.129 -1.058,-1.867 0,-0.377 0.097,-0.756 0.301,-1.104 0.605,-1.029 1.929,-1.379 2.964,-0.781 0,0 28.104,16.226 68.337,39.455 v 6.564 C 157.407,212.404 116.827,188.09 116.827,188.09"
           style="fill:#002395;fill-opacity:1;fill-rule:nonzero;stroke:none"
           id="path15735"
           inkscape:connector-curvature="0" /><path
           d="m 101.676,207.432 c -0.671,-0.411 -1.041,-1.125 -1.041,-1.86 0,-0.379 0.098,-0.761 0.304,-1.109 0.609,-1.024 1.928,-1.367 2.96,-0.774 0,0 35.716,20.622 83.472,48.192 v 7.931 c -48.8,-29.828 -85.695,-52.38 -85.695,-52.38"
           style="fill:#002395;fill-opacity:1;fill-rule:nonzero;stroke:none"
           id="path15737"
           inkscape:connector-curvature="0" /><path
           d="m 119.519,196.395 c -0.671,-0.411 -1.04,-1.125 -1.04,-1.86 0,-0.379 0.098,-0.762 0.306,-1.111 0.608,-1.024 1.927,-1.367 2.958,-0.772 0,0 38.197,22.053 65.628,37.891 v 7.393 c -39.826,-24.383 -67.852,-41.541 -67.852,-41.541"
           style="fill:#002395;fill-opacity:1;fill-rule:nonzero;stroke:none"
           id="path15739"
           inkscape:connector-curvature="0" /><path
           d="m 113.746,204.043 c -0.67,-0.408 -1.04,-1.123 -1.04,-1.855 0,-0.381 0.098,-0.764 0.305,-1.112 0.61,-1.025 1.928,-1.369 2.96,-0.773 0,0 29.62,17.101 71.4,41.222 v 7.573 C 144.9,223.109 113.746,204.043 113.746,204.043"
           style="fill:#002395;fill-opacity:1;fill-rule:nonzero;stroke:none"
           id="path15741"
           inkscape:connector-curvature="0" /><path
           d="m 177.57,287.403 c 3.271,2.056 6.545,4.113 9.801,6.16 v 16.894 c -6.896,-3.981 -13.981,-8.072 -21.061,-12.159 7.082,4.47 14.181,8.951 21.061,13.292 v 8.132 c -12.535,-7.237 -26.162,-15.104 -39.732,-22.939 13.586,8.721 27.234,17.481 39.732,25.503 v 8.462 c -11.348,-6.552 -23.685,-13.675 -36.02,-20.796 12.304,7.8 24.607,15.6 36.02,22.835 v 8.158 c -13.541,-7.817 -28.468,-16.435 -43.267,-24.98 14.992,9.676 30.041,19.388 43.267,27.923 v 13.646 c -0.169,-0.097 -0.336,-0.194 -0.501,-0.289 0.166,0.102 0.333,0.205 0.501,0.309 v 6.738 c -17.727,-10.234 -39.365,-22.727 -60.575,-34.973 22.083,14.297 44.336,28.704 60.575,39.219 v 6.754 c -12.498,-7.216 -28.673,-16.554 -44.404,-25.637 15.663,9.904 31.501,19.916 44.404,28.073 v 6.592 c -4.981,-2.876 -9.958,-5.749 -14.214,-8.206 4.016,2.494 9.154,5.685 14.214,8.827 v 5.893 c -16.225,-9.367 -41.538,-23.981 -66.677,-38.495 25.59,16.613 51.347,33.332 66.677,43.285 v 6.034 c -12.946,-7.474 -34.767,-20.072 -56.434,-32.581 26.837,17.244 55.181,35.456 55.181,35.456 0.646,0.416 1,1.116 1,1.833 0,0.387 -0.103,0.777 -0.318,1.131 -0.615,1.009 -1.923,1.343 -2.947,0.752 0,0 -25.062,-14.47 -47.869,-27.638 18.803,12.165 40.755,26.368 40.755,26.368 0.643,0.416 0.994,1.114 0.994,1.83 0,0.387 -0.104,0.779 -0.32,1.133 -0.616,1.008 -1.922,1.339 -2.945,0.749 0,0 -28.381,-16.386 -56.666,-32.717 22.472,15.236 45.058,30.551 45.058,30.551 0.619,0.419 0.956,1.104 0.956,1.803 0,0.396 -0.108,0.795 -0.333,1.153 -0.622,0.993 -1.918,1.316 -2.932,0.73 0,0 -28.971,-16.726 -55.953,-32.303 19.824,14.218 39.755,28.513 39.755,28.513 0.591,0.424 0.908,1.091 0.908,1.769 0,0.406 -0.113,0.816 -0.347,1.179 -0.63,0.975 -1.913,1.285 -2.918,0.705 0,0 -16.542,-9.552 -32.55,-18.793 9.406,7.501 18.963,15.124 18.963,15.124 0.536,0.428 0.82,1.061 0.82,1.702 0,0.424 -0.124,0.851 -0.379,1.225 -0.642,0.942 -1.9,1.228 -2.886,0.66 L 96.197,394.805 c -1.041,-0.601 -1.398,-1.932 -0.796,-2.973 0.601,-1.041 1.932,-1.397 2.974,-0.796 0,0 3.408,1.968 4.62,2.668 -9.405,-7.502 -18.964,-15.125 -18.964,-15.125 -0.536,-0.429 -0.82,-1.061 -0.82,-1.703 0,-0.424 0.124,-0.851 0.379,-1.225 0.642,-0.941 1.9,-1.228 2.886,-0.658 0,0 10.77,6.218 19.488,11.251 C 86.145,372.028 66.22,357.738 66.22,357.738 c -0.591,-0.424 -0.908,-1.091 -0.908,-1.771 0,-0.404 0.113,-0.813 0.348,-1.177 0.629,-0.975 1.912,-1.286 2.916,-0.706 0,0 21.241,12.262 41.989,24.243 -22.482,-15.244 -45.078,-30.566 -45.078,-30.566 -0.62,-0.42 -0.956,-1.105 -0.956,-1.803 0,-0.396 0.108,-0.795 0.333,-1.154 0.621,-0.992 1.918,-1.315 2.932,-0.729 0,0 19.537,11.28 34.427,19.877 -18.797,-12.162 -40.746,-26.363 -40.746,-26.363 -0.643,-0.416 -0.995,-1.114 -0.995,-1.829 0,-0.388 0.103,-0.779 0.32,-1.134 0.616,-1.007 1.923,-1.339 2.945,-0.749 0,0 23.373,13.495 42.941,24.793 -26.81,-17.227 -55.138,-35.428 -55.138,-35.428 -0.646,-0.415 -1,-1.117 -1,-1.834 0,-0.386 0.103,-0.777 0.318,-1.131 0.615,-1.008 1.924,-1.342 2.947,-0.752 0,0 37.69,21.761 75.347,43.5 -40.182,-26.084 -80.783,-52.441 -80.783,-52.441 -0.64,-0.416 -0.991,-1.114 -0.991,-1.827 0,-0.388 0.104,-0.781 0.321,-1.135 0.617,-1.006 1.922,-1.338 2.944,-0.747 0,0 24.585,14.193 39.479,22.792 -12.036,-7.476 -34.086,-21.172 -34.086,-21.172 -0.663,-0.412 -1.028,-1.122 -1.028,-1.851 0,-0.38 0.1,-0.766 0.31,-1.117 0.61,-1.019 1.926,-1.36 2.955,-0.766 0,0 33.025,19.068 63.714,36.787 -36.009,-22.765 -72.956,-46.124 -72.956,-46.124 -0.655,-0.413 -1.015,-1.119 -1.015,-1.841 0,-0.384 0.102,-0.772 0.315,-1.125 0.613,-1.013 1.925,-1.351 2.951,-0.758 0,0 43.648,25.2 86.747,50.084 -42.323,-27.401 -85.286,-55.217 -85.286,-55.217 -0.642,-0.415 -0.994,-1.114 -0.994,-1.828 0,-0.388 0.104,-0.781 0.321,-1.134 0.616,-1.008 1.922,-1.339 2.944,-0.749 0,0 29.145,16.826 48.863,28.211 C 87.671,301.043 61.378,284.79 61.378,284.79 c -0.665,-0.411 -1.032,-1.123 -1.032,-1.853 0,-0.381 0.1,-0.766 0.309,-1.115 0.61,-1.02 1.926,-1.363 2.956,-0.768 0,0 12.994,7.502 15.723,9.077 -4.328,-2.647 -20.23,-12.377 -20.23,-12.377 -0.67,-0.409 -1.041,-1.125 -1.041,-1.858 0,-0.378 0.099,-0.761 0.306,-1.11 0.609,-1.024 1.927,-1.369 2.959,-0.773 0,0 46.668,26.944 92.471,53.39 -42.728,-27.575 -85.943,-55.464 -85.943,-55.464 -0.644,-0.415 -0.997,-1.114 -0.997,-1.83 0,-0.387 0.103,-0.778 0.319,-1.133 0.616,-1.007 1.924,-1.34 2.947,-0.75 0,0 40.887,23.607 81.529,47.072 -45.676,-28.958 -91.373,-57.929 -91.373,-57.929 -0.653,-0.413 -1.011,-1.118 -1.011,-1.84 0,-0.384 0.101,-0.773 0.314,-1.124 0.614,-1.014 1.924,-1.351 2.95,-0.758 0,0 49.443,28.545 97.91,56.528 -46.138,-29.614 -93.005,-59.697 -93.005,-59.697 -0.647,-0.415 -1.001,-1.117 -1.001,-1.833 0,-0.387 0.103,-0.778 0.318,-1.131 0.615,-1.01 1.923,-1.344 2.947,-0.752 0,0 40.187,23.201 79.72,46.024 -39.134,-24.699 -78.828,-49.752 -78.828,-49.752 -0.656,-0.414 -1.015,-1.12 -1.015,-1.843 0,-0.382 0.1,-0.771 0.313,-1.123 0.613,-1.014 1.924,-1.351 2.951,-0.759 0,0 36.18,20.889 68.204,39.377 -29.507,-18.375 -63.646,-39.637 -63.646,-39.637 -0.662,-0.41 -1.026,-1.121 -1.026,-1.848 0,-0.382 0.1,-0.767 0.311,-1.118 0.61,-1.019 1.925,-1.358 2.954,-0.765 0,0 42.58,24.584 84.529,48.804 -43.428,-27.293 -87.168,-54.784 -87.168,-54.784 -0.657,-0.414 -1.019,-1.121 -1.019,-1.846 0,-0.383 0.101,-0.769 0.313,-1.121 0.612,-1.016 1.925,-1.355 2.953,-0.762 0,0 47.292,27.305 74.911,43.25 -22.101,-13.241 -64.587,-38.699 -64.587,-38.699 -0.68,-0.408 -1.058,-1.127 -1.058,-1.869 0,-0.375 0.097,-0.754 0.3,-1.102 0.607,-1.029 1.93,-1.378 2.965,-0.781 0,0 43.198,24.94 95.591,55.188 v 11.465 c -3.294,-1.902 -6.563,-3.789 -9.801,-5.658"
           style="fill:#002395;fill-opacity:1;fill-rule:nonzero;stroke:none"
           id="path15743"
           inkscape:connector-curvature="0" /><path
           d="m 81.759,215.715 c -0.672,-0.41 -1.044,-1.127 -1.044,-1.86 0,-0.378 0.099,-0.761 0.305,-1.109 0.609,-1.025 1.929,-1.371 2.96,-0.773 0,0 47.311,27.313 103.391,59.691 v 8.465 C 129.724,244.969 81.759,215.715 81.759,215.715"
           style="fill:#002395;fill-opacity:1;fill-rule:nonzero;stroke:none"
           id="path15745"
           inkscape:connector-curvature="0" /><path
           d="m 88.443,210.301 c -0.674,-0.408 -1.047,-1.127 -1.047,-1.862 0,-0.376 0.099,-0.759 0.304,-1.107 0.608,-1.027 1.928,-1.371 2.961,-0.775 0,0 42.104,24.308 96.71,55.835 v 8.015 C 133.622,237.751 88.443,210.301 88.443,210.301"
           style="fill:#002395;fill-opacity:1;fill-rule:nonzero;stroke:none"
           id="path15747"
           inkscape:connector-curvature="0" /><path
           d="m 136.063,179.791 c -0.677,-0.408 -1.052,-1.127 -1.052,-1.863 0,-0.377 0.098,-0.758 0.303,-1.106 0.607,-1.027 1.928,-1.375 2.963,-0.779 0,0 22.048,12.73 49.094,28.346 v 6.402 c -29.582,-17.873 -51.308,-31 -51.308,-31"
           style="fill:#002395;fill-opacity:1;fill-rule:nonzero;stroke:none"
           id="path15749"
           inkscape:connector-curvature="0" /><path
           d="m 154.523,173.443 c -0.672,-0.41 -1.044,-1.127 -1.044,-1.861 0,-0.377 0.098,-0.76 0.305,-1.107 0.608,-1.026 1.928,-1.371 2.96,-0.776 0,0 12.58,7.262 30.627,17.682 v 6.08 c -20.113,-12.258 -32.848,-20.018 -32.848,-20.018"
           style="fill:#002395;fill-opacity:1;fill-rule:nonzero;stroke:none"
           id="path15751"
           inkscape:connector-curvature="0" /><path
           d="m 153.23,164.914 c -0.676,-0.408 -1.051,-1.127 -1.051,-1.865 0,-0.375 0.097,-0.758 0.303,-1.104 0.606,-1.029 1.929,-1.375 2.962,-0.779 0,0 12.272,7.086 31.927,18.434 v 5.937 C 167.344,173.439 153.23,164.914 153.23,164.914"
           style="fill:#002395;fill-opacity:1;fill-rule:nonzero;stroke:none"
           id="path15753"
           inkscape:connector-curvature="0" /><path
           d="m 162.873,159.744 c -0.668,-0.412 -1.037,-1.123 -1.037,-1.855 0,-0.379 0.1,-0.764 0.308,-1.114 0.609,-1.021 1.927,-1.365 2.958,-0.769 0,0 8.626,4.98 22.269,12.855 v 5.957 c -15.242,-9.379 -24.498,-15.074 -24.498,-15.074"
           style="fill:#002395;fill-opacity:1;fill-rule:nonzero;stroke:none"
           id="path15755"
           inkscape:connector-curvature="0" /><path
           d="m 126.465,182.521 c -0.669,-0.41 -1.038,-1.125 -1.038,-1.857 0,-0.379 0.098,-0.764 0.305,-1.111 0.609,-1.024 1.928,-1.367 2.959,-0.772 0,0 25.056,14.465 58.68,33.877 v 7.18 c -36.115,-22.127 -60.906,-37.317 -60.906,-37.317"
           style="fill:#002395;fill-opacity:1;fill-rule:nonzero;stroke:none"
           id="path15757"
           inkscape:connector-curvature="0" /><path
           d="m 143.111,176.521 c -0.677,-0.408 -1.053,-1.126 -1.053,-1.865 0,-0.377 0.097,-0.758 0.302,-1.103 0.607,-1.03 1.929,-1.377 2.962,-0.782 0,0 16.585,9.577 42.049,24.278 v 6.127 c -24.515,-14.764 -44.26,-26.655 -44.26,-26.655"
           style="fill:#002395;fill-opacity:1;fill-rule:nonzero;stroke:none"
           id="path15759"
           inkscape:connector-curvature="0" /><path
           d="m 169.76,155.533 c -0.674,-0.408 -1.047,-1.125 -1.047,-1.861 0,-0.377 0.099,-0.76 0.304,-1.108 0.607,-1.025 1.928,-1.371 2.961,-0.777 0,0 5.645,3.26 15.393,8.889 v 5.545 C 176.48,159.611 169.76,155.533 169.76,155.533"
           style="fill:#002395;fill-opacity:1;fill-rule:nonzero;stroke:none"
           id="path15761"
           inkscape:connector-curvature="0" /></g></g></g></svg>