<?xml version="1.0" encoding="UTF-8"?>
<svg xmlns="http://www.w3.org/2000/svg" xmlns:xlink="http://www.w3.org/1999/xlink" width="26pt" height="26pt" viewBox="0 0 26 26" version="1.1">
<defs>
<clipPath id="clip1">
  <path d="M 0 0 L 25.988281 0 L 25.988281 25.988281 L 0 25.988281 Z M 0 0 "/>
</clipPath>
</defs>
<g id="surface1">
<g clip-path="url(#clip1)" clip-rule="nonzero">
<path style=" stroke:none;fill-rule:nonzero;fill:rgb(0%,0%,0%);fill-opacity:1;" d="M 25.988281 25.988281 L 0 25.988281 L 0 0 L 25.988281 0 Z M 25.988281 25.988281 "/>
</g>
<path style=" stroke:none;fill-rule:nonzero;fill:rgb(92.941176%,16.078431%,22.352941%);fill-opacity:1;" d="M 23.816406 7.617188 C 23.851562 7.597656 23.871094 7.558594 23.871094 7.519531 C 23.871094 7.5 23.867188 7.480469 23.855469 7.464844 C 23.824219 7.410156 23.753906 7.390625 23.699219 7.421875 C 23.699219 7.421875 20.613281 9.207031 18.050781 10.683594 C 20.136719 9.429688 22.878906 7.777344 22.878906 7.777344 C 22.914062 7.753906 22.933594 7.71875 22.933594 7.679688 C 22.933594 7.660156 22.929688 7.640625 22.917969 7.621094 C 22.886719 7.570312 22.820312 7.550781 22.765625 7.582031 C 22.765625 7.582031 19.652344 9.378906 16.917969 10.957031 C 19.910156 9.148438 23.195312 7.164062 23.195312 7.164062 C 23.230469 7.144531 23.25 7.105469 23.25 7.066406 C 23.25 7.046875 23.246094 7.027344 23.234375 7.011719 C 23.203125 6.957031 23.136719 6.9375 23.082031 6.96875 C 23.082031 6.96875 20.0625 8.714844 16.527344 10.753906 L 16.527344 12.0625 C 20.203125 9.820312 23.816406 7.617188 23.816406 7.617188 "/>
<path style=" stroke:none;fill-rule:nonzero;fill:rgb(92.941176%,16.078431%,22.352941%);fill-opacity:1;" d="M 21.585938 6.054688 C 21.621094 6.035156 21.640625 5.996094 21.640625 5.957031 C 21.640625 5.9375 21.636719 5.917969 21.625 5.902344 C 21.59375 5.847656 21.523438 5.828125 21.472656 5.859375 C 21.472656 5.859375 19.300781 7.113281 16.527344 8.714844 L 16.527344 9.152344 C 19.335938 7.433594 21.585938 6.054688 21.585938 6.054688 "/>
<path style=" stroke:none;fill-rule:nonzero;fill:rgb(92.941176%,16.078431%,22.352941%);fill-opacity:1;" d="M 21.515625 5.550781 C 21.550781 5.527344 21.570312 5.492188 21.570312 5.453125 C 21.570312 5.433594 21.566406 5.414062 21.554688 5.394531 C 21.523438 5.34375 21.453125 5.324219 21.398438 5.355469 C 21.398438 5.355469 19.25 6.597656 16.527344 8.167969 L 16.527344 8.601562 C 19.324219 6.890625 21.515625 5.550781 21.515625 5.550781 "/>
<path style=" stroke:none;fill-rule:nonzero;fill:rgb(92.941176%,16.078431%,22.352941%);fill-opacity:1;" d="M 20.660156 5.5625 C 20.695312 5.542969 20.714844 5.503906 20.714844 5.464844 C 20.714844 5.445312 20.707031 5.425781 20.699219 5.40625 C 20.667969 5.355469 20.597656 5.335938 20.542969 5.367188 C 20.542969 5.367188 18.835938 6.355469 16.527344 7.6875 L 16.527344 8.074219 C 18.855469 6.660156 20.660156 5.5625 20.660156 5.5625 "/>
<path style=" stroke:none;fill-rule:nonzero;fill:rgb(92.941176%,16.078431%,22.352941%);fill-opacity:1;" d="M 22.699219 5.953125 C 22.730469 5.929688 22.75 5.894531 22.75 5.855469 C 22.75 5.835938 22.746094 5.816406 22.734375 5.796875 C 22.703125 5.746094 22.636719 5.726562 22.582031 5.757812 C 22.582031 5.757812 19.84375 7.335938 16.527344 9.253906 L 16.527344 9.730469 C 19.886719 7.671875 22.699219 5.953125 22.699219 5.953125 "/>
<path style=" stroke:none;fill-rule:nonzero;fill:rgb(92.941176%,16.078431%,22.352941%);fill-opacity:1;" d="M 20.214844 5.300781 C 20.25 5.28125 20.269531 5.242188 20.269531 5.207031 C 20.269531 5.1875 20.265625 5.167969 20.253906 5.148438 C 20.222656 5.09375 20.152344 5.078125 20.101562 5.109375 C 20.101562 5.109375 17.878906 6.390625 16.726562 7.054688 C 17.878906 6.363281 20.09375 5.039062 20.09375 5.039062 C 20.128906 5.015625 20.148438 4.980469 20.148438 4.941406 C 20.148438 4.921875 20.144531 4.902344 20.132812 4.882812 C 20.101562 4.832031 20.03125 4.8125 19.976562 4.84375 C 19.976562 4.84375 18.542969 5.671875 16.527344 6.835938 L 16.527344 7.554688 C 18.65625 6.253906 20.214844 5.300781 20.214844 5.300781 "/>
<path style=" stroke:none;fill-rule:nonzero;fill:rgb(92.941176%,16.078431%,22.352941%);fill-opacity:1;" d="M 24.050781 9.109375 C 24.050781 9.109375 20.832031 10.96875 17.8125 12.714844 C 20.453125 11.113281 23.382812 9.332031 23.382812 9.332031 C 23.417969 9.3125 23.4375 9.273438 23.4375 9.238281 C 23.4375 9.21875 23.429688 9.199219 23.421875 9.179688 C 23.390625 9.125 23.320312 9.109375 23.265625 9.140625 C 23.265625 9.140625 20.035156 11.003906 16.527344 13.03125 L 16.527344 13.71875 C 16.640625 13.652344 16.753906 13.585938 16.867188 13.519531 C 16.753906 13.589844 16.640625 13.660156 16.527344 13.730469 L 16.527344 14.601562 C 16.628906 14.542969 16.730469 14.484375 16.832031 14.425781 C 16.730469 14.488281 16.628906 14.550781 16.527344 14.613281 L 16.527344 16.277344 C 16.886719 16.070312 17.25 15.859375 17.613281 15.652344 C 17.25 15.878906 16.882812 16.105469 16.527344 16.328125 L 16.527344 17.203125 C 17.09375 16.875 17.683594 16.535156 18.273438 16.195312 C 17.679688 16.570312 17.085938 16.945312 16.527344 17.296875 L 16.527344 17.746094 C 17.054688 17.4375 17.613281 17.117188 18.171875 16.796875 C 17.609375 17.152344 17.042969 17.511719 16.527344 17.839844 L 16.527344 18.226562 C 17.292969 17.78125 18.183594 17.269531 19.050781 16.769531 C 17.886719 17.542969 16.710938 18.324219 16.527344 18.449219 L 16.527344 18.667969 C 16.554688 18.679688 16.589844 18.675781 16.621094 18.660156 L 21.160156 16.039062 C 21.214844 16.007812 21.234375 15.9375 21.203125 15.882812 C 21.171875 15.828125 21.101562 15.808594 21.046875 15.839844 C 21.046875 15.839844 20.214844 16.320312 19.566406 16.699219 C 20.832031 15.851562 22.117188 14.996094 22.117188 14.996094 C 22.148438 14.976562 22.167969 14.941406 22.167969 14.902344 C 22.167969 14.882812 22.160156 14.863281 22.148438 14.84375 C 22.117188 14.792969 22.050781 14.773438 21.996094 14.804688 C 21.996094 14.804688 20.433594 15.710938 19.015625 16.527344 C 20.921875 15.316406 22.859375 14.085938 22.859375 14.085938 C 22.894531 14.066406 22.914062 14.03125 22.914062 13.992188 C 22.914062 13.972656 22.90625 13.953125 22.894531 13.933594 C 22.863281 13.878906 22.796875 13.863281 22.742188 13.894531 C 22.742188 13.894531 20.398438 15.246094 18.058594 16.597656 C 20.660156 14.957031 23.269531 13.3125 23.269531 13.3125 C 23.304688 13.289062 23.324219 13.253906 23.324219 13.214844 C 23.324219 13.195312 23.316406 13.175781 23.304688 13.15625 C 23.273438 13.105469 23.207031 13.085938 23.152344 13.117188 C 23.152344 13.117188 21.042969 14.335938 19.257812 15.367188 C 21.128906 14.214844 23.28125 12.890625 23.28125 12.890625 C 23.316406 12.871094 23.335938 12.832031 23.335938 12.792969 C 23.335938 12.773438 23.332031 12.753906 23.320312 12.738281 C 23.289062 12.683594 23.21875 12.664062 23.167969 12.695312 C 23.167969 12.695312 20.542969 14.210938 17.941406 15.710938 C 20.746094 13.96875 23.546875 12.222656 23.546875 12.222656 C 23.582031 12.203125 23.601562 12.167969 23.601562 12.128906 C 23.601562 12.109375 23.597656 12.089844 23.585938 12.070312 C 23.554688 12.015625 23.484375 12 23.433594 12.03125 C 23.433594 12.03125 21.261719 13.285156 19.660156 14.207031 C 21.484375 13.097656 23.796875 11.691406 23.796875 11.691406 C 23.832031 11.671875 23.851562 11.632812 23.851562 11.59375 C 23.851562 11.574219 23.84375 11.554688 23.835938 11.539062 C 23.804688 11.484375 23.734375 11.464844 23.679688 11.496094 C 23.679688 11.496094 21.324219 12.859375 19.46875 13.929688 C 21.597656 12.636719 24.128906 11.097656 24.128906 11.097656 C 24.164062 11.074219 24.179688 11.039062 24.179688 11 C 24.179688 10.980469 24.175781 10.960938 24.164062 10.941406 C 24.132812 10.890625 24.066406 10.871094 24.011719 10.902344 C 24.011719 10.902344 21.625 12.28125 19.914062 13.269531 C 21.488281 12.316406 23.765625 10.941406 23.765625 10.941406 C 23.800781 10.917969 23.820312 10.882812 23.820312 10.84375 C 23.820312 10.824219 23.8125 10.804688 23.800781 10.785156 C 23.769531 10.734375 23.703125 10.714844 23.648438 10.746094 C 23.648438 10.746094 20.367188 12.640625 17.101562 14.527344 C 20.542969 12.410156 23.988281 10.296875 23.988281 10.296875 C 24.023438 10.273438 24.039062 10.238281 24.039062 10.199219 C 24.039062 10.179688 24.035156 10.160156 24.023438 10.140625 C 23.992188 10.085938 23.925781 10.070312 23.871094 10.101562 C 23.871094 10.101562 21.519531 11.460938 19.914062 12.386719 C 21.449219 11.457031 23.738281 10.078125 23.738281 10.078125 C 23.773438 10.054688 23.792969 10.019531 23.792969 9.980469 C 23.792969 9.960938 23.789062 9.941406 23.777344 9.921875 C 23.746094 9.867188 23.675781 9.851562 23.625 9.882812 C 23.625 9.882812 20.277344 11.8125 16.945312 13.738281 C 20.554688 11.523438 24.167969 9.304688 24.167969 9.304688 C 24.203125 9.285156 24.222656 9.246094 24.222656 9.207031 C 24.222656 9.1875 24.21875 9.167969 24.207031 9.152344 C 24.175781 9.097656 24.105469 9.078125 24.050781 9.109375 "/>
<path style=" stroke:none;fill-rule:nonzero;fill:rgb(92.941176%,16.078431%,22.352941%);fill-opacity:1;" d="M 23.0625 6.664062 C 23.097656 6.640625 23.117188 6.605469 23.117188 6.566406 C 23.117188 6.546875 23.109375 6.527344 23.101562 6.507812 C 23.066406 6.457031 23 6.4375 22.945312 6.46875 C 22.945312 6.46875 20.109375 8.109375 18.167969 9.226562 C 19.730469 8.292969 22.273438 6.765625 22.273438 6.765625 C 22.308594 6.746094 22.328125 6.707031 22.328125 6.671875 C 22.328125 6.652344 22.324219 6.628906 22.3125 6.613281 C 22.28125 6.558594 22.214844 6.542969 22.160156 6.570312 C 22.160156 6.570312 19.617188 8.039062 16.527344 9.824219 L 16.527344 10.667969 C 20.050781 8.507812 23.0625 6.664062 23.0625 6.664062 "/>
<path style=" stroke:none;fill-rule:nonzero;fill:rgb(92.941176%,16.078431%,22.352941%);fill-opacity:1;" d="M 23.265625 8.84375 C 23.300781 8.820312 23.320312 8.785156 23.320312 8.746094 C 23.320312 8.726562 23.316406 8.707031 23.304688 8.6875 C 23.273438 8.636719 23.203125 8.617188 23.152344 8.648438 C 23.152344 8.648438 20.261719 10.316406 17.859375 11.703125 C 20.308594 10.222656 23.214844 8.46875 23.214844 8.46875 C 23.25 8.445312 23.269531 8.410156 23.269531 8.371094 C 23.269531 8.351562 23.265625 8.332031 23.253906 8.3125 C 23.222656 8.257812 23.152344 8.242188 23.101562 8.273438 C 23.101562 8.273438 19.820312 10.164062 16.527344 12.066406 L 16.527344 12.988281 C 20.03125 10.832031 23.265625 8.84375 23.265625 8.84375 "/>
<path style=" stroke:none;fill-rule:nonzero;fill:rgb(100%,100%,100%);fill-opacity:1;" d="M 10.769531 5.339844 C 10.804688 5.320312 10.820312 5.28125 10.820312 5.242188 C 10.820312 5.222656 10.816406 5.203125 10.804688 5.1875 C 10.773438 5.132812 10.707031 5.117188 10.652344 5.144531 C 10.652344 5.144531 10.300781 5.347656 9.738281 5.671875 L 9.738281 5.980469 C 10.261719 5.65625 10.769531 5.339844 10.769531 5.339844 "/>
<path style=" stroke:none;fill-rule:nonzero;fill:rgb(100%,100%,100%);fill-opacity:1;" d="M 13.761719 8.203125 C 13.792969 8.179688 13.8125 8.144531 13.8125 8.105469 C 13.8125 8.085938 13.808594 8.066406 13.796875 8.046875 C 13.765625 7.996094 13.695312 7.976562 13.644531 8.007812 C 13.644531 8.007812 11.679688 9.140625 9.894531 10.171875 C 11.429688 9.21875 13.203125 8.113281 13.203125 8.113281 C 13.238281 8.089844 13.253906 8.054688 13.253906 8.015625 C 13.253906 7.996094 13.25 7.976562 13.238281 7.957031 C 13.207031 7.90625 13.140625 7.886719 13.085938 7.917969 C 13.085938 7.917969 11.535156 8.8125 9.738281 9.851562 L 9.738281 10.730469 C 11.816406 9.421875 13.761719 8.203125 13.761719 8.203125 "/>
<path style=" stroke:none;fill-rule:nonzero;fill:rgb(100%,100%,100%);fill-opacity:1;" d="M 12.738281 7.898438 C 12.773438 7.875 12.792969 7.839844 12.792969 7.800781 C 12.792969 7.78125 12.785156 7.761719 12.777344 7.746094 C 12.742188 7.691406 12.675781 7.675781 12.621094 7.703125 C 12.621094 7.703125 11.355469 8.4375 9.738281 9.371094 L 9.738281 9.792969 C 11.355469 8.769531 12.738281 7.898438 12.738281 7.898438 "/>
<path style=" stroke:none;fill-rule:nonzero;fill:rgb(100%,100%,100%);fill-opacity:1;" d="M 12.507812 7.457031 C 12.542969 7.4375 12.558594 7.402344 12.558594 7.363281 C 12.558594 7.34375 12.554688 7.324219 12.542969 7.304688 C 12.511719 7.253906 12.445312 7.234375 12.390625 7.265625 C 12.390625 7.265625 11.230469 7.9375 9.738281 8.796875 L 9.738281 9.238281 C 11.296875 8.238281 12.507812 7.457031 12.507812 7.457031 "/>
<path style=" stroke:none;fill-rule:nonzero;fill:rgb(100%,100%,100%);fill-opacity:1;" d="M 15.453125 13.648438 C 15.8125 13.429688 16.171875 13.207031 16.527344 12.988281 L 16.527344 12.066406 C 16.445312 12.113281 16.367188 12.160156 16.289062 12.203125 C 16.367188 12.15625 16.445312 12.109375 16.527344 12.0625 L 16.527344 10.753906 C 15.726562 11.214844 14.902344 11.691406 14.078125 12.167969 C 14.902344 11.664062 15.726562 11.15625 16.527344 10.667969 L 16.527344 9.824219 C 15.652344 10.328125 14.734375 10.859375 13.816406 11.390625 C 14.730469 10.828125 15.648438 10.269531 16.527344 9.730469 L 16.527344 9.253906 C 15.574219 9.804688 14.578125 10.378906 13.582031 10.953125 C 14.582031 10.339844 15.585938 9.726562 16.527344 9.152344 L 16.527344 8.714844 C 15.445312 9.339844 14.277344 10.015625 13.105469 10.691406 C 14.277344 9.976562 15.445312 9.261719 16.527344 8.601562 L 16.527344 8.167969 C 15.519531 8.75 14.4375 9.375 13.355469 10 C 14.441406 9.339844 15.53125 8.679688 16.527344 8.074219 L 16.527344 7.6875 C 15.265625 8.414062 13.828125 9.246094 12.386719 10.078125 C 13.832031 9.195312 15.277344 8.3125 16.527344 7.554688 L 16.527344 6.835938 C 14.554688 7.972656 12.03125 9.433594 9.738281 10.753906 L 9.738281 11.351562 C 10.496094 10.914062 11.289062 10.457031 12.078125 10 C 11.289062 10.480469 10.496094 10.964844 9.738281 11.425781 L 9.738281 11.867188 C 10.441406 11.460938 11.171875 11.039062 11.898438 10.621094 C 11.171875 11.0625 10.441406 11.507812 9.738281 11.933594 L 9.738281 12.347656 C 10.976562 11.636719 12.335938 10.851562 13.691406 10.066406 C 12.328125 10.902344 10.960938 11.734375 9.738281 12.484375 L 9.738281 12.894531 C 11.019531 12.15625 12.472656 11.316406 13.917969 10.480469 C 12.460938 11.375 11.003906 12.265625 9.738281 13.039062 L 9.738281 13.433594 C 11.304688 12.527344 13.203125 11.433594 15.089844 10.34375 C 13.199219 11.503906 11.296875 12.667969 9.738281 13.621094 L 9.738281 14.003906 C 9.894531 13.914062 10.042969 13.828125 10.179688 13.75 C 10.039062 13.832031 9.890625 13.921875 9.738281 14.015625 L 9.738281 14.355469 C 11.414062 13.386719 13.496094 12.1875 15.554688 10.996094 C 13.476562 12.269531 11.382812 13.554688 9.738281 14.5625 L 9.738281 14.933594 C 10.835938 14.300781 12.113281 13.5625 13.351562 12.847656 C 12.113281 13.597656 10.824219 14.375 9.738281 15.03125 L 9.738281 15.363281 C 10.550781 14.894531 11.453125 14.375 12.269531 13.902344 C 11.457031 14.390625 10.546875 14.9375 9.738281 15.425781 L 9.738281 15.746094 C 11.265625 14.863281 13.410156 13.625 15.554688 12.386719 C 13.371094 13.71875 11.1875 15.050781 9.738281 15.933594 L 9.738281 16.25 C 10.757812 15.660156 12.109375 14.878906 13.324219 14.175781 C 12.105469 14.914062 10.769531 15.71875 9.738281 16.34375 L 9.738281 16.652344 C 11.316406 15.742188 13.804688 14.304688 16.273438 12.878906 C 13.75 14.433594 11.207031 15.996094 9.738281 16.902344 L 9.738281 17.210938 C 10.878906 16.554688 12.6875 15.507812 14.398438 14.519531 C 12.667969 15.570312 10.8125 16.695312 9.738281 17.347656 L 9.738281 17.636719 C 11.042969 16.882812 13.757812 15.316406 16.527344 13.71875 L 16.527344 13.03125 C 16.171875 13.234375 15.8125 13.441406 15.453125 13.648438 "/>
<path style=" stroke:none;fill-rule:nonzero;fill:rgb(100%,100%,100%);fill-opacity:1;" d="M 11.222656 5.414062 C 11.257812 5.394531 11.277344 5.359375 11.277344 5.320312 C 11.277344 5.300781 11.269531 5.28125 11.261719 5.261719 C 11.226562 5.210938 11.160156 5.191406 11.105469 5.222656 C 11.105469 5.222656 10.421875 5.617188 9.738281 6.011719 L 9.738281 6.355469 C 10.609375 5.804688 11.222656 5.414062 11.222656 5.414062 "/>
<path style=" stroke:none;fill-rule:nonzero;fill:rgb(100%,100%,100%);fill-opacity:1;" d="M 10.46875 4.949219 C 10.503906 4.929688 10.523438 4.890625 10.523438 4.855469 C 10.523438 4.835938 10.515625 4.8125 10.503906 4.796875 C 10.472656 4.742188 10.40625 4.726562 10.351562 4.757812 C 10.351562 4.757812 10.121094 4.890625 9.738281 5.109375 L 9.738281 5.425781 C 10.191406 5.128906 10.46875 4.949219 10.46875 4.949219 "/>
<path style=" stroke:none;fill-rule:nonzero;fill:rgb(100%,100%,100%);fill-opacity:1;" d="M 12.617188 6.867188 C 12.648438 6.84375 12.667969 6.808594 12.667969 6.769531 C 12.667969 6.75 12.664062 6.730469 12.652344 6.710938 C 12.621094 6.660156 12.550781 6.640625 12.5 6.671875 C 12.5 6.671875 11.292969 7.367188 9.738281 8.265625 L 9.738281 8.691406 C 11.347656 7.671875 12.617188 6.867188 12.617188 6.867188 "/>
<path style=" stroke:none;fill-rule:nonzero;fill:rgb(100%,100%,100%);fill-opacity:1;" d="M 11.921875 6.054688 C 11.957031 6.03125 11.972656 5.996094 11.972656 5.957031 C 11.972656 5.9375 11.96875 5.917969 11.957031 5.898438 C 11.925781 5.847656 11.859375 5.828125 11.804688 5.859375 C 11.804688 5.859375 10.945312 6.355469 9.738281 7.054688 L 9.738281 7.402344 C 10.582031 6.882812 11.921875 6.054688 11.921875 6.054688 "/>
<path style=" stroke:none;fill-rule:nonzero;fill:rgb(100%,100%,100%);fill-opacity:1;" d="M 11.957031 6.683594 C 11.992188 6.660156 12.007812 6.625 12.007812 6.585938 C 12.007812 6.566406 12.003906 6.546875 11.992188 6.527344 C 11.960938 6.476562 11.890625 6.457031 11.839844 6.488281 C 11.839844 6.488281 11 6.972656 10.773438 7.105469 C 10.996094 6.96875 11.824219 6.460938 11.824219 6.460938 C 11.859375 6.441406 11.875 6.402344 11.875 6.367188 C 11.875 6.347656 11.871094 6.328125 11.859375 6.308594 C 11.828125 6.253906 11.761719 6.238281 11.707031 6.269531 C 11.707031 6.269531 10.457031 6.988281 9.738281 7.40625 L 9.738281 8.113281 C 11.011719 7.292969 11.957031 6.683594 11.957031 6.683594 "/>
<path style=" stroke:none;fill-rule:nonzero;fill:rgb(100%,100%,100%);fill-opacity:1;" d="M 11.023438 6 C 11.054688 5.980469 11.074219 5.941406 11.074219 5.90625 C 11.074219 5.886719 11.070312 5.867188 11.058594 5.847656 C 11.027344 5.792969 10.957031 5.777344 10.90625 5.808594 C 10.90625 5.808594 10.429688 6.082031 9.738281 6.480469 L 9.738281 6.832031 C 10.511719 6.332031 11.023438 6 11.023438 6 "/>
<path style=" stroke:none;fill-rule:nonzero;fill:rgb(100%,100%,100%);fill-opacity:1;" d="M 9.738281 17.894531 L 9.738281 18.15625 C 9.746094 18.15625 9.753906 18.152344 9.761719 18.148438 C 9.761719 18.148438 12.101562 16.796875 13.6875 15.878906 C 12.152344 16.804688 9.863281 18.1875 9.863281 18.1875 C 9.828125 18.210938 9.808594 18.246094 9.808594 18.285156 C 9.808594 18.304688 9.8125 18.324219 9.824219 18.34375 C 9.855469 18.394531 9.925781 18.414062 9.980469 18.382812 C 9.980469 18.382812 13.207031 16.519531 16.527344 14.601562 L 16.527344 13.730469 C 13.375 15.664062 10.308594 17.546875 9.738281 17.894531 "/>
<path style=" stroke:none;fill-rule:nonzero;fill:rgb(100%,100%,100%);fill-opacity:1;" d="M 13.058594 19.484375 C 13.027344 19.507812 13.007812 19.542969 13.007812 19.582031 C 13.007812 19.601562 13.011719 19.621094 13.023438 19.640625 C 13.054688 19.691406 13.125 19.710938 13.175781 19.679688 C 13.175781 19.679688 14.683594 18.808594 16.527344 17.746094 L 16.527344 17.296875 C 14.617188 18.503906 13.058594 19.484375 13.058594 19.484375 "/>
<path style=" stroke:none;fill-rule:nonzero;fill:rgb(100%,100%,100%);fill-opacity:1;" d="M 9.945312 18.65625 C 9.914062 18.679688 9.894531 18.714844 9.894531 18.753906 C 9.894531 18.773438 9.898438 18.792969 9.910156 18.8125 C 9.941406 18.863281 10.007812 18.882812 10.0625 18.851562 C 10.0625 18.851562 12.402344 17.5 14.046875 16.550781 C 12.476562 17.5 10.199219 18.878906 10.199219 18.878906 C 10.164062 18.898438 10.144531 18.9375 10.144531 18.972656 C 10.144531 18.992188 10.148438 19.015625 10.160156 19.03125 C 10.191406 19.085938 10.261719 19.101562 10.3125 19.070312 C 10.3125 19.070312 13.0625 17.488281 15.480469 16.089844 C 13.351562 17.382812 10.824219 18.921875 10.824219 18.921875 C 10.789062 18.941406 10.769531 18.980469 10.769531 19.015625 C 10.769531 19.035156 10.773438 19.054688 10.785156 19.074219 C 10.816406 19.128906 10.886719 19.144531 10.9375 19.113281 C 10.9375 19.113281 13.320312 17.738281 15.226562 16.640625 C 13.402344 17.75 11.089844 19.15625 11.089844 19.15625 C 11.054688 19.179688 11.035156 19.214844 11.035156 19.253906 C 11.035156 19.273438 11.039062 19.292969 11.050781 19.3125 C 11.082031 19.363281 11.152344 19.382812 11.203125 19.351562 C 11.203125 19.351562 13.726562 17.894531 16.527344 16.277344 L 16.527344 14.613281 C 13.1875 16.664062 9.945312 18.65625 9.945312 18.65625 "/>
<path style=" stroke:none;fill-rule:nonzero;fill:rgb(100%,100%,100%);fill-opacity:1;" d="M 12.007812 19.140625 C 11.972656 19.160156 11.953125 19.195312 11.953125 19.234375 C 11.953125 19.253906 11.960938 19.273438 11.972656 19.292969 C 12.003906 19.347656 12.070312 19.363281 12.125 19.332031 C 12.125 19.332031 14.324219 18.0625 16.238281 16.957031 C 14.371094 18.105469 12.21875 19.429688 12.21875 19.429688 C 12.183594 19.453125 12.164062 19.488281 12.164062 19.527344 C 12.164062 19.546875 12.167969 19.566406 12.179688 19.585938 C 12.210938 19.636719 12.28125 19.65625 12.332031 19.625 C 12.332031 19.625 14.25 18.519531 16.527344 17.203125 L 16.527344 16.328125 C 14.128906 17.820312 12.007812 19.140625 12.007812 19.140625 "/>
<path style=" stroke:none;fill-rule:nonzero;fill:rgb(100%,100%,100%);fill-opacity:1;" d="M 16.5 18.46875 C 16.46875 18.488281 16.449219 18.523438 16.449219 18.5625 C 16.449219 18.582031 16.453125 18.601562 16.464844 18.621094 C 16.480469 18.644531 16.503906 18.660156 16.527344 18.667969 L 16.527344 18.449219 C 16.507812 18.460938 16.5 18.46875 16.5 18.46875 "/>
<path style=" stroke:none;fill-rule:nonzero;fill:rgb(100%,100%,100%);fill-opacity:1;" d="M 14.324219 19.234375 C 14.292969 19.257812 14.273438 19.292969 14.273438 19.332031 C 14.273438 19.351562 14.277344 19.371094 14.289062 19.390625 C 14.320312 19.441406 14.390625 19.460938 14.441406 19.429688 C 14.441406 19.429688 15.332031 18.914062 16.527344 18.226562 L 16.527344 17.839844 C 15.289062 18.625 14.324219 19.234375 14.324219 19.234375 "/>
<path style=" stroke:none;fill-rule:nonzero;fill:rgb(0%,13.72549%,58.431373%);fill-opacity:1;" d="M 9.644531 17.953125 C 9.609375 17.972656 9.589844 18.011719 9.589844 18.050781 C 9.589844 18.070312 9.59375 18.089844 9.605469 18.109375 C 9.632812 18.152344 9.6875 18.171875 9.738281 18.15625 L 9.738281 17.894531 C 9.675781 17.933594 9.644531 17.953125 9.644531 17.953125 "/>
<path style=" stroke:none;fill-rule:nonzero;fill:rgb(0%,13.72549%,58.431373%);fill-opacity:1;" d="M 6.070312 16.210938 C 6.035156 16.230469 6.015625 16.269531 6.015625 16.308594 C 6.015625 16.328125 6.023438 16.347656 6.03125 16.367188 C 6.0625 16.417969 6.132812 16.4375 6.1875 16.40625 C 6.1875 16.40625 7.648438 15.5625 9.738281 14.355469 L 9.738281 14.015625 C 8.179688 14.949219 6.070312 16.210938 6.070312 16.210938 "/>
<path style=" stroke:none;fill-rule:nonzero;fill:rgb(0%,13.72549%,58.431373%);fill-opacity:1;" d="M 5.285156 15.207031 C 5.25 15.226562 5.230469 15.265625 5.230469 15.300781 C 5.230469 15.324219 5.234375 15.34375 5.246094 15.359375 C 5.277344 15.414062 5.347656 15.429688 5.398438 15.402344 C 5.398438 15.402344 7.257812 14.328125 9.738281 12.894531 L 9.738281 12.484375 C 7.203125 14.035156 5.285156 15.207031 5.285156 15.207031 "/>
<path style=" stroke:none;fill-rule:nonzero;fill:rgb(0%,13.72549%,58.431373%);fill-opacity:1;" d="M 6.210938 15.78125 C 6.175781 15.800781 6.15625 15.839844 6.15625 15.875 C 6.15625 15.894531 6.164062 15.914062 6.171875 15.933594 C 6.207031 15.988281 6.273438 16.003906 6.328125 15.972656 C 6.328125 15.972656 8.3125 14.828125 9.738281 14.003906 L 9.738281 13.621094 C 7.667969 14.886719 6.210938 15.78125 6.210938 15.78125 "/>
<path style=" stroke:none;fill-rule:nonzero;fill:rgb(0%,13.72549%,58.431373%);fill-opacity:1;" d="M 5.910156 15.382812 C 5.878906 15.402344 5.859375 15.441406 5.859375 15.476562 C 5.859375 15.5 5.863281 15.519531 5.875 15.535156 C 5.90625 15.589844 5.972656 15.609375 6.027344 15.578125 C 6.027344 15.578125 7.566406 14.6875 9.738281 13.433594 L 9.738281 13.039062 C 7.53125 14.390625 5.910156 15.382812 5.910156 15.382812 "/>
<path style=" stroke:none;fill-rule:nonzero;fill:rgb(0%,13.72549%,58.431373%);fill-opacity:1;" d="M 9.230469 11.050781 C 9.398438 10.941406 9.570312 10.835938 9.738281 10.730469 L 9.738281 9.851562 C 9.378906 10.058594 9.011719 10.269531 8.644531 10.484375 C 9.011719 10.25 9.378906 10.019531 9.738281 9.792969 L 9.738281 9.371094 C 9.085938 9.746094 8.378906 10.15625 7.671875 10.5625 C 8.378906 10.109375 9.089844 9.652344 9.738281 9.238281 L 9.738281 8.796875 C 9.148438 9.136719 8.507812 9.507812 7.867188 9.878906 C 8.503906 9.472656 9.144531 9.066406 9.738281 8.691406 L 9.738281 8.265625 C 9.035156 8.671875 8.257812 9.121094 7.488281 9.566406 C 8.269531 9.0625 9.050781 8.558594 9.738281 8.113281 L 9.738281 7.40625 C 9.730469 7.410156 9.722656 7.414062 9.710938 7.417969 C 9.722656 7.414062 9.730469 7.410156 9.738281 7.402344 L 9.738281 7.054688 C 8.816406 7.585938 7.691406 8.234375 6.589844 8.871094 C 7.738281 8.128906 8.894531 7.378906 9.738281 6.832031 L 9.738281 6.480469 C 9.089844 6.855469 8.25 7.34375 7.429688 7.8125 C 8.246094 7.300781 9.066406 6.777344 9.738281 6.355469 L 9.738281 6.011719 C 9.480469 6.160156 9.222656 6.3125 9 6.4375 C 9.207031 6.308594 9.476562 6.144531 9.738281 5.980469 L 9.738281 5.671875 C 8.894531 6.160156 7.578125 6.921875 6.273438 7.675781 C 7.601562 6.8125 8.941406 5.941406 9.738281 5.425781 L 9.738281 5.109375 C 9.066406 5.5 7.929688 6.15625 6.804688 6.804688 C 8.199219 5.910156 9.671875 4.960938 9.671875 4.960938 C 9.707031 4.941406 9.726562 4.902344 9.726562 4.867188 C 9.726562 4.847656 9.71875 4.824219 9.707031 4.808594 C 9.675781 4.753906 9.609375 4.738281 9.554688 4.769531 C 9.554688 4.769531 8.253906 5.519531 7.066406 6.207031 C 8.042969 5.574219 9.1875 4.835938 9.1875 4.835938 C 9.21875 4.8125 9.238281 4.777344 9.238281 4.738281 C 9.238281 4.71875 9.230469 4.699219 9.222656 4.679688 C 9.1875 4.628906 9.121094 4.609375 9.066406 4.640625 C 9.066406 4.640625 7.59375 5.492188 6.121094 6.34375 C 7.289062 5.550781 8.464844 4.753906 8.464844 4.753906 C 8.496094 4.734375 8.515625 4.695312 8.515625 4.660156 C 8.515625 4.640625 8.507812 4.621094 8.496094 4.601562 C 8.464844 4.550781 8.398438 4.53125 8.34375 4.5625 C 8.34375 4.5625 6.839844 5.433594 5.4375 6.242188 C 6.464844 5.503906 7.503906 4.757812 7.503906 4.757812 C 7.535156 4.738281 7.550781 4.703125 7.550781 4.667969 C 7.550781 4.648438 7.542969 4.625 7.53125 4.605469 C 7.5 4.554688 7.433594 4.539062 7.378906 4.570312 C 7.378906 4.570312 6.519531 5.066406 5.6875 5.546875 C 6.175781 5.15625 6.675781 4.761719 6.675781 4.761719 C 6.703125 4.738281 6.714844 4.707031 6.714844 4.671875 C 6.714844 4.648438 6.710938 4.628906 6.695312 4.609375 C 6.664062 4.558594 6.597656 4.542969 6.546875 4.574219 L 5 5.46875 C 4.945312 5.5 4.925781 5.566406 4.957031 5.621094 C 4.988281 5.675781 5.058594 5.695312 5.113281 5.664062 C 5.113281 5.664062 5.289062 5.5625 5.351562 5.523438 C 4.863281 5.914062 4.367188 6.3125 4.367188 6.3125 C 4.339844 6.332031 4.324219 6.367188 4.324219 6.398438 C 4.324219 6.421875 4.332031 6.445312 4.34375 6.464844 C 4.378906 6.511719 4.441406 6.527344 4.496094 6.496094 C 4.496094 6.496094 5.054688 6.175781 5.507812 5.914062 C 4.476562 6.652344 3.441406 7.394531 3.441406 7.394531 C 3.410156 7.414062 3.394531 7.449219 3.394531 7.484375 C 3.394531 7.507812 3.402344 7.527344 3.414062 7.546875 C 3.445312 7.597656 3.511719 7.613281 3.5625 7.582031 C 3.5625 7.582031 4.667969 6.945312 5.746094 6.324219 C 4.578125 7.117188 3.402344 7.914062 3.402344 7.914062 C 3.371094 7.933594 3.355469 7.96875 3.355469 8.007812 C 3.355469 8.027344 3.359375 8.046875 3.371094 8.066406 C 3.402344 8.117188 3.472656 8.132812 3.523438 8.105469 C 3.523438 8.105469 4.539062 7.519531 5.3125 7.070312 C 4.335938 7.703125 3.195312 8.441406 3.195312 8.441406 C 3.160156 8.460938 3.144531 8.5 3.144531 8.535156 C 3.144531 8.554688 3.148438 8.578125 3.160156 8.59375 C 3.191406 8.648438 3.261719 8.664062 3.3125 8.632812 C 3.3125 8.632812 4.527344 7.933594 5.546875 7.34375 C 4.152344 8.242188 2.679688 9.1875 2.679688 9.1875 C 2.644531 9.207031 2.628906 9.246094 2.628906 9.28125 C 2.628906 9.300781 2.632812 9.324219 2.644531 9.339844 C 2.675781 9.394531 2.742188 9.410156 2.796875 9.378906 C 2.796875 9.378906 4.757812 8.25 6.714844 7.121094 C 4.625 8.476562 2.515625 9.84375 2.515625 9.84375 C 2.480469 9.867188 2.464844 9.902344 2.464844 9.941406 C 2.464844 9.960938 2.46875 9.980469 2.480469 10 C 2.511719 10.050781 2.578125 10.066406 2.632812 10.039062 C 2.632812 10.039062 3.910156 9.300781 4.683594 8.851562 C 4.058594 9.242188 2.914062 9.953125 2.914062 9.953125 C 2.878906 9.976562 2.859375 10.011719 2.859375 10.050781 C 2.859375 10.070312 2.863281 10.089844 2.875 10.109375 C 2.90625 10.160156 2.976562 10.179688 3.027344 10.148438 C 3.027344 10.148438 4.746094 9.15625 6.339844 8.234375 C 4.46875 9.417969 2.550781 10.632812 2.550781 10.632812 C 2.515625 10.652344 2.496094 10.691406 2.496094 10.726562 C 2.496094 10.75 2.5 10.769531 2.511719 10.785156 C 2.542969 10.839844 2.613281 10.855469 2.664062 10.828125 C 2.664062 10.828125 4.933594 9.515625 7.175781 8.222656 C 4.976562 9.648438 2.742188 11.09375 2.742188 11.09375 C 2.707031 11.113281 2.691406 11.152344 2.691406 11.1875 C 2.691406 11.207031 2.695312 11.230469 2.707031 11.246094 C 2.738281 11.300781 2.808594 11.316406 2.859375 11.285156 C 2.859375 11.285156 4.375 10.410156 5.398438 9.820312 C 4.554688 10.339844 3.191406 11.183594 3.191406 11.183594 C 3.15625 11.207031 3.136719 11.242188 3.136719 11.28125 C 3.136719 11.300781 3.140625 11.320312 3.152344 11.339844 C 3.183594 11.394531 3.253906 11.410156 3.304688 11.378906 C 3.304688 11.378906 3.980469 10.988281 4.125 10.90625 C 3.898438 11.046875 3.070312 11.550781 3.070312 11.550781 C 3.035156 11.574219 3.019531 11.609375 3.019531 11.648438 C 3.019531 11.667969 3.023438 11.6875 3.035156 11.707031 C 3.066406 11.757812 3.132812 11.777344 3.1875 11.746094 C 3.1875 11.746094 5.613281 10.34375 7.992188 8.96875 C 5.773438 10.402344 3.527344 11.851562 3.527344 11.851562 C 3.492188 11.875 3.476562 11.910156 3.476562 11.949219 C 3.476562 11.96875 3.480469 11.988281 3.492188 12.007812 C 3.523438 12.058594 3.589844 12.078125 3.644531 12.046875 C 3.644531 12.046875 5.769531 10.820312 7.882812 9.601562 C 5.507812 11.105469 3.132812 12.609375 3.132812 12.609375 C 3.097656 12.632812 3.082031 12.667969 3.082031 12.707031 C 3.082031 12.726562 3.085938 12.746094 3.097656 12.765625 C 3.128906 12.816406 3.195312 12.835938 3.25 12.804688 C 3.25 12.804688 5.820312 11.320312 8.339844 9.867188 C 5.941406 11.40625 3.503906 12.96875 3.503906 12.96875 C 3.472656 12.988281 3.453125 13.027344 3.453125 13.0625 C 3.453125 13.085938 3.457031 13.105469 3.46875 13.121094 C 3.5 13.175781 3.570312 13.191406 3.621094 13.160156 C 3.621094 13.160156 5.710938 11.957031 7.765625 10.769531 C 5.730469 12.054688 3.667969 13.355469 3.667969 13.355469 C 3.636719 13.378906 3.617188 13.414062 3.617188 13.453125 C 3.617188 13.472656 3.621094 13.492188 3.632812 13.507812 C 3.664062 13.5625 3.734375 13.578125 3.785156 13.550781 C 3.785156 13.550781 5.667969 12.464844 7.332031 11.503906 C 5.796875 12.457031 4.023438 13.5625 4.023438 13.5625 C 3.988281 13.582031 3.96875 13.621094 3.96875 13.660156 C 3.96875 13.679688 3.976562 13.699219 3.984375 13.71875 C 4.015625 13.769531 4.085938 13.789062 4.140625 13.757812 C 4.140625 13.757812 6.351562 12.480469 8.53125 11.21875 C 6.277344 12.636719 4.003906 14.066406 4.003906 14.066406 C 3.96875 14.089844 3.949219 14.125 3.949219 14.164062 C 3.949219 14.183594 3.953125 14.203125 3.964844 14.222656 C 3.996094 14.273438 4.066406 14.292969 4.117188 14.261719 C 4.117188 14.261719 6.578125 12.84375 8.011719 12.011719 C 6.863281 12.703125 4.65625 14.023438 4.65625 14.023438 C 4.621094 14.046875 4.601562 14.082031 4.601562 14.121094 C 4.601562 14.140625 4.605469 14.160156 4.617188 14.179688 C 4.648438 14.234375 4.714844 14.25 4.769531 14.21875 C 4.769531 14.21875 7.015625 12.921875 9.738281 11.351562 L 9.738281 10.753906 C 9.566406 10.855469 9.398438 10.953125 9.230469 11.050781 "/>
<path style=" stroke:none;fill-rule:nonzero;fill:rgb(0%,13.72549%,58.431373%);fill-opacity:1;" d="M 4.25 14.777344 C 4.214844 14.796875 4.195312 14.835938 4.195312 14.871094 C 4.195312 14.890625 4.199219 14.910156 4.210938 14.929688 C 4.242188 14.984375 4.3125 15 4.363281 14.96875 C 4.363281 14.96875 6.824219 13.550781 9.738281 11.867188 L 9.738281 11.425781 C 6.742188 13.253906 4.25 14.777344 4.25 14.777344 "/>
<path style=" stroke:none;fill-rule:nonzero;fill:rgb(0%,13.72549%,58.431373%);fill-opacity:1;" d="M 4.597656 15.058594 C 4.5625 15.078125 4.542969 15.117188 4.542969 15.152344 C 4.542969 15.171875 4.546875 15.191406 4.558594 15.210938 C 4.589844 15.265625 4.660156 15.28125 4.710938 15.25 C 4.710938 15.25 6.898438 13.988281 9.738281 12.347656 L 9.738281 11.933594 C 6.945312 13.628906 4.597656 15.058594 4.597656 15.058594 "/>
<path style=" stroke:none;fill-rule:nonzero;fill:rgb(0%,13.72549%,58.431373%);fill-opacity:1;" d="M 7.070312 16.640625 C 7.035156 16.664062 7.015625 16.699219 7.015625 16.738281 C 7.015625 16.757812 7.023438 16.777344 7.03125 16.796875 C 7.0625 16.851562 7.132812 16.867188 7.1875 16.835938 C 7.1875 16.835938 8.332031 16.175781 9.738281 15.363281 L 9.738281 15.03125 C 8.199219 15.960938 7.070312 16.640625 7.070312 16.640625 "/>
<path style=" stroke:none;fill-rule:nonzero;fill:rgb(0%,13.72549%,58.431373%);fill-opacity:1;" d="M 8.03125 16.972656 C 7.996094 16.992188 7.976562 17.03125 7.976562 17.070312 C 7.976562 17.089844 7.980469 17.109375 7.992188 17.125 C 8.023438 17.179688 8.09375 17.199219 8.148438 17.167969 C 8.148438 17.167969 8.800781 16.789062 9.738281 16.25 L 9.738281 15.933594 C 8.691406 16.570312 8.03125 16.972656 8.03125 16.972656 "/>
<path style=" stroke:none;fill-rule:nonzero;fill:rgb(0%,13.72549%,58.431373%);fill-opacity:1;" d="M 7.964844 17.414062 C 7.929688 17.4375 7.910156 17.472656 7.910156 17.511719 C 7.910156 17.53125 7.914062 17.550781 7.925781 17.570312 C 7.957031 17.625 8.023438 17.640625 8.078125 17.609375 C 8.078125 17.609375 8.71875 17.242188 9.738281 16.652344 L 9.738281 16.34375 C 8.699219 16.972656 7.964844 17.414062 7.964844 17.414062 "/>
<path style=" stroke:none;fill-rule:nonzero;fill:rgb(0%,13.72549%,58.431373%);fill-opacity:1;" d="M 8.464844 17.683594 C 8.429688 17.707031 8.410156 17.742188 8.410156 17.78125 C 8.410156 17.800781 8.417969 17.820312 8.425781 17.839844 C 8.457031 17.890625 8.527344 17.910156 8.582031 17.878906 C 8.582031 17.878906 9.03125 17.621094 9.738281 17.210938 L 9.738281 16.902344 C 8.945312 17.386719 8.464844 17.683594 8.464844 17.683594 "/>
<path style=" stroke:none;fill-rule:nonzero;fill:rgb(0%,13.72549%,58.431373%);fill-opacity:1;" d="M 6.574219 16.5 C 6.539062 16.523438 6.519531 16.558594 6.519531 16.597656 C 6.519531 16.617188 6.523438 16.636719 6.535156 16.65625 C 6.566406 16.707031 6.636719 16.726562 6.6875 16.695312 C 6.6875 16.695312 7.992188 15.941406 9.738281 14.933594 L 9.738281 14.5625 C 7.863281 15.710938 6.574219 16.5 6.574219 16.5 "/>
<path style=" stroke:none;fill-rule:nonzero;fill:rgb(0%,13.72549%,58.431373%);fill-opacity:1;" d="M 7.4375 16.8125 C 7.402344 16.832031 7.382812 16.871094 7.382812 16.910156 C 7.382812 16.929688 7.386719 16.949219 7.398438 16.964844 C 7.429688 17.019531 7.5 17.039062 7.554688 17.007812 C 7.554688 17.007812 8.414062 16.507812 9.738281 15.746094 L 9.738281 15.425781 C 8.464844 16.195312 7.4375 16.8125 7.4375 16.8125 "/>
<path style=" stroke:none;fill-rule:nonzero;fill:rgb(0%,13.72549%,58.431373%);fill-opacity:1;" d="M 8.824219 17.902344 C 8.789062 17.925781 8.769531 17.960938 8.769531 18 C 8.769531 18.019531 8.773438 18.039062 8.785156 18.058594 C 8.816406 18.109375 8.882812 18.128906 8.9375 18.097656 C 8.9375 18.097656 9.230469 17.929688 9.738281 17.636719 L 9.738281 17.347656 C 9.171875 17.691406 8.824219 17.902344 8.824219 17.902344 "/>
</g>
</svg>
