<?xml version="1.0" standalone="yes"?>
<svg xmlns="http://www.w3.org/2000/svg" xmlns:xlink="http://www.w3.org/1999/xlink" xmlns:svg="http://www.w3.org/2000/svg" xmlns:dc="http://purl.org/dc/elements/1.1/" xmlns:cc="http://web.resource.org/cc/" xmlns:rdf="http://www.w3.org/1999/02/22-rdf-syntax-ns#" width="434" height="260">
<path style="fill:#010101; stroke:none;" d="M0 0L0 36L2 50L2 51L0 62C7.46133 58.5205 13.2317 50.7683 19 45C31.9867 32.0133 54.2379 16.6448 62 0L51 2L50 2C46.0636 -2.50473 25.7604 -1.25217 21 2L0 0z"/>
<path style="fill:#282828; stroke:none;" d="M20 2L23 1L20 2z"/>
<path style="fill:#393838; stroke:none;" d="M50 2L53 1L50 2z"/>
<path style="fill:#7c797a; stroke:none;" d="M0 66L1 66L33 33L66 1C60.2486 -0.914551 52.7006 10.2995 49 14L13 50C8.4728 54.5272 1.10203 59.4217 0 66z"/>
<path style="fill:#010101; stroke:none;" d="M0 77L39 39L77 0C62.6131 0 56.7713 8.22867 47 18L14 51C5.27763 59.7224 0 64.3972 0 77z"/>
<path style="fill:#636264; stroke:none;" d="M0 80L1 80C22.2665 49.8098 57.7335 30.1902 79 0C70.8146 3.81708 64.3331 12.6669 58 19L19 58C12.7878 64.2122 2.43003 71.3425 0 80z"/>
<path style="fill:#010101; stroke:none;" d="M0 91L1 91L11 83C9.41904 87.1665 8.47095 89.0948 11 93L12 93L26 82C23.8753 86.4009 22.1564 88.6037 25 93L26 93L40 83C31.1404 97.3524 50.0634 88.435 54 80L55 80C54.0865 82.7163 51.0916 86.095 51.1914 88.9367C51.4433 96.1128 64.5135 86.428 67 85C59.12 97.1928 78.2923 86.4831 82 85C74.3022 96.9043 92.3999 86.44 96 85C93.789 88.3952 93.789 89.6048 96 93L97 93L110 83C108.419 87.1665 107.471 89.0948 110 93L111 93L125 80L126 80C124.045 85.0932 120.671 87.8522 124 93L125 93L139 80L140 80C139.082 82.7286 135.415 86.9574 136.342 89.8364C138.85 97.6316 151.664 82.8574 153 80L154 80C153.086 82.7163 150.092 86.0949 150.191 88.9367C150.461 96.6163 163.954 85.7796 166 84C158.939 97.6303 175.458 87.9764 180 84L181 85C173.391 96.7673 191.451 86.5762 195 83L196 84C193.123 87.5306 192.485 89.1026 195 93L196 93L209 83L210 84L206 88L206 89C212.39 93.1371 218.282 87.5684 223 83L220 88L220 89C227.214 93.6708 233.993 85.9897 239 81L234 88L234 89L238 93L239 93L253 82L248 88L248 89L252 93L253 93L267 82C259.988 98.2926 274.503 88.426 281 82C274.425 97.2773 288.111 89.432 295 83C286.177 97.2938 303.688 87.9599 309 83C307.419 87.1665 306.471 89.0947 309 93L310 93L323 83C321.419 87.1665 320.471 89.0947 323 93L324 93L337 83C335.419 87.1665 334.471 89.0947 337 93L338 93L352 80L353 80C351.045 85.0932 347.671 87.8522 351 93L352 93L366 82C358.904 98.4898 375.81 88.9789 380 80L381 80C380.086 82.7163 377.092 86.0949 377.191 88.9367C377.473 96.9482 392.019 84.8494 394 83C385.135 97.3614 402.824 88.2336 408 83C406.419 87.1665 405.471 89.0947 408 93L409 93L422 83C420.419 87.1665 419.471 89.0947 422 93L423 93L433.142 83.9954L433.165 57.8843L434 0C425.755 0 413.748 -2.21762 406 0.742279C397.005 4.17844 388.709 16.2912 382 23C363.195 41.8051 344.725 65.6966 323 81L377 27L402 0C386.75 0 379.221 11.7789 369 22C349.878 41.1223 331.091 65.4388 309 81L361 29L389 0C373.082 0 365.691 11.3094 355 22C335.878 41.1223 317.091 65.4388 295 81L347 29L375 0C367.339 0 356.219 -2.05823 349 0.603394C339.791 3.99872 330.859 17.1415 324 24L267 81C281.788 60.0071 304.83 42.1704 323 24C330.174 16.8258 340.682 9.25993 345 0L299 0C292.687 0 283.964 -1.53607 278 0.742279C268.667 4.30765 259.968 17.0324 253 24L196 81C210.788 60.0071 233.83 42.1704 252 24C259.174 16.8258 269.682 9.25995 274 0C259.092 0 252.009 10.9909 242 21L183 80C197.788 59.0071 220.83 41.1704 239 23C245.895 16.1055 255.848 8.90298 260 0C245.092 0 238.009 10.9909 228 21C208.878 40.1223 190.091 64.4388 168 80L221 27L246 0L199 0C192.922 0 183.545 -1.74454 178 1.02777C169.387 5.33424 161.77 16.2298 155 23C136.195 41.8051 117.725 65.6966 96 81L148 29L176 0C160.082 0 152.691 11.3094 142 22L83 81C104.534 50.43 140.466 30.57 162 0C146.013 0 138.777 11.2226 128 22C108.878 41.1223 90.091 65.4388 68 81L122 27L147 0L101 0C94.7379 0 85.9243 -1.5809 80 0.603394C73.8289 2.87866 68.5471 10.4529 64 15L31 48C18.4824 60.5176 0 72.2098 0 91z"/>
<path style="fill:#393838; stroke:none;" d="M147 0C125.466 30.57 89.534 50.43 68 81C78.3254 76.1849 86.9896 64.0104 95 56C112.853 38.1468 135.47 20.6269 150 0L147 0M83 81C113.95 59.1985 134.05 22.8015 165 1C158.179 -0.368195 148.486 13.5136 144 18L103 59C96.3858 65.6142 86.9848 72.4552 83 81M96 81C106.325 76.1849 114.99 64.0104 123 56C140.853 38.1468 163.47 20.6268 178 0C167.675 4.81502 159.01 16.9896 151 25C133.147 42.8532 110.53 60.3731 96 81z"/>
<path style="fill:#282828; stroke:none;" d="M246 0C224.734 30.1902 189.266 49.8098 168 80C178.325 75.1849 186.99 63.0104 195 55C212.536 37.4641 234.728 20.2608 249 0L246 0M260 0C245.212 20.9929 222.17 38.8296 204 57C197.105 63.8945 187.152 71.097 183 80L224 40L263 0L260 0z"/>
<path style="fill:#615c5c; stroke:none;" d="M196 81C226.95 59.1985 247.05 22.8015 278 1C271.702 -1.09665 261.174 13.8263 257 18L216 59C209.386 65.6142 199.985 72.4551 196 81M345 0C330.212 20.9929 307.17 38.8296 289 57C281.826 64.1742 271.318 71.74 267 81L308 41L348 0L345 0M295 81C304.26 76.6817 311.826 66.1743 319 59C337.805 40.1949 356.275 16.3034 378 1C371.009 -0.402222 360.622 14.3784 356 19C336.243 38.7569 311.077 58.177 295 81M309 81C319.325 76.1849 327.99 64.0104 336 56C353.853 38.1468 376.47 20.6269 391 0C380.675 4.81502 372.01 16.9896 364 25C346.147 42.8532 323.53 60.3731 309 81M323 81C332.26 76.6817 339.826 66.1743 347 59C365.805 40.1949 384.275 16.3034 406 1C399.58 -1.13718 388.289 14.7108 384 19C364.243 38.7569 339.077 58.177 323 81z"/>
<path style="fill:#636264; stroke:none;" d="M19 2L20 3L19 2z"/>
<path style="fill:#7c797a; stroke:none;" d="M49 2L48 4L49 2z"/>
<path style="fill:#636264; stroke:none;" d="M17 4L12 10L17 4z"/>
<path style="fill:#868683; stroke:none;" d="M47 4L48 5L47 4z"/>
<path style="fill:#7c797a; stroke:none;" d="M46 5L47 6L46 5M45 6L46 7L45 6z"/>
<path style="fill:#868683; stroke:none;" d="M44 7L45 8L44 7z"/>
<path style="fill:#7c797a; stroke:none;" d="M43 8L44 9L43 8M42 9L43 10L42 9M41 10L42 11L41 10M40 11L41 12L40 11z"/>
<path style="fill:#636264; stroke:none;" d="M9 12L3 19L9 12z"/>
<path style="fill:#868683; stroke:none;" d="M39 12L40 13L39 12z"/>
<path style="fill:#7c797a; stroke:none;" d="M38 13L39 14L38 13z"/>
<path style="fill:#393838; stroke:none;" d="M432 13L432 16L434 16L434 13L432 13z"/>
<path style="fill:#7c797a; stroke:none;" d="M37 14L38 15L37 14z"/>
<path style="fill:#868683; stroke:none;" d="M36 15L37 16L36 15z"/>
<path style="fill:#7c797a; stroke:none;" d="M35 16L36 17L35 16M34 17L35 18L34 17M33 18L34 19L33 18M32 19L33 20L32 19z"/>
<path style="fill:#868683; stroke:none;" d="M31 20L32 21L31 20z"/>
<path style="fill:#7c797a; stroke:none;" d="M30 21L31 22L30 21M29 22L30 23L29 22z"/>
<path style="fill:#868683; stroke:none;" d="M28 23L29 24L28 23z"/>
<path style="fill:#7c797a; stroke:none;" d="M27 24L28 25L27 24M26 25L27 26L26 25M25 26L26 27L25 26M24 27L25 28L24 27z"/>
<path style="fill:#393838; stroke:none;" d="M432 27L432 30L434 30L434 27L432 27z"/>
<path style="fill:#868683; stroke:none;" d="M23 28L24 29L23 28z"/>
<path style="fill:#7c797a; stroke:none;" d="M22 29L23 30L22 29M21 30L22 31L21 30z"/>
<path style="fill:#868683; stroke:none;" d="M20 31L21 32L20 31z"/>
<path style="fill:#7c797a; stroke:none;" d="M19 32L20 33L19 32M18 33L19 34L18 33M17 34L18 35L17 34M16 35L17 36L16 35z"/>
<path style="fill:#868683; stroke:none;" d="M15 36L16 37L15 36z"/>
<path style="fill:#7c797a; stroke:none;" d="M14 37L15 38L14 37M13 38L14 39L13 38z"/>
<path style="fill:#868683; stroke:none;" d="M12 39L13 40L12 39z"/>
<path style="fill:#7c797a; stroke:none;" d="M11 40L12 41L11 40M10 41L11 42L10 41M9 42L10 43L9 42z"/>
<path style="fill:#393838; stroke:none;" d="M432 42L432 45L434 45L434 42L432 42z"/>
<path style="fill:#7c797a; stroke:none;" d="M8 43L9 44L8 43z"/>
<path style="fill:#868683; stroke:none;" d="M7 44L8 45L7 44z"/>
<path style="fill:#7c797a; stroke:none;" d="M6 45L7 46L6 45M5 46L6 47L5 46z"/>
<path style="fill:#868683; stroke:none;" d="M4 47L5 48L4 47z"/>
<path style="fill:#7c797a; stroke:none;" d="M3 48L4 49L3 48M2 49L3 50L2 49z"/>
<path style="fill:#393838; stroke:none;" d="M0 50L0 53L1 53L2 50L0 50z"/>
<path style="fill:#615c5c; stroke:none;" d="M424 50L394 81L417 60L424 50z"/>
<path style="fill:#393838; stroke:none;" d="M432 56L432 59L434 59L434 56L432 56z"/>
<path style="fill:#615c5c; stroke:none;" d="M424 64L408 81C413.229 78.5616 424.13 70.1638 424 64z"/>
<path style="fill:#393838; stroke:none;" d="M432 70L432 73L434 73L434 70L432 70z"/>
<path style="fill:#545454; stroke:none;" d="M424 78L422 81L424 78z"/>
<path style="fill:#636264; stroke:none;" d="M54 80L48 90C51.3865 87.5554 55.1756 84.4953 54 80M125 80L119 90C122.304 87.5594 126.011 84.3982 125 80z"/>
<path style="fill:#393838; stroke:none;" d="M139 80L134 90C136.86 87.2691 140.081 84.1326 139 80z"/>
<path style="fill:#282828; stroke:none;" d="M153 80L152 83L153 80z"/>
<path style="fill:#393838; stroke:none;" d="M352 80L351 84L352 84L352 80M380 80L379 85L380 85L380 80z"/>
<path style="fill:#636264; stroke:none;" d="M238 81L232 89C235.416 87.3679 238.543 85.0712 238 81z"/>
<path style="fill:#393838; stroke:none;" d="M25 82L20 89C23.1042 87.4702 25.4916 85.6638 25 82z"/>
<path style="fill:#615c5c; stroke:none;" d="M247 87L253 82L247 87M266 82L261 89C264.141 87.4878 266.751 85.7177 266 82z"/>
<path style="fill:#636264; stroke:none;" d="M280 82L275 89C278.141 87.4878 280.751 85.7177 280 82z"/>
<path style="fill:#615c5c; stroke:none;" d="M365 82L360 89C363.141 87.4878 365.751 85.7177 365 82z"/>
<path style="fill:#636264; stroke:none;" d="M10 83L6 88C8.88526 87.1324 10.6725 86.1789 10 83z"/>
<path style="fill:#545454; stroke:none;" d="M34 88L40 83L34 88z"/>
<path style="fill:#393838; stroke:none;" d="M109 83L107 86L108 87L109 83z"/>
<path style="fill:#545454; stroke:none;" d="M147 89L153 83L147 89z"/>
<path style="fill:#636264; stroke:none;" d="M194 83L191 87L192 88L196 84L194 83M208 83L204 88L210 84L208 83M222 83L218 89C220.819 87.5846 222.675 86.2878 222 83z"/>
<path style="fill:#393838; stroke:none;" d="M294 83L293 86L294 83z"/>
<path style="fill:#545454; stroke:none;" d="M308 83L305 87L306 88L308 83z"/>
<path style="fill:#636264; stroke:none;" d="M322 83L313 89L313 90C317.09 89.3644 323.097 88.2583 322 83z"/>
<path style="fill:#545454; stroke:none;" d="M336 83L333 87L336 83z"/>
<path style="fill:#636264; stroke:none;" d="M350 83L346 89C348.819 87.5846 350.675 86.2878 350 83M378 83L374 89C376.819 87.5846 378.675 86.2878 378 83z"/>
<path style="fill:#393838; stroke:none;" d="M393 83L390 87L393 83z"/>
<path style="fill:#636264; stroke:none;" d="M407 83L403 88L404 89L407 83z"/>
<path style="fill:#545454; stroke:none;" d="M421 83L418 87L421 83z"/>
<path style="fill:#393838; stroke:none;" d="M165 84L162 88L165 84z"/>
<path style="fill:#282828; stroke:none;" d="M179 84L177 87L181 85L179 84z"/>
<path style="fill:#868683; stroke:none;" d="M433 84L431 88C433.649 87.4324 434.355 86.4122 433 84z"/>
<path style="fill:#636264; stroke:none;" d="M58 89L58 90L67 85L58 89z"/>
<path style="fill:#615c5c; stroke:none;" d="M72 89L72 90L82 85L72 89M86 89L86 90L96 85L86 89z"/>
<path style="fill:#636264; stroke:none;" d="M292 85L284 90L284 91C287.27 89.9241 292.094 89.007 292 85z"/>
<path style="fill:#897a7f; stroke:none;" d="M105 89L108 86L105 89z"/>
<path style="fill:#636264; stroke:none;" d="M170 90L170 91L179 88L170 90z"/>
<path style="fill:#b57b7b; stroke:none;" d="M191.333 87.6667L191.667 88.3333L191.333 87.6667z"/>
<path style="fill:#897a7f; stroke:none;" d="M245 87L245 88L249 88L245 87z"/>
<path style="fill:#b57b7b; stroke:none;" d="M304 87L304 89L306 89L306 87L304 87z"/>
<path style="fill:#f99394; stroke:none;" d="M330 92L335 87L330 92z"/>
<path style="fill:#636264; stroke:none;" d="M384 89L384 90L391 88L384 89z"/>
<path style="fill:#af8186; stroke:none;" d="M417 89L420 87L417 89z"/>
<path style="fill:#f88e8d; stroke:none;" d="M2 94L8 88L2 94z"/>
<path style="fill:#fffefb; stroke:none;" d="M19 88C11.6505 93.9851 0.120034 99.8431 0 110L21 89L19 88M33 88C23.2247 95.9606 0.436862 110.649 0 124C12.2169 115.394 26.3942 101.217 35 89L33 88z"/>
<path style="fill:#b57b7b; stroke:none;" d="M34.6667 88.3333L35.3333 88.6667L34.6667 88.3333z"/>
<path style="fill:#fffefb; stroke:none;" d="M47 88C34.7493 97.7236 24.053 108.947 13 120C8.0722 124.928 1.11288 129.788 0 137C13.821 130.555 26.2622 112.788 36.9992 102C40.2238 98.76 48.0825 92.9714 47 88z"/>
<path style="fill:#545454; stroke:none;" d="M103.667 88.3333L104.333 88.6667L103.667 88.3333z"/>
<path style="fill:#fffefb; stroke:none;" d="M118 88C86.59 113.579 61.4183 146.106 31.0147 172.79C21.4265 181.205 0.161934 195.326 0 209L35.0748 175.04L91.0895 119.715L112.675 98L118 88M132 88C109.415 106.393 89.5734 128.427 69 149C55.8996 162.1 40.7381 174.149 28.7369 188.039C19.8123 198.368 0.0512337 209.504 0 224L18.4784 206.769L51.054 173L134 89L132 88z"/>
<path style="fill:#636264; stroke:none;" d="M145 88L143 89L143 90L145 88z"/>
<path style="fill:#fffefb; stroke:none;" d="M146 88C106.309 119.504 72.7851 160.22 36.0039 194.91C25.2854 205.02 0.0548124 222.492 0 238L22.3295 217.036L63.1289 175L148 89L146 88z"/>
<path style="fill:#84535a; stroke:none;" d="M157 89L157 90L163 90L157 89z"/>
<path style="fill:#7c797a; stroke:none;" d="M186 91L189 88L186 91z"/>
<path style="fill:#fbada8; stroke:none;" d="M186 95L187 95L191 88L186 95M200 94L206 88L200 94z"/>
<path style="fill:#fffefb; stroke:none;" d="M217 88C175.254 121.996 138.017 163.983 100 202L62 240C55.7704 246.23 47.5032 252.416 43 260C51.8682 259.969 55.4424 254.073 61.4244 248.13C70.6697 238.945 79.7123 229.511 89.0502 220.425C117.489 192.752 144.928 164.072 173 136C187.997 121.003 206.791 106.332 219 89L217 88M231 88L146 170.946L84.885 230.885L57 260C74.2144 259.939 89.9666 233.46 102.004 222.715C128.969 198.643 152.435 170.565 178 145C195.853 127.147 218.47 109.627 233 89L231 88M70 260C87.128 259.998 104.714 234.04 116.285 222.075C145.923 191.426 175.82 161.18 206 131C218.435 118.565 239.564 103.945 247 88C228.073 95.2805 211.139 119.861 197 134C165.334 165.666 131.924 195.213 101.741 227.986C92.3241 238.211 76.1867 247.454 70 260z"/>
<path style="fill:#636264; stroke:none;" d="M256 89L256 90L260 89L256 89z"/>
<path style="fill:#fffefb; stroke:none;" d="M260 88C239.78 101.743 223.26 121.74 206 139C181.735 163.265 156.559 186.108 132.333 210.333L100.333 242.333C95.0097 247.657 87.8788 252.919 85 260C102.759 259.998 119.215 233.349 131.759 221.652C158.313 196.892 182.33 169.67 208 144C225.727 126.273 247.056 109.13 262 89L260 88M274 88L182 177.946L129 230L100 260C109.253 259.967 112.845 254.451 119.001 248.333C128.362 239.029 137.677 229.677 147 220.333C174.241 193.032 200.726 165.274 228 138C243.796 122.204 262.682 106.94 276 89L274 88z"/>
<path style="fill:#636264; stroke:none;" d="M299 89L299 90L304 89L299 89z"/>
<path style="fill:#f88e8d; stroke:none;" d="M318 88L314 94L318 88z"/>
<path style="fill:#fffefb; stroke:none;" d="M345 88C303.257 121.994 266.02 163.98 228 202L190 240C183.77 246.23 175.503 252.416 171 260C179.868 259.969 183.442 254.073 189.424 248.13C198.67 238.945 207.712 229.511 217.05 220.425C244.819 193.405 271.587 165.413 299 138C314.796 122.204 333.682 106.94 347 89L345 88M359 88L274 170.946L212.885 230.885L185 260C202.214 259.939 217.967 233.46 230.004 222.715C255.584 199.88 277.761 173.239 302 149C321.335 129.665 344.702 110.954 361 89L359 88M373 88L308 151L245.741 211.986L212.885 244.885L198 260C215.983 259.998 233.563 232.384 246.075 220.285C272.765 194.474 297.736 167.264 324 141C340.761 124.239 360.869 108.035 375 89L373 88z"/>
<path style="fill:#f88e8d; stroke:none;" d="M403 88L399 94L403 88z"/>
<path style="fill:#636264; stroke:none;" d="M412 89L412 90L417 89L412 89z"/>
<path style="fill:#fbada8; stroke:none;" d="M427 94L433 88L427 94z"/>
<path style="fill:#590101; stroke:none;" d="M433.333 88.6667L433.667 89.3333L433.333 88.6667z"/>
<path style="fill:#615c5c; stroke:none;" d="M1.33333 89.6667L1.66667 90.3333L1.33333 89.6667z"/>
<path style="fill:#636264; stroke:none;" d="M3 89L4 90L3 89z"/>
<path style="fill:#f30606; stroke:none;" d="M7 89C2.56831 93.4846 0.0758164 96.5804 0 103C5.19927 99.9946 13.4495 94.5864 7 89M21 89C14.7353 96.134 1.44661 106.625 0 116C6.60582 112.919 28.5207 95.5132 21 89M35 89C27.167 97.9199 19.4374 106.563 11 115C6.22826 119.772 0.535725 123.894 0 131L40 94L40 93L35 89z"/>
<path style="fill:#7c797a; stroke:none;" d="M44.6667 89.3333L45.3333 89.6667L44.6667 89.3333z"/>
<path style="fill:#f30606; stroke:none;" d="M49 89C36.8638 101.364 25.3615 114.638 13 127C7.72547 132.275 0.263333 137.053 0 145L54 94L54 93L49 89z"/>
<path style="fill:#fd7071; stroke:none;" d="M61 89L61 91L63 89L61 89z"/>
<path style="fill:#f30606; stroke:none;" d="M63 89C49.536 105.942 33.3159 120.684 18 136C11.96 142.04 1.36147 149.177 0 158L22 138L68 94L68 93L63 89z"/>
<path style="fill:#fd7071; stroke:none;" d="M75 89L73 93L78 89L75 89z"/>
<path style="fill:#f30606; stroke:none;" d="M78 89C61.1141 110.246 39.2608 128.739 20 148C12.8735 155.126 0.128113 163.242 0 174C23.189 157.665 42.9259 132.074 63 112C67.8339 107.166 84.9154 95.8787 78 89z"/>
<path style="fill:#f88e8d; stroke:none;" d="M89 91L92 89L89 91z"/>
<path style="fill:#f30606; stroke:none;" d="M92 89C70.9798 110.963 49.474 132.456 27.9992 154C24.1871 157.824 2.87168 173.893 13 177C29.8504 153.079 56.2913 132.709 77 112C81.8299 107.17 99.2936 95.3106 92 89z"/>
<path style="fill:#f88e8d; stroke:none;" d="M103 89L101 95L102 95L106 89L103 89z"/>
<path style="fill:#de2525; stroke:none;" d="M105 90L110 94L107 89L105 90z"/>
<path style="fill:#545454; stroke:none;" d="M114 89L112 92L114 89z"/>
<path style="fill:#636264; stroke:none;" d="M116 89L117 90L116 89z"/>
<path style="fill:#f30606; stroke:none;" d="M120 89C109.088 98.7351 99.4012 110.599 89 121L67 143C59.0519 150.948 51.2504 159.086 43.0895 166.816C41.6314 168.197 34.2148 173.619 38.3372 175.828C42.3217 177.963 52.4243 164.576 55 162L104 113C108.986 108.014 127.629 95.6066 120 89M148 89L65 174L65 175L67 177L68 177L153 94L153 93L148 89z"/>
<path style="fill:#b57b7b; stroke:none;" d="M160 89L160 91L162 89L160 89z"/>
<path style="fill:#fd7071; stroke:none;" d="M172 93L177 89L172 93z"/>
<path style="fill:#f30606; stroke:none;" d="M177 89C158.439 112.356 134.323 131.988 113.285 153.173C107.725 158.772 101.31 164.142 96.1674 170.089C94.924 171.527 92.5999 175.519 96.0779 176.079C101.013 176.873 111.666 162.334 115 159L166 108C170.673 103.327 183.842 95.7063 177 89M191 89C172.037 110.594 151.367 130.633 131 151C124.117 157.883 110.543 167 109 177C117.124 174.002 123.951 164.049 130 158L176 112C180.892 107.108 198.506 95.4953 191 89z"/>
<path style="fill:#545454; stroke:none;" d="M199 91L202 90L199 91z"/>
<path style="fill:#f30606; stroke:none;" d="M121 174C127.37 180.033 139.462 162.538 144 158C165.828 136.172 187.302 113.907 210 93C203.584 85.592 191.935 104.065 187 109C165.974 130.026 145.287 156.892 121 174z"/>
<path style="fill:#636264; stroke:none;" d="M211 92L216 90L211 92z"/>
<path style="fill:#912319; stroke:none;" d="M219.667 89.3333L220.333 89.6667L219.667 89.3333z"/>
<path style="fill:#636264; stroke:none;" d="M225 92L230 90L225 92z"/>
<path style="fill:#f30606; stroke:none;" d="M150 176L151 177C159.903 172.848 167.105 162.895 174 156L218 112C223.403 106.597 229.428 101.839 234.833 96.5448C236.36 95.049 237.907 92.4241 235.628 90.7515C231.998 88.0872 217.892 106.108 215 109L171 153C164.105 159.895 154.152 167.097 150 176z"/>
<path style="fill:#7c797a; stroke:none;" d="M242.667 89.3333L243.333 89.6667L242.667 89.3333z"/>
<path style="fill:#f30606; stroke:none;" d="M164 174L164 175L166 177C190.287 159.892 210.974 133.026 232 112C237.403 106.597 243.428 101.839 248.833 96.5448C250.36 95.049 251.907 92.4241 249.628 90.7515C245.998 88.0872 231.892 106.108 229 109L164 174M262 89C244.273 109.187 225.043 127.957 206 147C197.434 155.566 184.145 164.968 179 176L180 177C191.032 171.855 200.434 158.566 209 150C228.043 130.957 246.813 111.727 267 94L267 93L262 89z"/>
<path style="fill:#7c797a; stroke:none;" d="M271.667 89.3333L272.333 89.6667L271.667 89.3333z"/>
<path style="fill:#f30606; stroke:none;" d="M276 89C258.273 109.187 239.043 127.957 220 147C211.434 155.566 198.145 164.968 193 176L194 177C205.032 171.855 214.434 158.566 223 150C242.043 130.957 260.813 111.727 281 94L281 93L276 89z"/>
<path style="fill:#f99394; stroke:none;" d="M288 89L288 91L290 89L288 89z"/>
<path style="fill:#f30606; stroke:none;" d="M290 89L232 149L207 176L208 177C219.032 171.855 228.434 158.566 237 150C256.043 130.957 274.813 111.727 295 94L295 93L290 89z"/>
<path style="fill:#f88e8d; stroke:none;" d="M302 89L300 94L305 89L302 89z"/>
<path style="fill:#f30606; stroke:none;" d="M305 89C299.877 97.8898 291.205 104.795 284 112L245 151C238.073 157.927 225.701 166.376 223 176C230.778 174.697 237.619 164.381 243 159L290 112C294.911 107.089 312.659 95.6341 305 89M319 89C300.655 109.891 280.705 129.295 261 149C253.602 156.398 239.879 165.742 237 176C244.778 174.697 251.619 164.381 257 159L304 112C308.911 107.089 326.659 95.6341 319 89M333 89C312.785 110.755 292.051 131.949 271 153C265.251 158.749 249.767 169.272 251 178C259.339 173.303 266.232 163.768 273 157L318 112C322.904 107.096 340.579 95.5634 333 89z"/>
<path style="fill:#615c5c; stroke:none;" d="M341 89L339 92L341 89z"/>
<path style="fill:#636264; stroke:none;" d="M343 89L344 90L343 89z"/>
<path style="fill:#de2525; stroke:none;" d="M346 90L350 95L348 89L346 90z"/>
<path style="fill:#545454; stroke:none;" d="M355 89L353 92L355 89z"/>
<path style="fill:#636264; stroke:none;" d="M357 89L358 90L357 89z"/>
<path style="fill:#f30606; stroke:none;" d="M361 89C343.273 109.187 324.043 127.957 305 147C296.434 155.566 283.145 164.968 278 176L279 177C290.032 171.855 299.434 158.566 308 150C327.043 130.957 345.813 111.727 366 94L366 93L361 89z"/>
<path style="fill:#636264; stroke:none;" d="M370.667 89.3333L371.333 89.6667L370.667 89.3333z"/>
<path style="fill:#f30606; stroke:none;" d="M375 89L292 174L292 175L294 177L295 177L380 94L380 93L375 89z"/>
<path style="fill:#f99394; stroke:none;" d="M387 89L387 91L389 89L387 89z"/>
<path style="fill:#f30606; stroke:none;" d="M389 89L306 174L306 175L308 177L309 177L394 94L394 93L389 89z"/>
<path style="fill:#636264; stroke:none;" d="M398 89L398 90L401 90L398 89z"/>
<path style="fill:#f30606; stroke:none;" d="M404 89L346 149L321 176L322 177C330.144 174.107 336.962 164.038 343 158L389 112C393.911 107.089 411.659 95.6341 404 89z"/>
<path style="fill:#f88e8d; stroke:none;" d="M415 89L413 95L414 95L418 89L415 89z"/>
<path style="fill:#f30606; stroke:none;" d="M418 89C400.273 109.187 381.043 127.957 362 147C353.434 155.566 340.145 164.968 335 176L336 177C344.144 174.107 350.962 164.038 357 158L403 112C407.904 107.096 425.579 95.5634 418 89M432 89C413.037 110.594 392.367 130.633 372 151C365.117 157.883 351.543 167 350 177C358.144 174.107 364.962 164.038 371 158L417 112C421.989 107.011 437.852 96.7752 432 89z"/>
<path style="fill:#ffe0da; stroke:none;" d="M0 96L1 96L4 90L0 96z"/>
<path style="fill:#7c797a; stroke:none;" d="M12 94L16 90L12 94z"/>
<path style="fill:#545454; stroke:none;" d="M27 92L30 90L27 92z"/>
<path style="fill:#636264; stroke:none;" d="M43 90L44 91L43 90z"/>
<path style="fill:#7c797a; stroke:none;" d="M57 90L58 91L57 90z"/>
<path style="fill:#fffefb; stroke:none;" d="M0 152L41 112L61 90C54.0971 91.8804 49.0098 98.1879 43.9961 103.039C33.5057 113.191 23.3222 123.678 13 134C7.76869 139.231 0.590591 144.166 0 152z"/>
<path style="fill:#7c797a; stroke:none;" d="M71 90L72 91L71 90z"/>
<path style="fill:#fffefb; stroke:none;" d="M0 167L22.0895 146.424L53.1659 115.285L75 90C66.7008 92.261 59.9128 101.09 54 107L16 145C9.62372 151.376 0.114693 157.369 0 167z"/>
<path style="fill:#7c797a; stroke:none;" d="M85 90L86 91L85 90z"/>
<path style="fill:#fffefb; stroke:none;" d="M0 196C24.4371 177.384 45.2393 150.761 67 129C78.794 117.206 95.4922 105.042 103 90C92.9653 94.6785 84.7245 105.276 77 113L30 160C22.0652 167.935 13.7229 178.85 3 183C5.5966 172.078 19.1866 163.397 27.0147 155.91C40.8017 142.724 54.0372 128.878 67.4244 115.285C75.2416 107.349 84.5231 100.354 89 90C78.3323 92.9668 68.6524 107.348 61 115L18 158C12.6752 163.325 3.25714 169.802 0.603395 177C-1.39453 182.419 0 190.272 0 196z"/>
<path style="fill:#7c797a; stroke:none;" d="M97 94L101 90L97 94M124 94L129 90L124 94z"/>
<path style="fill:#f30606; stroke:none;" d="M51 176L52 177C63.0323 171.855 72.434 158.566 81 150C100.043 130.957 118.813 111.727 139 94C131.948 85.644 121.263 103.737 116 109L72 153C65.1055 159.895 55.1518 167.097 51 176z"/>
<path style="fill:#615c5c; stroke:none;" d="M156 90L157 91L156 90z"/>
<path style="fill:#fffefb; stroke:none;" d="M0 252C5.96545 249.092 10.6013 243.052 15.2847 238.424C25.7262 228.107 36.1069 217.726 46.4244 207.285C71.1098 182.303 95.1362 156.864 120 132C132.92 119.08 150.828 105.868 160 90C145.619 93.7396 131.256 114.744 121 125C92.0756 153.924 62.8388 182.161 34 211C23.814 221.186 0.0532357 236.938 0 252z"/>
<path style="fill:#f30606; stroke:none;" d="M161 90L133 120L79 174L79 175L81 177L82 177L144 115L168 93L161 90z"/>
<path style="fill:#fffefb; stroke:none;" d="M185 90L147 128L54 219L14 260C28.734 259.989 40.8142 240.135 51.0039 230.389C84.4484 198.4 116.266 164.734 149 132L178 103C181.344 99.6494 187.699 95.0728 185 90M30 260C37.8759 259.907 41.6732 254.303 47 248.999L74 222C102.842 193.158 131.158 163.842 160 135C173.505 121.495 193.418 107.195 202 90C183.605 98.5785 167.249 121.751 153 136C124.321 164.679 95.3593 192.698 66.5764 221.271C55.324 232.441 36.636 245.553 30 260z"/>
<path style="fill:#f30606; stroke:none;" d="M136 176L137 177C147.595 172.711 156.972 159.028 165 151C184.502 131.498 203.722 111.678 224 93C217.207 86.1762 205.867 104.133 201 109L157 153C150.105 159.895 140.152 167.097 136 176z"/>
<path style="fill:#615c5c; stroke:none;" d="M241 90L242 91L241 90z"/>
<path style="fill:#fffefb; stroke:none;" d="M115 260C123.424 259.97 126.76 254.818 132.329 249.036C140.615 240.436 149.103 231.894 157.745 223.653C188.135 194.672 216.303 163.697 246 134C258.711 121.289 280.401 106.295 288 90C281.309 91.74 276.84 97.4539 271.985 102.09C261.782 111.833 251.976 122.024 242 132C212.417 161.583 182.449 190.347 152.996 220.001C141.361 231.715 121.994 245.002 115 260z"/>
<path style="fill:#615c5c; stroke:none;" d="M298 90L299 91L298 90z"/>
<path style="fill:#fffefb; stroke:none;" d="M127 259L127 260C144.108 259.987 160.996 234.378 172.514 222.8C201.65 193.511 230.766 164.234 260 135C273.505 121.495 293.418 107.195 302 90C294.448 91.7955 289.294 98.7059 284 104L251 137C234.107 153.893 215.261 169.492 198.899 186.665C176.162 210.53 153.553 239.288 127 259z"/>
<path style="fill:#615c5c; stroke:none;" d="M312 90L313 91L312 90z"/>
<path style="fill:#fffefb; stroke:none;" d="M142 260C157.925 259.944 174.614 234.268 185.745 223.653C215.56 195.22 243.865 165.135 273 136C286.789 122.211 307.239 107.553 316 90C308.418 91.9716 304.207 98.6473 298.985 104C289.115 114.118 278.995 124.005 269 134C239.617 163.383 209.389 191.611 180 221C168.055 232.945 150.606 245.507 142 260z"/>
<path style="fill:#545454; stroke:none;" d="M325 92L328 90L325 92z"/>
<path style="fill:#fffefb; stroke:none;" d="M156 260C172.957 259.987 189.789 233.747 201.285 222.424C231.203 192.959 260.299 162.701 290 133C302.373 120.627 323.116 106.273 330 90C310.567 99.0623 293.068 123.932 278 139C251.025 165.975 223.748 192.754 196.004 218.91C183.698 230.512 163.873 245.137 156 260z"/>
<path style="fill:#615c5c; stroke:none;" d="M383 90L384 91L383 90z"/>
<path style="fill:#fffefb; stroke:none;" d="M213 260C229.626 259.941 246.931 234.069 258 223C287.719 193.281 316.283 162.717 346 133C358.435 120.565 379.564 105.945 387 90C379.981 91.8253 375.061 98.1382 369.996 103.039C359.167 113.519 348.655 124.345 338 135C309.291 163.709 279.686 190.98 251 219.667C238.455 232.212 222.074 244.683 213 260M226 260C237.322 259.999 240.216 253.799 247.899 246.424C256.276 238.383 264.893 230.416 272.907 222.011C301.343 192.184 330.82 163.18 360 134C373.22 120.78 392.596 106.837 401 90C393.925 91.8399 389.012 97.9886 384 103L354 133C323.968 163.032 293.018 191.649 263 221.667C251.848 232.818 232.959 245.888 226 260z"/>
<path style="fill:#615c5c; stroke:none;" d="M411 90L412 91L411 90z"/>
<path style="fill:#fffefb; stroke:none;" d="M240 260C251.452 259.999 254.45 253.584 262.093 246C270.78 237.381 280.32 229.278 288.486 220.166C315.964 189.504 346.835 161.165 376 132C388.65 119.35 406.954 106.12 415 90C409.561 91.5952 406.199 96.9221 402 100.576C389.693 111.284 378.533 123.467 367 135C338.922 163.078 309.922 189.888 281.781 217.776C268.899 230.543 248.968 244.261 240 260z"/>
<path style="fill:#615c5c; stroke:none;" d="M424 92L427 90L424 92z"/>
<path style="fill:#fffefb; stroke:none;" d="M256 260L264 260C271 245.278 289.714 233.316 300.905 221.573C329.243 191.834 358.885 163.115 388 134C401.22 120.78 420.596 106.837 429 90C411.324 98.2428 395.686 120.314 382 134C353.605 162.395 322.543 188.359 295.737 218C285.896 228.882 274.005 237.816 264.53 249.075C261.357 252.846 257.399 255.118 256 260z"/>
<path style="fill:#636264; stroke:none;" d="M56 91L57 92L56 91M70 91L71 92L70 91z"/>
<path style="fill:#fb5b5b; stroke:none;" d="M87 93L90 91L87 93z"/>
<path style="fill:#f30606; stroke:none;" d="M23 176L24 177L45 158L89 114L103.98 99.2855L107.253 92.6582L101.29 95.0594L86 111L43 154L23 176z"/>
<path style="fill:#7c797a; stroke:none;" d="M155 91L156 92L155 91z"/>
<path style="fill:#de2525; stroke:none;" d="M159 91L158 95L159 95L161 91L159 91z"/>
<path style="fill:#fffefb; stroke:none;" d="M0 260C15.9039 259.944 33.8365 234.339 44.2554 223.31C74.308 191.498 106.031 160.969 137 130C144.99 122.01 152.916 113.949 160.985 106.039C165.482 101.631 171.293 97.2899 173 91C166.399 92.8521 160.796 99.2645 156 104.004C145.942 113.943 135.999 124.001 126 134C96.8004 163.2 67.1565 191.784 37.9992 221C26.381 232.642 7.68987 245.594 0 260z"/>
<path style="fill:#9a999a; stroke:none;" d="M196 94L199 91L196 94z"/>
<path style="fill:#7c797a; stroke:none;" d="M240 91L241 92L240 91M254 91L255 92L254 91M283 91L284 92L283 91M297 91L298 92L297 91z"/>
<path style="fill:#de2525; stroke:none;" d="M303 91L239 155C235.943 158.057 215.551 175.065 225 177C222.498 169.925 237.386 159.614 242 155L288 109C292.246 104.755 303.133 97.3011 303 91z"/>
<path style="fill:#7c797a; stroke:none;" d="M311 91L312 92L311 91z"/>
<path style="fill:#f30606; stroke:none;" d="M263 174C269.409 179.958 282.441 161.559 287 157L335 109C337.423 106.577 350.832 96.5733 347.918 92.6582C345.46 89.3549 341.106 96.6197 339.871 98.0008C332.694 106.03 324.615 113.385 317 121L295 143C284.764 153.236 274.838 165.661 263 174z"/>
<path style="fill:#7c797a; stroke:none;" d="M382 91L383 92L382 91z"/>
<path style="fill:#636264; stroke:none;" d="M396 91L397 92L396 91z"/>
<path style="fill:#7c797a; stroke:none;" d="M410 91L411 92L410 91z"/>
<path style="fill:#868683; stroke:none;" d="M26.6667 92.3333L27.3333 92.6667L26.6667 92.3333M41 92L42 93L41 92z"/>
<path style="fill:#7c797a; stroke:none;" d="M55 92L56 93L55 92z"/>
<path style="fill:#f88e8d; stroke:none;" d="M59 92L17 135L0 154C16.9662 142.049 31.32 123.68 46 109C49.9261 105.074 60.2182 98.0741 59 92z"/>
<path style="fill:#7c797a; stroke:none;" d="M69 92L70 93L69 92z"/>
<path style="fill:#de2525; stroke:none;" d="M81 92L81 95L83 94L83 93L81 92z"/>
<path style="fill:#7c797a; stroke:none;" d="M83 92L84 93L83 92z"/>
<path style="fill:#868683; stroke:none;" d="M111 92L111 94L113 92L111 92z"/>
<path style="fill:#7c797a; stroke:none;" d="M140 92L141 93L140 92z"/>
<path style="fill:#868683; stroke:none;" d="M154 92L155 93L154 92z"/>
<path style="fill:#de2525; stroke:none;" d="M180 92L180 95L182 94L182 93L180 92z"/>
<path style="fill:#84535a; stroke:none;" d="M182 92L183 93L182 92z"/>
<path style="fill:#9a999a; stroke:none;" d="M210.667 92.3333L211.333 92.6667L210.667 92.3333M224.667 92.3333L225.333 92.6667L224.667 92.3333z"/>
<path style="fill:#868683; stroke:none;" d="M239 92L240 93L239 92M253 92L254 93L253 92M268 92L269 93L268 92M282 92L283 93L282 92z"/>
<path style="fill:#af8186; stroke:none;" d="M310 92L311 93L310 92z"/>
<path style="fill:#9a999a; stroke:none;" d="M324.667 92.3333L325.333 92.6667L324.667 92.3333z"/>
<path style="fill:#fd7071; stroke:none;" d="M328 92L328 95L329 95L330 92L328 92z"/>
<path style="fill:#9a999a; stroke:none;" d="M338 92L338 94L340 92L338 92M352 92L352 94L354 92L352 92z"/>
<path style="fill:#868683; stroke:none;" d="M367 92L368 93L367 92M381 92L382 93L381 92M395 92L396 93L395 92M409 92L410 93L409 92z"/>
<path style="fill:#9a999a; stroke:none;" d="M423 92L423 94L425 92L423 92z"/>
<path style="fill:#f88e8d; stroke:none;" d="M11 93L7 99L11 93z"/>
<path style="fill:#de2525; stroke:none;" d="M16 93L0 112C4.84967 108.584 17.3018 99.4906 16 93z"/>
<path style="fill:#fbada8; stroke:none;" d="M21 99L27 93L21 99z"/>
<path style="fill:#fb5b5b; stroke:none;" d="M44 93C32.6616 109.096 10.3217 120.155 2 138C14.2046 129.403 24.4472 116.553 35 106C38.3143 102.686 45.0299 98.1352 44 93z"/>
<path style="fill:#b57b7b; stroke:none;" d="M54 93L55 94L54 93z"/>
<path style="fill:#af8186; stroke:none;" d="M68 93L69 94L68 93z"/>
<path style="fill:#de2525; stroke:none;" d="M74 93L70 99L74 93z"/>
<path style="fill:#f88e8d; stroke:none;" d="M96 93L92 98L96 93z"/>
<path style="fill:#fbada8; stroke:none;" d="M110 93L106 99L110 93z"/>
<path style="fill:#fb5b5b; stroke:none;" d="M129 93C113.954 114.359 90.4877 132.512 72 151C64.8257 158.174 54.3182 165.74 50 175C72.457 159.181 91.5604 134.44 111 115C115.622 110.378 130.402 99.9911 129 93z"/>
<path style="fill:#fd7071; stroke:none;" d="M143 93C128.212 113.993 105.17 131.83 87 150C79.8257 157.174 69.3182 164.74 65 174C87.457 158.181 106.56 133.44 126 114C130.486 109.514 144.368 99.8214 143 93z"/>
<path style="fill:#de2525; stroke:none;" d="M173 93L168 100L173 93z"/>
<path style="fill:#fbada8; stroke:none;" d="M195 93L190 97L190 98C192.919 97.1613 195.076 96.2396 195 93M204 97L204 98L211 93L204 97M218 97L218 98L225 93L218 97z"/>
<path style="fill:#fd7071; stroke:none;" d="M229 93L174 148L149 175C171.457 159.181 190.56 134.44 210 115C214.904 110.096 229.152 100.179 229 93M243 93L189 147L164 174C186.091 158.439 204.878 134.122 224 115C228.904 110.096 243.152 100.179 243 93M257 93C242.212 113.993 219.17 131.83 201 150C193.826 157.174 183.318 164.74 179 174C201.457 158.181 220.56 133.44 240 114C244.486 109.514 258.368 99.8214 257 93M271 93C255.954 114.359 232.488 132.512 214 151C206.826 158.174 196.318 165.74 192 175C214.457 159.181 233.56 134.44 253 115C257.622 110.378 272.402 99.991 271 93M286 93L231 148L206 175C228.457 159.181 247.56 134.44 267 115C271.904 110.096 286.152 100.179 286 93z"/>
<path style="fill:#fbada8; stroke:none;" d="M319 99L325 93L319 99M337 93L331 98L331 99C334.275 98.0718 337.08 96.6721 337 93z"/>
<path style="fill:#de2525; stroke:none;" d="M342 93C327.214 114.071 304.196 131.804 286 150C278.826 157.174 268.318 164.74 264 174C286.457 158.181 305.56 133.44 325 114C329.486 109.514 343.368 99.8214 342 93z"/>
<path style="fill:#fbada8; stroke:none;" d="M351 93L347 99L351 93z"/>
<path style="fill:#fd7071; stroke:none;" d="M356 93C340.954 114.359 317.488 132.512 299 151C291.826 158.174 281.318 165.74 277 175C299.457 159.181 318.56 134.44 338 115C342.622 110.378 357.402 99.991 356 93M370 93C355.212 113.993 332.17 131.83 314 150C306.826 157.174 296.318 164.74 292 174C314.457 158.181 333.56 133.44 353 114C357.486 109.514 371.368 99.8214 370 93z"/>
<path style="fill:#de2525; stroke:none;" d="M400 93L345 148L320 175C342.457 159.181 361.56 134.44 381 115C385.904 110.096 400.152 100.179 400 93z"/>
<path style="fill:#ffe0da; stroke:none;" d="M327 175L375 128L410 93L388 112L350 150L327 175z"/>
<path style="fill:#fbada8; stroke:none;" d="M422 93L416 98L416 99C419.275 98.0718 422.08 96.6721 422 93z"/>
<path style="fill:#fb5b5b; stroke:none;" d="M30 94C20.59 103.41 5.64226 113.901 0 126L23 104L30 94z"/>
<path style="fill:#f88e8d; stroke:none;" d="M121 98L125 94L121 98z"/>
<path style="fill:#fd7071; stroke:none;" d="M157 94L104 147L79 174C101.091 158.439 119.878 134.122 139 115C143.741 110.259 157.147 100.965 157 94z"/>
<path style="fill:#ffe0da; stroke:none;" d="M181 94L124 149L99 176C121.823 159.923 141.243 134.757 161 115C165.099 110.901 181.32 99.5404 181 94z"/>
<path style="fill:#de2525; stroke:none;" d="M200 94L147 147L122 174C144.091 158.439 162.878 134.122 182 115C186.741 110.259 200.147 100.965 200 94M214 94L160 148L135 175C157.091 159.439 175.878 135.122 195 116C199.904 111.096 214.152 101.179 214 94M314 94L253 155C250.02 157.98 229.731 175.073 239 177C236.548 170.065 250.504 160.496 255 156L300 111C304.077 106.923 314.128 100.069 314 94z"/>
<path style="fill:#fd7071; stroke:none;" d="M306 174L347 134L386 94L366 112L328 150L306 174z"/>
<path style="fill:#de2525; stroke:none;" d="M427 94L368 153C362.439 158.561 348.877 167.748 349 176C366.296 154.857 387.682 136.318 407 117C412.065 111.935 427.156 101.389 427 94M22 175L63 135L102 95L78 117L40 155L22 175M108 176L187 95C178.919 98.8678 172.283 107.717 166 114L126 154C120.607 159.393 107.88 167.976 108 176M334 175L374 136L414 95L394 113L356 151L334 175z"/>
<path style="fill:#fd7071; stroke:none;" d="M79 96L80 97L79 96M164 96L165 97L164 96z"/>
<path style="fill:#f88e8d; stroke:none;" d="M326 96L327 97L326 96z"/>
<path style="fill:#f99394; stroke:none;" d="M433 96L432 99L433 96z"/>
<path style="fill:#fbada8; stroke:none;" d="M2 159L65 98C58.9259 96.7818 51.9261 107.074 48 111L17 142C11.8011 147.199 5.13772 152.272 2 159z"/>
<path style="fill:#fd7071; stroke:none;" d="M77.6667 97.3333L78.3333 97.6667L77.6667 97.3333z"/>
<path style="fill:#fb5b5b; stroke:none;" d="M90 97L90 99L92 97L90 97z"/>
<path style="fill:#ffe0da; stroke:none;" d="M120 97L67 149L42 176C63.725 160.697 82.195 136.805 101 118C105.338 113.662 120.157 103.108 120 97z"/>
<path style="fill:#fb5b5b; stroke:none;" d="M176.667 97.3333L177.333 97.6667L176.667 97.3333z"/>
<path style="fill:#de2525; stroke:none;" d="M249 176L250 176C270.999 146.19 306.001 126.81 327 97C319.176 100.649 313.051 108.949 307 115L268 154C261.788 160.212 251.43 167.342 249 176z"/>
<path style="fill:#fd7071; stroke:none;" d="M0 133C12.2169 124.394 26.3942 110.217 35 98C23.9475 103.154 5.15416 121.948 0 133M0 147L50 99C44.6037 97.9177 39.4743 105.526 36 109C24.9441 120.056 6.6196 132.805 0 147z"/>
<path style="fill:#f88e8d; stroke:none;" d="M69 98L70 99L69 98z"/>
<path style="fill:#ffe0da; stroke:none;" d="M0 176L39 138L78 98L58 116L21 153L0 176M29 175L70.0748 135L106 98L83 119L47 155L29 175z"/>
<path style="fill:#f88e8d; stroke:none;" d="M54 177C63.2599 172.682 70.8257 162.174 78 155C96.1705 136.83 114.007 113.788 135 99C128.179 97.6319 118.486 111.514 114 116C94.5604 135.44 69.8191 154.543 54 177z"/>
<path style="fill:#f99394; stroke:none;" d="M67 178C76.2599 173.682 83.8257 163.174 91 156C109.488 137.512 127.641 114.046 149 99C142.009 97.5978 131.622 112.378 127 117C107.56 136.44 82.8191 155.543 67 178M81 178C91.3254 173.185 99.9896 161.01 108 153C125.536 135.464 147.728 118.261 162 98C151.675 102.815 143.01 114.99 135 123C117.464 140.536 95.272 157.739 81 178z"/>
<path style="fill:#ffe0da; stroke:none;" d="M113 176C142.81 155.001 162.19 119.999 192 99C185.179 97.6319 175.486 111.514 171 116L132 155C125.667 161.333 116.817 167.815 113 176M128 175L167 137L205 98L182 119L146 155L128 175M142 175L181 137L219 98L196 119L160 155L142 175z"/>
<path style="fill:#f88e8d; stroke:none;" d="M152 178C162.325 173.185 170.99 161.01 179 153C196.536 135.464 218.728 118.261 233 98C222.675 102.815 214.01 114.99 206 123C188.464 140.536 166.272 157.739 152 178z"/>
<path style="fill:#f99394; stroke:none;" d="M171 174L210 136L247 98L224 119L188 155L171 174z"/>
<path style="fill:#f88e8d; stroke:none;" d="M181 178C190.26 173.682 197.826 163.174 205 156C223.488 137.512 241.641 114.046 263 99C256.009 97.5978 245.622 112.378 241 117C221.56 136.44 196.819 155.543 181 178M195 178C204.26 173.682 211.826 163.174 219 156C237.488 137.512 255.641 114.046 277 99C270.009 97.5978 259.622 112.378 255 117C235.56 136.44 210.819 155.543 195 178z"/>
<path style="fill:#f99394; stroke:none;" d="M209 178C219.325 173.185 227.99 161.01 236 153C253.536 135.464 275.728 118.261 290 98C279.675 102.815 271.01 114.99 263 123C245.464 140.536 223.272 157.739 209 178z"/>
<path style="fill:#ffe0da; stroke:none;" d="M318 98L265 150L241 176C262.725 160.697 281.195 136.805 300 118C304.182 113.818 318.152 103.914 318 98M270 175L309 137L347 98L327 116L291 152L270 175z"/>
<path style="fill:#f88e8d; stroke:none;" d="M280 178C289.26 173.682 296.826 163.174 304 156C322.488 137.512 340.641 114.046 362 99C355.009 97.5978 344.622 112.378 340 117C320.56 136.44 295.819 155.543 280 178z"/>
<path style="fill:#f99394; stroke:none;" d="M295 177C304.26 172.682 311.826 162.174 319 155C337.17 136.83 355.007 113.788 376 99C369.179 97.6319 359.486 111.514 355 116C335.56 135.44 310.819 154.543 295 177M313 174L352 136L389 98L370 115L334 151L313 174z"/>
<path style="fill:#ffe0da; stroke:none;" d="M355 175L394 137L432 98L412 116L376 152L355 175z"/>
<path style="fill:#fffefb; stroke:none;" d="M433 98L380 150L311.946 215.999L280.871 247.014L269 260C283.871 259.988 296.116 240.441 306.231 230.514C337.256 200.068 367.246 168.754 398 138L426 110C429.215 106.778 434.553 102.968 433 98z"/>
<path style="fill:#f99394; stroke:none;" d="M68 99L69 100L68 99z"/>
<path style="fill:#ffe0da; stroke:none;" d="M13 177L52 139L91 99L68 120L31 157L13 177z"/>
<path style="fill:#f88e8d; stroke:none;" d="M167 99L168 100L167 99M181 99L182 100L181 99z"/>
<path style="fill:#ffe0da; stroke:none;" d="M227 176L266 138L304 99L281 120L245 156L227 176M255 176L294 138L332 99L309 120L273 156L255 176M341 175L380 137L417 99L398 116L362 152L341 175z"/>
<path style="fill:#f99394; stroke:none;" d="M67 100L68 101L67 100z"/>
<path style="fill:#fd7071; stroke:none;" d="M16 101L17 102L16 101z"/>
<path style="fill:#f88e8d; stroke:none;" d="M293 101L294 102L293 101z"/>
<path style="fill:#fd7071; stroke:none;" d="M399 101L400 102L399 101z"/>
<path style="fill:#ffe0da; stroke:none;" d="M2 117L17 102C10.9158 104.837 4.8373 110.916 2 117z"/>
<path style="fill:#f88e8d; stroke:none;" d="M164 102L165 103L164 102M334 102L335 103L334 102z"/>
<path style="fill:#de2525; stroke:none;" d="M433 102L385 150L363 174C382.895 159.986 399.781 138.219 417 121C421.412 116.588 433.138 108.527 433 102z"/>
<path style="fill:#f99394; stroke:none;" d="M78 103L79 104L78 103z"/>
<path style="fill:#f88e8d; stroke:none;" d="M163 103L164 104L163 103z"/>
<path style="fill:#f30606; stroke:none;" d="M433 104C410.386 126.614 388.118 155.602 362 174C367.896 179.389 376.915 166.085 381 162L422 121C426.294 116.708 435.679 110.948 433 104z"/>
<path style="fill:#f88e8d; stroke:none;" d="M104 105L105 106L104 105M159 107L160 108L159 107z"/>
<path style="fill:#f99394; stroke:none;" d="M59 108L60 109L59 108z"/>
<path style="fill:#f88e8d; stroke:none;" d="M158 108L159 109L158 108M157 109L158 110L157 109z"/>
<path style="fill:#fbada8; stroke:none;" d="M433.333 109.667L433.667 110.333L433.333 109.667z"/>
<path style="fill:#f88e8d; stroke:none;" d="M156 110L157 111L156 110M325 111L326 112L325 111z"/>
<path style="fill:#fffefb; stroke:none;" d="M284 260C297.531 259.952 307.566 243.255 316.804 234.474C346.188 206.543 373.375 176.625 402 148C410.935 139.065 433.014 124.086 434 111L420.999 123L392 152L319 224L284 260z"/>
<path style="fill:#f99394; stroke:none;" d="M53 114L54 115L53 114M52 115L53 116L52 115z"/>
<path style="fill:#f88e8d; stroke:none;" d="M151 115L152 116L151 115z"/>
<path style="fill:#fd7071; stroke:none;" d="M427 115L428 116L427 115M0 116L0 118L2 116L0 116z"/>
<path style="fill:#f99394; stroke:none;" d="M51 116L52 117L51 116z"/>
<path style="fill:#f88e8d; stroke:none;" d="M150 116L151 117L150 116z"/>
<path style="fill:#ffe0da; stroke:none;" d="M369 175L399 146L428 116C412.055 123.436 397.435 144.565 385 157C379.516 162.484 372.309 167.904 369 175z"/>
<path style="fill:#de2525; stroke:none;" d="M433 116L428 123L433 116z"/>
<path style="fill:#f99394; stroke:none;" d="M149 117L150 118L149 117z"/>
<path style="fill:#f88e8d; stroke:none;" d="M148 118L149 119L148 118z"/>
<path style="fill:#f30606; stroke:none;" d="M433 118L395 156L377 176L378 177C394.295 169.401 409.288 147.711 422 135C426.292 130.708 435.79 124.898 433 118z"/>
<path style="fill:#de2525; stroke:none;" d="M144 124L149 119L144 124z"/>
<path style="fill:#f88e8d; stroke:none;" d="M88 121L89 122L88 121z"/>
<path style="fill:#fd7071; stroke:none;" d="M427 122L393 156L376 175C390.403 164.854 402.542 149.458 415 137C418.731 133.269 427.118 127.583 427 122z"/>
<path style="fill:#f88e8d; stroke:none;" d="M143 123L144 124L143 123M142 124L143 125L142 124M433 124C414.624 138.001 392.301 159.117 379 178C394.595 170.727 408.841 150.16 421 138C424.232 134.768 433.121 128.706 433 124z"/>
<path style="fill:#f99394; stroke:none;" d="M141 125L142 126L141 125z"/>
<path style="fill:#f88e8d; stroke:none;" d="M140 126L141 127L140 126z"/>
<path style="fill:#fffefb; stroke:none;" d="M298 260C311.402 259.99 323.493 242.819 332.241 233.311C355.584 207.939 380.642 183.358 405 159C413.31 150.69 432.157 137.943 434 126C417.705 133.599 402.711 155.289 390 168C370.216 187.784 350.13 207.45 330.001 226.981C319.247 237.416 306.656 247.71 298 260z"/>
<path style="fill:#f99394; stroke:none;" d="M82 127L83 128L82 127z"/>
<path style="fill:#de2525; stroke:none;" d="M136 132L141 127L136 132z"/>
<path style="fill:#f99394; stroke:none;" d="M81 128L82 129L81 128M37 130L38 131L37 130z"/>
<path style="fill:#de2525; stroke:none;" d="M433 130L428 137L433 130z"/>
<path style="fill:#f99394; stroke:none;" d="M36 131L37 132L36 131z"/>
<path style="fill:#f88e8d; stroke:none;" d="M135 131L136 132L135 131z"/>
<path style="fill:#f99394; stroke:none;" d="M35 132L36 133L35 132z"/>
<path style="fill:#f88e8d; stroke:none;" d="M134 132L135 133L134 132z"/>
<path style="fill:#f99394; stroke:none;" d="M133 133L134 134L133 133z"/>
<path style="fill:#f30606; stroke:none;" d="M391 174L391 175L393 177L394 177L423 148C427.495 143.507 433.484 139.702 434 133C418.046 140.44 403.446 161.554 391 174z"/>
<path style="fill:#f88e8d; stroke:none;" d="M132 134L133 135L132 134z"/>
<path style="fill:#de2525; stroke:none;" d="M128 140L133 135L128 140z"/>
<path style="fill:#fd7071; stroke:none;" d="M427 136C415.933 147.067 397.624 159.796 391 174L419 147L427 136z"/>
<path style="fill:#f99394; stroke:none;" d="M0 137L0 139L2 139L2 137L0 137z"/>
<path style="fill:#f88e8d; stroke:none;" d="M72 137L73 138L72 137z"/>
<path style="fill:#f99394; stroke:none;" d="M433 138C419.179 148.53 403.006 163.795 393 178C404.739 172.526 414.877 158.12 424 149C426.742 146.259 433.104 142.037 433 138z"/>
<path style="fill:#f88e8d; stroke:none;" d="M127 139L128 140L127 139M126 140L127 141L126 140z"/>
<path style="fill:#fffefb; stroke:none;" d="M312 260C324.248 259.957 333.063 246.223 341.232 238C363.619 215.468 385.68 192.466 408.001 170C415.697 162.254 432.279 151.151 434 140C419.273 146.868 406.677 165.734 395 176.981C375.844 195.433 356.707 214.022 337.833 232.871C329.142 241.552 318.435 249.397 312 260z"/>
<path style="fill:#f99394; stroke:none;" d="M125 141L126 142L125 141z"/>
<path style="fill:#f88e8d; stroke:none;" d="M124 142L125 143L124 142z"/>
<path style="fill:#f99394; stroke:none;" d="M66 143L67 144L66 143z"/>
<path style="fill:#de2525; stroke:none;" d="M120 148L125 143L120 148z"/>
<path style="fill:#f99394; stroke:none;" d="M65 144L66 145L65 144z"/>
<path style="fill:#de2525; stroke:none;" d="M433 144L428 151L433 144z"/>
<path style="fill:#f99394; stroke:none;" d="M21 146L22 147L21 146z"/>
<path style="fill:#f30606; stroke:none;" d="M433 146L405 174L405 175L407 177L408 177C413.884 171.116 436.595 154.819 433 146z"/>
<path style="fill:#f99394; stroke:none;" d="M20 147L21 148L20 147z"/>
<path style="fill:#f88e8d; stroke:none;" d="M119 147L120 148L119 147z"/>
<path style="fill:#f99394; stroke:none;" d="M19 148L20 149L19 148z"/>
<path style="fill:#f88e8d; stroke:none;" d="M118 148L119 149L118 148z"/>
<path style="fill:#f99394; stroke:none;" d="M117 149L118 150L117 149z"/>
<path style="fill:#f88e8d; stroke:none;" d="M116 150L117 151L116 150z"/>
<path style="fill:#fd7071; stroke:none;" d="M427 150L405 174C410.826 169.896 427.156 157.384 427 150z"/>
<path style="fill:#fb5b5b; stroke:none;" d="M430 155L434 152L430 155z"/>
<path style="fill:#f88e8d; stroke:none;" d="M56 153L57 154L56 153z"/>
<path style="fill:#fffefb; stroke:none;" d="M433 153L360 225L326 260C337.471 259.959 345.56 248.083 353.196 240.399C372.753 220.719 392.51 201.23 412.08 181.565C417.911 175.706 436.55 161.812 433 153z"/>
<path style="fill:#f88e8d; stroke:none;" d="M111 155L112 156L111 155M409 176C417.257 172.15 425.788 162.399 431 155C422.743 158.85 414.212 168.601 409 176M110 156L111 157L110 156z"/>
<path style="fill:#f99394; stroke:none;" d="M109 157L110 158L109 157z"/>
<path style="fill:#fd7071; stroke:none;" d="M0 158L0 160L2 160L2 158L0 158z"/>
<path style="fill:#f88e8d; stroke:none;" d="M108 158L109 159L108 158z"/>
<path style="fill:#f99394; stroke:none;" d="M8 159L9 160L8 159M22 159L23 160L22 159M50 159L51 160L50 159z"/>
<path style="fill:#f88e8d; stroke:none;" d="M107 159L108 160L107 159z"/>
<path style="fill:#de2525; stroke:none;" d="M433 159L419 175C423.537 171.804 433.125 164.913 433 159z"/>
<path style="fill:#f99394; stroke:none;" d="M49 160L50 161L49 160z"/>
<path style="fill:#f30606; stroke:none;" d="M433 161L420 176L421 177C426.642 174.996 435.555 167.625 433 161z"/>
<path style="fill:#f99394; stroke:none;" d="M5 162L6 163L5 162M4 163L5 164L4 163z"/>
<path style="fill:#f88e8d; stroke:none;" d="M103 163L104 164L103 163M102 164L103 165L102 164z"/>
<path style="fill:#f99394; stroke:none;" d="M1 166L2 167L1 166M15 166L16 167L15 166z"/>
<path style="fill:#f88e8d; stroke:none;" d="M100 166L101 167L100 166z"/>
<path style="fill:#fffefb; stroke:none;" d="M433 166L363.947 234.961L339 260C350.719 259.991 357.052 250.45 364.764 242.518C381.465 225.341 398.603 208.498 415.653 191.671C422.174 185.235 437.438 176.6 433 166z"/>
<path style="fill:#f99394; stroke:none;" d="M14 167L15 168L14 167M12 169L13 170L12 169M11 170L12 171L11 170z"/>
<path style="fill:#f1d0a1; stroke:none;" d="M64 173L60 179L64 173z"/>
<path style="fill:#e7c285; stroke:none;" d="M78 173L75 178L78 173z"/>
<path style="fill:#f1d0a1; stroke:none;" d="M163 173L159 179L163 173z"/>
<path style="fill:#fd7071; stroke:none;" d="M170 173L168 176L170 173z"/>
<path style="fill:#efdcbc; stroke:none;" d="M178 173L174 180L175 180L178 173z"/>
<path style="fill:#f99394; stroke:none;" d="M235 173L236 174L235 173z"/>
<path style="fill:#f1d0a1; stroke:none;" d="M291 173L287 179L291 173M305 173L303 177L305 173z"/>
<path style="fill:#fd7071; stroke:none;" d="M312 173L310 176L312 173z"/>
<path style="fill:#f1d0a1; stroke:none;" d="M361 173L361 175L363 173L361 173M390 173L386 179L390 173M404 173L401 179L402 179L404 173z"/>
<path style="fill:#d6a24b; stroke:none;" d="M7 174L3 183L12 178L7 174M35 174L30 183L33 184L40 177L35 174z"/>
<path style="fill:#e7c285; stroke:none;" d="M49 174L47 178L49 174z"/>
<path style="fill:#d6a24b; stroke:none;" d="M92 174L87 183L97 177L92 174M106 174L100 182L110 178L110 177L106 174M134 174L128 181L128 182C132.541 183.772 134.597 180.962 138 178L138 177L134 174z"/>
<path style="fill:#f1d0a1; stroke:none;" d="M148 174L145 178L148 174M191 174L188 179L191 174M205 174L202 178L205 174z"/>
<path style="fill:#d6a24b; stroke:none;" d="M220 174L215 184C219.346 181.459 224.111 179.01 220 174M234 174L229 184C234.037 182.201 238.2 179.114 234 174M248 174L243 184C247.46 181.674 252.061 178.949 248 174M262 174L257 184L266 178L266 177L262 174z"/>
<path style="fill:#f1d0a1; stroke:none;" d="M276 174L273 178L276 174z"/>
<path style="fill:#d6a24b; stroke:none;" d="M319 174L314 183L323 178L323 177L319 174M333 174L328 183L338 178L338 177L333 174M347 174L341 182L351 178L351 177L347 174z"/>
<path style="fill:#fd7071; stroke:none;" d="M368 174L369 175L368 174z"/>
<path style="fill:#f1d0a1; stroke:none;" d="M375 174L373 178L375 174z"/>
<path style="fill:#d6a24b; stroke:none;" d="M418 174L413 183L422 178L422 177L418 174M433 174L427 183C431.104 181.715 434.736 178.51 433 174M16 183L26 178C21.0724 173.953 17.2891 177.694 16 183M50 175L44 183L45 184L53 178L53 177L50 175M59 184L67 176L66 175C61.91 176.914 58.9302 179.317 59 184M73 183L81 176L80 175L73 183M114 182L125 178C120.118 173.952 116.881 177.505 114 182M149 175L143 183L144 184L146 184L152 178L152 177L149 175M157 183L158 184L166 176L165 175L157 183M178 175L172 181L172 183L173 184L181 178L181 177L178 175M192 175L186 183L187 184L189 184L195 178L195 177L192 175M206 175L200 183L201 184L209 178L209 177L206 175M277 175L271 183L272 184L274 184L280 178L280 177L277 175M285 183L286 184L294 176L293 175L285 183M300 183L308 176L307 175C302.963 176.64 301.032 178.753 300 183M357 184L366 178C360.851 173.731 356.022 177.977 357 184M376 175L370 183L371 184L379 178L379 177L376 175M384 183L385 184L393 176L392 175L384 183M400 184L407 176L406 175C402.012 176.937 399.282 179.403 400 184z"/>
<path style="fill:#efdcbc; stroke:none;" d="M162 182L169 176L162 182M304 180L304 181L311 176L304 180M403 180L403 181L410 176L403 180z"/>
<path style="fill:#e7c285; stroke:none;" d="M32 177L29 182L32 177z"/>
<path style="fill:#efdcbc; stroke:none;" d="M49 182L55 177L49 182z"/>
<path style="fill:#e7c285; stroke:none;" d="M259 177L256 183L259 177z"/>
<path style="fill:#efdcbc; stroke:none;" d="M290 182L296 177L290 182M62 181L62 182L68 178L62 181z"/>
<path style="fill:#f1d0a1; stroke:none;" d="M79 181L82 178L79 181z"/>
<path style="fill:#efdcbc; stroke:none;" d="M147 181L147 182L153 178L147 181M177 182L182 178L177 182M190 181L190 182L196 178L190 181M275 181L275 182L281 178L275 181M375 182L380 178L375 182M389 182L394 178L389 182M430 183L434 179L430 183z"/>
<path style="fill:#e7c285; stroke:none;" d="M4 183L9 181L4 183M20 180L16 186L20 180z"/>
<path style="fill:#fffdbd; stroke:none;" d="M78 180L62 197L80 181L78 180z"/>
<path style="fill:#f1d0a1; stroke:none;" d="M87 186L94 181C90.2823 180.249 88.5122 182.859 87 186z"/>
<path style="fill:#e7c285; stroke:none;" d="M105 180L101 186L105 180z"/>
<path style="fill:#f1d0a1; stroke:none;" d="M116 184L121 180L116 184z"/>
<path style="fill:#e7c285; stroke:none;" d="M315 184L320 180L315 184M328 186L334 180L328 186M344 184L348 180L344 184M417 180L413 186L417 180z"/>
<path style="fill:#fffefb; stroke:none;" d="M433 180L394.91 218.91L354 260C365.64 259.96 373.756 247.997 381.285 240.025C393.036 227.584 405.442 215.291 417.914 203.576C422.99 198.809 427.636 191.952 434 189L433 180z"/>
<path style="fill:#fef172; stroke:none;" d="M15 181L0 198C4.45375 194.725 15.1208 186.71 15 181z"/>
<path style="fill:#f6e331; stroke:none;" d="M72 181C54.3632 197.499 38.6299 216.037 20.9113 232.421C14.7115 238.153 1.41079 247.433 0 256C7.41023 252.544 13.0533 244.963 18.8341 239.285C31.68 226.666 44.1228 213.635 57.0247 201.075C61.2221 196.989 74.8722 187.189 72 181M86 181L34.0008 232.921L8 260C15.8287 259.383 21.758 250.242 27 245L71 201C75.0321 196.968 89.3031 187.106 86 181z"/>
<path style="fill:#f1d0a1; stroke:none;" d="M215 186L221 182C217.712 181.325 216.415 183.181 215 186z"/>
<path style="fill:#fef172; stroke:none;" d="M242 181C223.786 198.042 206.83 216.498 189.015 233.961C181.615 241.214 168.6 250.246 165 260L166 260L242 184L246 184L246 183L243 184L242 181z"/>
<path style="fill:#e7c285; stroke:none;" d="M246 183L249 182L246 183z"/>
<path style="fill:#f6e331; stroke:none;" d="M299 181L251 229L222 260C230.815 258.715 239.546 245.787 245.667 239.667C263.712 221.621 281.354 198.954 302 184L302 183L299 181M313 181C295.874 197.472 279.891 215.075 262.83 231.584C254.352 239.789 241.023 249.227 236 260C243.44 258.92 248.02 251.024 253.325 246.24C268.836 232.253 282.786 216.325 297.671 201.667C302.212 197.195 316.737 188.116 313 181M327 181C312.661 198.608 294.583 215.391 278 230.871C269.191 239.094 255.106 249.036 250 260C257.803 258.868 263.111 249.973 268.514 244.765C283.236 230.574 297.406 215.791 311.855 201.325C315.949 197.226 330.409 187.249 327 181z"/>
<path style="fill:#fef172; stroke:none;" d="M355 181L346 192C349.595 189.468 355.1 185.716 355 181z"/>
<path style="fill:#f6e331; stroke:none;" d="M398 181L357.777 221.777L320 260C327.829 259.383 333.758 250.242 339 245L383 201C387.122 196.878 401.027 187.467 398 181M412 181C393.802 197.793 376.48 216.031 358.999 233.671C351.301 241.439 339.963 249.573 336 260C343.31 258.009 349.136 249.087 354.424 243.86C368.746 229.702 382.92 215.383 397.015 200.999C401.018 196.913 415.318 187.134 412 181M426 181C411.096 194.918 397.971 210.879 382.886 224.546C372.029 234.381 355.955 246.388 350 260C357.121 258.827 363.243 249.124 368.05 244.09C382.157 229.318 397.872 215.971 411.715 200.961C415.671 196.671 429.479 187.033 426 181M0 214L31 186L30 182C20.8236 185.646 1.64136 204.16 0 214M42 182L14.2693 210.514L0 224L0 228C18.1143 219.555 28.799 197.412 45 186L44 182L42 182M57 182L13.1034 226.13L0 242L16.9606 227.09L59 186L57 182z"/>
<path style="fill:#fef172; stroke:none;" d="M24 259L66.0748 217.166L101 182L77.5255 203.199L43.9861 236.789L24 259M38 258L66 232L115 182L92 203L56 239L38 258M51 260L88.2816 223.285L129 182L106.845 201.87L66.9144 241.965L51 260z"/>
<path style="fill:#f6e331; stroke:none;" d="M142 182L97.9105 226.83L66 260C73.674 258.882 79.7407 249.351 85 244.144C99.0384 230.247 113.109 216.374 127.001 202.329C130.884 198.403 145.894 187.498 142 182M156 182L101.834 236.925L80 260C87.5119 258.905 93.8295 249.504 99 244.333L141 202.333C144.94 198.393 159.931 187.549 156 182M171 182C153.585 199.13 136.401 216.629 119 233.856C111.24 241.538 99.335 249.914 95 260C102.486 258.746 108.83 249.17 114 244L156 202C159.871 198.129 175.023 187.699 171 182M185 182L140 226.768L108 260C117.138 259.28 125.934 246.305 132.039 239.996C149.112 222.355 166.964 200.114 187 186L185 182M198 182C183.854 202.045 161.449 219.431 144 236.768C137.384 243.341 126.107 251.119 123 260C130.626 258.792 135.771 250.132 141 245.015C155.479 230.845 170.192 216.737 184.09 201.996C188.957 196.833 200.786 189.784 200 182L198 182M213 182L153.526 241.196L136 260C145.084 259.363 152.521 247.408 158.7 241.464C177.153 223.713 194.108 200.781 215 186L213 182M226 182L165.946 243.999L150 260C159.363 259.694 165.581 248.269 172.076 242.246C191.38 224.346 208.059 201.952 229 186L228 182L226 182z"/>
<path style="fill:#fef172; stroke:none;" d="M255 182C237.354 199.029 220.374 216.725 202.845 233.87C195.146 241.4 183.245 250.001 179 260C200.068 244.077 217.96 221.606 236.718 203C241.439 198.318 255.154 188.909 255 182z"/>
<path style="fill:#f6e331; stroke:none;" d="M270 182L210.83 241.91L194 260C201.674 258.882 207.741 249.351 213 244.144C227.038 230.247 241.109 216.374 255.001 202.329C258.943 198.344 273.874 187.47 270 182M284 182L229.834 236.925L208 260C215.476 258.769 221.815 249.519 227 244.333C241 230.333 255.065 216.394 269.001 202.329C272.86 198.435 287.938 187.558 284 182M264 260C273.147 259.295 280.622 246.944 286.843 240.839C305.843 222.196 327.712 204.007 344 183C336.096 182.324 327.861 195.231 322.424 200.384C303.11 218.691 279.107 237.968 264 260M369 182L315.781 235.776L292 260C301.239 259.272 309.737 246.241 316 240.004C333.633 222.444 350.811 200.529 371 186L369 182M383 182C366.101 197.281 350.737 214.531 334.634 230.634C325.863 239.405 312.457 248.769 307 260C314.411 258.781 321.612 249.157 326.711 243.95C340.492 229.875 354.197 215.672 368.299 201.919C372.269 198.048 386.625 187.859 383 182M0 200C6.5026 196.851 13.6939 189.369 17 183C10.1291 186.2 3.16174 193.098 0 200M23 259L23 260C31.5518 259.342 38.5606 248.072 44.2816 242.285C56.8987 229.525 69.6661 216.889 82.4244 204.271C88.9826 197.785 97.6235 191.205 102 183C91.9181 187.7 83.8618 198.668 76.1998 206.536C59.5717 223.613 42.3024 245.128 23 259M37 260C45.4889 259.331 53.3 247.7 59 242L98 203C104.051 196.949 112.351 190.824 116 183L89 208L37 260M52 260C59.7021 258.711 66.0515 248.962 71.4861 243.759C86.1108 229.759 100.486 215.287 114.514 200.689C119.501 195.499 127.77 189.941 130 183C121.048 186.624 113.811 197.214 106.95 203.87C89.3569 220.934 65.1691 239.381 52 260z"/>
<path style="fill:#fef498; stroke:none;" d="M229 186L232 183L229 186z"/>
<path style="fill:#f6e331; stroke:none;" d="M256 183L209.086 229.83L180 260C188.358 258.601 196.476 246.791 202.329 241.001C220.52 223.007 243.276 204.902 258 184L256 183M278 259L278 260C286.663 259.318 294.175 247.825 300 242L339 203C345.051 196.949 353.351 190.824 357 183C347.72 187.327 341.084 196.901 333.961 204C316.148 221.753 298.521 244.545 278 259z"/>
<path style="fill:#fffdbd; stroke:none;" d="M283 260L322 222L360 183L340 201L304 237L283 260M42 260L43 260C65.9942 233.635 97.8415 212.617 118 184L98 202L61 239L42 260z"/>
<path style="fill:#fef172; stroke:none;" d="M208 188L212 184L208 188z"/>
<path style="fill:#f6e331; stroke:none;" d="M241 184L191.004 233.985L166 260C172.979 258.825 179.183 249.817 184 245L226 203C230.211 198.789 242.296 190.464 241 184z"/>
<path style="fill:#fffdbd; stroke:none;" d="M248 196L260 184L248 196z"/>
<path style="fill:#fef498; stroke:none;" d="M317 192L325 184L317 192z"/>
<path style="fill:#fffdbd; stroke:none;" d="M399 184L396 189L399 184M170 260L171 260C193.692 233.982 225.106 213.242 245 185L225 203L189 239L170 260z"/>
<path style="fill:#fef172; stroke:none;" d="M263 190L268 185L263 190z"/>
<path style="fill:#fef498; stroke:none;" d="M333 190L338 185L333 190z"/>
<path style="fill:#fffdbd; stroke:none;" d="M0 202L17 186C10.6454 188.948 3.40767 195.837 0 202M19 198L31 186L19 198M33 198L45 186L33 198M56 189L59 186L56 189z"/>
<path style="fill:#fef498; stroke:none;" d="M13 260L50 224L87 186L65 206L30 241L13 260z"/>
<path style="fill:#fffdbd; stroke:none;" d="M28 260L52.2855 236.421L102 186L79.8449 206L47.8449 238L28 260M122 194L130 186L122 194M176 197L187 186L176 197z"/>
<path style="fill:#fef498; stroke:none;" d="M208 193L215 186L208 193M225 190L229 186L225 190z"/>
<path style="fill:#fffdbd; stroke:none;" d="M368 189L371 186L368 189z"/>
<path style="fill:#fef498; stroke:none;" d="M392 207L413 186C405.338 189.573 395.573 199.338 392 207M149 190L152 187L149 190M277 190L280 187L277 190z"/>
<path style="fill:#fffdbd; stroke:none;" d="M381 190L384 187L381 190z"/>
<path style="fill:#fef172; stroke:none;" d="M162 192L166 188L162 192M206 188L206 190L208 188L206 188z"/>
<path style="fill:#fffdbd; stroke:none;" d="M258 200L270 188L258 200z"/>
<path style="fill:#fef498; stroke:none;" d="M336 192L340 188L336 192z"/>
<path style="fill:#fef172; stroke:none;" d="M402 192L406 188L402 192z"/>
<path style="fill:#fffdbd; stroke:none;" d="M53 192L56 189L53 192M99 260L135 225L170 189L152 205L118 239L99 260M365 192L368 189L365 192z"/>
<path style="fill:#fef498; stroke:none;" d="M420 193L424 189L420 193M430 192L433 189L430 192z"/>
<path style="fill:#f6e331; stroke:none;" d="M433 189L383.826 237.961L364 260C370.895 258.844 376.502 250.067 381.285 245.285C394.026 232.543 407.127 220.103 419.576 207.075C423.602 202.861 435.439 195.447 433 189z"/>
<path style="fill:#fef172; stroke:none;" d="M131 194L135 190L131 194M204 190L204 192L206 190L204 190z"/>
<path style="fill:#fef498; stroke:none;" d="M330 193L333 190L330 193z"/>
<path style="fill:#fffdbd; stroke:none;" d="M375 196L381 190L375 196z"/>
<path style="fill:#fef172; stroke:none;" d="M388 190L388 192L390 190L388 190z"/>
<path style="fill:#fffdbd; stroke:none;" d="M325 260L361 225L395 190L377 206L344 239L325 260z"/>
<path style="fill:#fef172; stroke:none;" d="M416 190L416 192L418 190L416 190z"/>
<path style="fill:#fffdbd; stroke:none;" d="M130 200L138 192L130 200M181 206L195 192C189.198 194.706 183.706 200.198 181 206z"/>
<path style="fill:#fef498; stroke:none;" d="M256 197L261 192L256 197M320 192L320 194L322 192L320 192z"/>
<path style="fill:#fffdbd; stroke:none;" d="M357 200L365 192L357 200z"/>
<path style="fill:#fef172; stroke:none;" d="M414 192L414 194L416 192L414 192M428 192L412 210L430 192L428 192z"/>
<path style="fill:#fef498; stroke:none;" d="M195 206L208 193C202.488 195.57 197.57 200.488 195 206M218 197L222 193L218 197M413 200L420 193L413 200z"/>
<path style="fill:#fffdbd; stroke:none;" d="M48 197L51 194L48 197z"/>
<path style="fill:#fef498; stroke:none;" d="M128 197L131 194L128 197z"/>
<path style="fill:#fef172; stroke:none;" d="M307 202L315 194L307 202z"/>
<path style="fill:#fef498; stroke:none;" d="M316 198L320 194L316 198M327 194L327 196L329 194L327 194z"/>
<path style="fill:#fef172; stroke:none;" d="M396 198L400 194L396 198z"/>
<path style="fill:#fffefb; stroke:none;" d="M433 194L393.925 233.925L369 260L377 260C379.986 253.521 386.967 248.499 392 243.526C401.728 233.914 411.398 224.212 421 214.474C426.473 208.923 436.701 202.821 433 194z"/>
<path style="fill:#fef172; stroke:none;" d="M139 200L144 195L139 200M267 200L272 195L267 200z"/>
<path style="fill:#fffdbd; stroke:none;" d="M114 202L120 196L114 202z"/>
<path style="fill:#fef172; stroke:none;" d="M212 196L212 198L214 196L212 196z"/>
<path style="fill:#fffdbd; stroke:none;" d="M242 202L248 196L242 202z"/>
<path style="fill:#fef498; stroke:none;" d="M319 204L327 196L319 204z"/>
<path style="fill:#fef172; stroke:none;" d="M326 211L342 196C335.992 198.432 329.032 205.319 326 211z"/>
<path style="fill:#fffdbd; stroke:none;" d="M429 196L385.834 240L368 260L406.285 222.285L431 196L429 196M37 208L48 197L37 208M5 212L19 198C13.1979 200.706 7.70573 206.198 5 212z"/>
<path style="fill:#fef498; stroke:none;" d="M54 198L54 200L56 198L54 198z"/>
<path style="fill:#fffdbd; stroke:none;" d="M53 206L61 198L53 206M160 213L175 198C168.916 200.837 162.837 206.916 160 213z"/>
<path style="fill:#fef172; stroke:none;" d="M210 198L210 200L212 198L210 198z"/>
<path style="fill:#fef498; stroke:none;" d="M214 201L217 198L214 201z"/>
<path style="fill:#fef172; stroke:none;" d="M294 201L297 198L294 201z"/>
<path style="fill:#fef498; stroke:none;" d="M328 198L328 200L330 198L328 198z"/>
<path style="fill:#fef172; stroke:none;" d="M366 198L366 200L368 198L366 198z"/>
<path style="fill:#fffdbd; stroke:none;" d="M367 204L372 199L367 204z"/>
<path style="fill:#fef172; stroke:none;" d="M208 200L208 202L210 200L208 200z"/>
<path style="fill:#fef498; stroke:none;" d="M298 200L298 202L300 200L298 200M308 206L314 200L308 206M326 200L326 202L328 200L326 200z"/>
<path style="fill:#fffdbd; stroke:none;" d="M404 209L414 200L404 209M27 204L30 201L27 204z"/>
<path style="fill:#fef498; stroke:none;" d="M209 206L214 201L209 206M296 202L296 204L298 202L296 202z"/>
<path style="fill:#fef172; stroke:none;" d="M346 206L350 202L346 206z"/>
<path style="fill:#fffdbd; stroke:none;" d="M341 216L355 202C349.198 204.706 343.706 210.198 341 216z"/>
<path style="fill:#fef172; stroke:none;" d="M131 208L136 203L131 208M259 208L264 203L259 208z"/>
<path style="fill:#fef498; stroke:none;" d="M428 208L434 204L428 208z"/>
<path style="fill:#fef172; stroke:none;" d="M18 208L22 204L18 208z"/>
<path style="fill:#fffdbd; stroke:none;" d="M17 214L27 204L17 214z"/>
<path style="fill:#fef172; stroke:none;" d="M372 208L376 204L372 208z"/>
<path style="fill:#f6e331; stroke:none;" d="M433 204L393.729 242.83L378 260C383.994 259.122 388.113 253.093 392.255 249C402.182 239.19 411.706 228.951 421.816 219.325C425.417 215.896 434.784 209.359 433 204z"/>
<path style="fill:#fef172; stroke:none;" d="M0 210L5 206L0 210z"/>
<path style="fill:#fffdbd; stroke:none;" d="M46 213L53 206L46 213z"/>
<path style="fill:#fef498; stroke:none;" d="M192 209L195 206L192 209z"/>
<path style="fill:#fef172; stroke:none;" d="M358 206L358 208L360 206L358 206M400 206L400 208L402 206L400 206z"/>
<path style="fill:#fffdbd; stroke:none;" d="M32 213L37 208L32 213z"/>
<path style="fill:#fef498; stroke:none;" d="M112 213L117 208L112 213z"/>
<path style="fill:#fffdbd; stroke:none;" d="M165 222L179 208C173.198 210.706 167.706 216.198 165 222z"/>
<path style="fill:#fef172; stroke:none;" d="M200 208L200 210L202 208L200 208z"/>
<path style="fill:#fef498; stroke:none;" d="M240 213L245 208L240 213z"/>
<path style="fill:#fef172; stroke:none;" d="M398 208L398 210L400 208L398 208M426 208L422 214L428 208L426 208z"/>
<path style="fill:#fffdbd; stroke:none;" d="M426 216L434 208L426 216z"/>
<path style="fill:#fef498; stroke:none;" d="M179 222L192 209C186.488 211.57 181.57 216.488 179 222M201 214L206 209L201 214M397 216L404 209L397 216z"/>
<path style="fill:#fffefb; stroke:none;" d="M433 209C416.832 225.002 394.706 241.255 382 260C397.479 259.945 414.052 235.597 424.343 225.039C428.93 220.334 436.113 216.431 433 209z"/>
<path style="fill:#fffdbd; stroke:none;" d="M114 216L120 210L114 216z"/>
<path style="fill:#fef172; stroke:none;" d="M198 210L198 212L200 210L198 210z"/>
<path style="fill:#fffdbd; stroke:none;" d="M242 216L248 210L242 216z"/>
<path style="fill:#fef172; stroke:none;" d="M291 218L299 210L291 218z"/>
<path style="fill:#fef498; stroke:none;" d="M386 213L389 210L386 213z"/>
<path style="fill:#fef172; stroke:none;" d="M123 216L128 211L123 216M251 216L256 211L251 216z"/>
<path style="fill:#fef498; stroke:none;" d="M303 220L312 211L303 220z"/>
<path style="fill:#fffdbd; stroke:none;" d="M0 216L5 212L0 216M98 218L104 212L98 218z"/>
<path style="fill:#fef172; stroke:none;" d="M196 212L196 214L198 212L196 212z"/>
<path style="fill:#fffdbd; stroke:none;" d="M226 218L232 212L226 218z"/>
<path style="fill:#fef172; stroke:none;" d="M310 227L326 212C319.992 214.432 313.032 221.319 310 227z"/>
<path style="fill:#fffdbd; stroke:none;" d="M21 224L32 213L21 224z"/>
<path style="fill:#fef498; stroke:none;" d="M38 214L38 216L40 214L38 214z"/>
<path style="fill:#fffdbd; stroke:none;" d="M37 222L45 214L37 222M144 229L159 214C152.916 216.837 146.837 222.916 144 229z"/>
<path style="fill:#fef172; stroke:none;" d="M194 214L194 216L196 214L194 214z"/>
<path style="fill:#fef498; stroke:none;" d="M198 217L201 214L198 217z"/>
<path style="fill:#fef172; stroke:none;" d="M278 217L281 214L278 217z"/>
<path style="fill:#fef498; stroke:none;" d="M312 214L312 216L314 214L312 214z"/>
<path style="fill:#fef172; stroke:none;" d="M350 214L350 216L352 214L350 214M420 214L416 220L422 214L420 214z"/>
<path style="fill:#fffdbd; stroke:none;" d="M351 220L356 215L351 220z"/>
<path style="fill:#fef498; stroke:none;" d="M376 223L384 215L376 223z"/>
<path style="fill:#fef172; stroke:none;" d="M192 216L192 218L194 216L192 216z"/>
<path style="fill:#fef498; stroke:none;" d="M282 216L282 218L284 216L282 216M292 222L298 216L292 222M310 216L310 218L312 216L310 216z"/>
<path style="fill:#fffdbd; stroke:none;" d="M388 225L398 216L388 225z"/>
<path style="fill:#fef498; stroke:none;" d="M193 222L198 217L193 222z"/>
<path style="fill:#fef172; stroke:none;" d="M426 224L434 218C430.211 217.459 427.708 220.915 426 224z"/>
<path style="fill:#fef498; stroke:none;" d="M280 218L280 220L282 218L280 218z"/>
<path style="fill:#fef172; stroke:none;" d="M330 222L334 218L330 222z"/>
<path style="fill:#fffdbd; stroke:none;" d="M325 232L339 218C333.198 220.706 327.706 226.198 325 232M410 232L424 218C418.198 220.706 412.706 226.198 410 232z"/>
<path style="fill:#f6e331; stroke:none;" d="M433 218C419.663 230.086 400.034 243.488 392 260C403.555 258.098 417.479 237.834 425.657 229.657C428.701 226.613 434.632 222.704 433 218z"/>
<path style="fill:#fef172; stroke:none;" d="M115 224L120 219L115 224M243 224L248 219L243 224M2 224L6 220L2 224z"/>
<path style="fill:#fffdbd; stroke:none;" d="M0 230L11 220L0 230z"/>
<path style="fill:#fef172; stroke:none;" d="M356 224L360 220L356 224z"/>
<path style="fill:#fef498; stroke:none;" d="M396 226L402 220L396 226M414 220L414 222L416 220L414 220z"/>
<path style="fill:#fffdbd; stroke:none;" d="M30 229L37 222L30 229z"/>
<path style="fill:#fef498; stroke:none;" d="M176 225L179 222L176 225z"/>
<path style="fill:#fef172; stroke:none;" d="M342 222L342 224L344 222L342 222M384 222L384 224L386 222L384 222z"/>
<path style="fill:#fef498; stroke:none;" d="M412 222L412 224L414 222L412 222z"/>
<path style="fill:#fffefb; stroke:none;" d="M432 222L396 260C411.137 259.988 433.998 236.834 434 222L432 222z"/>
<path style="fill:#fffdbd; stroke:none;" d="M5 240L21 224C14.6406 226.966 7.96561 233.641 5 240z"/>
<path style="fill:#fef498; stroke:none;" d="M96 229L101 224L96 229z"/>
<path style="fill:#fffdbd; stroke:none;" d="M149 238L163 224C157.198 226.706 151.706 232.198 149 238z"/>
<path style="fill:#fef172; stroke:none;" d="M184 224L184 226L186 224L184 224z"/>
<path style="fill:#fef498; stroke:none;" d="M224 229L229 224L224 229z"/>
<path style="fill:#fef172; stroke:none;" d="M382 224L382 226L384 224L382 224M410 224L406 230L412 224L410 224z"/>
<path style="fill:#fef498; stroke:none;" d="M163 238L176 225C170.488 227.57 165.57 232.488 163 238M185 230L190 225L185 230M381 232L388 225L381 232z"/>
<path style="fill:#fffdbd; stroke:none;" d="M98 232L104 226L98 232z"/>
<path style="fill:#fef172; stroke:none;" d="M182 226L182 228L184 226L182 226z"/>
<path style="fill:#fffdbd; stroke:none;" d="M226 232L232 226L226 232z"/>
<path style="fill:#fef172; stroke:none;" d="M275 234L283 226L275 234z"/>
<path style="fill:#fef498; stroke:none;" d="M370 229L373 226L370 229z"/>
<path style="fill:#fef172; stroke:none;" d="M10 230L13 227L10 230M107 232L112 227L107 232M235 232L240 227L235 232z"/>
<path style="fill:#fef498; stroke:none;" d="M287 236L296 227L287 236z"/>
<path style="fill:#fffdbd; stroke:none;" d="M82 234L88 228L82 234z"/>
<path style="fill:#fef172; stroke:none;" d="M180 228L180 230L182 228L180 228z"/>
<path style="fill:#fffdbd; stroke:none;" d="M210 234L216 228L210 234z"/>
<path style="fill:#fef172; stroke:none;" d="M294 243L310 228C303.992 230.432 297.032 237.319 294 243z"/>
<path style="fill:#fef498; stroke:none;" d="M22 230L22 232L24 230L22 230z"/>
<path style="fill:#fffdbd; stroke:none;" d="M21 238L29 230L21 238M128 245L143 230C136.916 232.837 130.837 238.916 128 245z"/>
<path style="fill:#fef172; stroke:none;" d="M178 230L178 232L180 230L178 230z"/>
<path style="fill:#fef498; stroke:none;" d="M182 233L185 230L182 233z"/>
<path style="fill:#fef172; stroke:none;" d="M262 233L265 230L262 233z"/>
<path style="fill:#fef498; stroke:none;" d="M296 230L296 232L298 230L296 230z"/>
<path style="fill:#fef172; stroke:none;" d="M334 230L334 232L336 230L334 230M404 230L400 236L406 230L404 230z"/>
<path style="fill:#fffdbd; stroke:none;" d="M335 236L340 231L335 236z"/>
<path style="fill:#fef498; stroke:none;" d="M360 239L368 231L360 239z"/>
<path style="fill:#fef172; stroke:none;" d="M176 232L176 234L178 232L176 232z"/>
<path style="fill:#fef498; stroke:none;" d="M266 232L266 234L268 232L266 232M276 238L282 232L276 238M294 232L294 234L296 232L294 232z"/>
<path style="fill:#f6e331; stroke:none;" d="M433 232C423.279 238.937 411.981 249.61 406 260C414.447 258.769 422.485 246.853 428.333 241C430.959 238.372 434.366 235.936 433 232z"/>
<path style="fill:#fef498; stroke:none;" d="M177 238L182 233L177 238M264 234L264 236L266 234L264 234z"/>
<path style="fill:#fef172; stroke:none;" d="M314 238L318 234L314 238z"/>
<path style="fill:#fffdbd; stroke:none;" d="M309 248L323 234C317.198 236.706 311.706 242.198 309 248M394 248L408 234C402.198 236.706 396.706 242.198 394 248z"/>
<path style="fill:#fef172; stroke:none;" d="M414 234L410 240L416 234L414 234M99 240L104 235L99 240M227 240L232 235L227 240M340 240L344 236L340 240z"/>
<path style="fill:#fef498; stroke:none;" d="M380 242L386 236L380 242M398 236L398 238L400 236L398 236z"/>
<path style="fill:#fffefb; stroke:none;" d="M432 236L410 260C422.46 259.999 423.855 250.936 434 246L434 236L432 236z"/>
<path style="fill:#fffdbd; stroke:none;" d="M13 246L21 238L13 246z"/>
<path style="fill:#fef498; stroke:none;" d="M160 241L163 238L160 241z"/>
<path style="fill:#fef172; stroke:none;" d="M326 238L326 240L328 238L326 238M368 238L368 240L370 238L368 238z"/>
<path style="fill:#fef498; stroke:none;" d="M396 238L396 240L398 238L396 238z"/>
<path style="fill:#fffdbd; stroke:none;" d="M0 244L5 240L0 244z"/>
<path style="fill:#fef498; stroke:none;" d="M80 245L85 240L80 245z"/>
<path style="fill:#fffdbd; stroke:none;" d="M133 254L147 240C141.198 242.706 135.706 248.198 133 254z"/>
<path style="fill:#fef172; stroke:none;" d="M168 240L168 242L170 240L168 240z"/>
<path style="fill:#fef498; stroke:none;" d="M208 245L213 240L208 245z"/>
<path style="fill:#fef172; stroke:none;" d="M366 240L366 242L368 240L366 240M394 240L390 246L396 240L394 240z"/>
<path style="fill:#fef498; stroke:none;" d="M147 254L160 241C154.488 243.57 149.57 248.488 147 254M169 246L174 241L169 246M365 248L372 241L365 248z"/>
<path style="fill:#fffdbd; stroke:none;" d="M82 248L88 242L82 248z"/>
<path style="fill:#fef172; stroke:none;" d="M166 242L166 244L168 242L166 242z"/>
<path style="fill:#fffdbd; stroke:none;" d="M210 248L216 242L210 248z"/>
<path style="fill:#fef172; stroke:none;" d="M259 250L267 242L259 250z"/>
<path style="fill:#fef498; stroke:none;" d="M354 245L357 242L354 245z"/>
<path style="fill:#fef172; stroke:none;" d="M91 248L96 243L91 248M219 248L224 243L219 248z"/>
<path style="fill:#fef498; stroke:none;" d="M271 252L280 243L271 252z"/>
<path style="fill:#fffdbd; stroke:none;" d="M66 250L72 244L66 250z"/>
<path style="fill:#fef172; stroke:none;" d="M164 244L164 246L166 244L164 244z"/>
<path style="fill:#fffdbd; stroke:none;" d="M194 250L200 244L194 250z"/>
<path style="fill:#fef172; stroke:none;" d="M279 259L294 244C287.838 246.494 281.781 253.037 279 259z"/>
<path style="fill:#fef498; stroke:none;" d="M6 246L6 248L8 246L6 246z"/>
<path style="fill:#fffdbd; stroke:none;" d="M0 258L13 246L0 258M113 260L127 246C121.198 248.706 115.706 254.198 113 260z"/>
<path style="fill:#fef172; stroke:none;" d="M162 246L162 248L164 246L162 246z"/>
<path style="fill:#fef498; stroke:none;" d="M166 249L169 246L166 249z"/>
<path style="fill:#fef172; stroke:none;" d="M246 249L249 246L246 249z"/>
<path style="fill:#fef498; stroke:none;" d="M280 246L280 248L282 246L280 246z"/>
<path style="fill:#fef172; stroke:none;" d="M318 246L318 248L320 246L318 246M388 246L384 252L390 246L388 246z"/>
<path style="fill:#fef498; stroke:none;" d="M429 250L433 246L429 250z"/>
<path style="fill:#f6e331; stroke:none;" d="M433 246L420 260C425.081 259.26 434.989 251.731 433 246z"/>
<path style="fill:#fffdbd; stroke:none;" d="M319 252L324 247L319 252z"/>
<path style="fill:#fef498; stroke:none;" d="M344 255L352 247L344 255z"/>
<path style="fill:#fef172; stroke:none;" d="M160 248L160 250L162 248L160 248z"/>
<path style="fill:#fef498; stroke:none;" d="M250 248L250 250L252 248L250 248M260 254L266 248L260 254M278 248L278 250L280 248L278 248M161 254L166 249L161 254M248 250L248 252L250 250L248 250z"/>
<path style="fill:#fef172; stroke:none;" d="M298 254L302 250L298 254z"/>
<path style="fill:#fffdbd; stroke:none;" d="M297 260L307 250L297 260M384 258L392 250L384 258z"/>
<path style="fill:#fef172; stroke:none;" d="M398 250L394 256L400 250L398 250z"/>
<path style="fill:#fffefb; stroke:none;" d="M432 250L424 260L434 260L434 250L432 250z"/>
<path style="fill:#fef172; stroke:none;" d="M83 256L88 251L83 256M211 256L216 251L211 256M324 256L328 252L324 256z"/>
<path style="fill:#fef498; stroke:none;" d="M364 258L370 252L364 258M382 252L382 254L384 252L382 252M355 258L360 253L355 258z"/>
<path style="fill:#fef172; stroke:none;" d="M422 257L426 253L422 257z"/>
<path style="fill:#fffdbd; stroke:none;" d="M56 260L62 254L56 260z"/>
<path style="fill:#fef498; stroke:none;" d="M144 257L147 254L144 257z"/>
<path style="fill:#fffdbd; stroke:none;" d="M184 260L190 254L184 260z"/>
<path style="fill:#fef498; stroke:none;" d="M264 259L269 254L264 259z"/>
<path style="fill:#fef172; stroke:none;" d="M352 254L352 256L354 254L352 254z"/>
<path style="fill:#fef498; stroke:none;" d="M380 254L380 256L382 254L380 254z"/>
<path style="fill:#fef172; stroke:none;" d="M65 260L69 256L65 260z"/>
<path style="fill:#fffdbd; stroke:none;" d="M128 259L131 256L128 259z"/>
<path style="fill:#fef172; stroke:none;" d="M193 260L197 256L193 260z"/>
<path style="fill:#fffdbd; stroke:none;" d="M212 260L216 256L212 260z"/>
<path style="fill:#fef498; stroke:none;" d="M221 260L225 256L221 260z"/>
<path style="fill:#fffdbd; stroke:none;" d="M311 260L315 256L311 260z"/>
<path style="fill:#fef172; stroke:none;" d="M334 260L338 256L334 260M348 260L352 256L348 260z"/>
<path style="fill:#fef498; stroke:none;" d="M378 256L377 260L378 260L380 256L378 256M390 260L394 256L390 260M405 260L408 257L405 260M84 258L84 260L86 258L84 258M141 258L141 260L143 258L141 258z"/>
<path style="fill:#fef172; stroke:none;" d="M254 258L254 260L256 260L256 258L254 258z"/>
<path style="fill:#fffdbd; stroke:none;" d="M362 258L362 260L364 260L364 258L362 258z"/>
</svg>
