<?xml version="1.0" encoding="UTF-8"?>
<svg xmlns="http://www.w3.org/2000/svg" xmlns:xlink="http://www.w3.org/1999/xlink" width="26pt" height="26pt" viewBox="0 0 26 26" version="1.1">
<g id="surface1">
<path style=" stroke:none;fill-rule:nonzero;fill:rgb(100%,0%,0%);fill-opacity:1;" d="M 25.976562 4.722656 L 20.683594 4.722656 C 20 3.546875 17.898438 3.824219 17.351562 4.410156 C 17.132812 4.648438 16.632812 4.949219 15.660156 4.949219 L 15.617188 4.949219 L 16.386719 24.90625 C 16.386719 24.941406 16.386719 24.972656 16.386719 25.003906 C 16.34375 25.914062 15.246094 26 14.597656 26 L 12.824219 26 C 12.15625 26 11.011719 25.910156 11.039062 24.90625 L 11.597656 4.949219 C 10.746094 4.941406 9.90625 4.757812 9.324219 4.300781 C 8.027344 3.269531 5.375 3.574219 2.949219 4.410156 L 0 5.425781 C 3.136719 1.804688 6.695312 1.613281 8.601562 1.527344 C 9.078125 1.507812 9.425781 1.445312 9.683594 1.023438 C 10.0625 0.410156 11.160156 0.34375 11.726562 0.34375 L 11.738281 0 L 15.429688 0 L 15.445312 0.34375 C 17.0625 0.34375 17.246094 0.707031 17.546875 1.058594 C 18.285156 1.925781 20.890625 1.4375 20.554688 0.609375 L 25.976562 0.609375 Z M 25.976562 4.722656 "/>
</g>
</svg>
