<?xml version="1.0" encoding="UTF-8"?>
<svg xmlns="http://www.w3.org/2000/svg" xmlns:xlink="http://www.w3.org/1999/xlink" width="26pt" height="26pt" viewBox="0 0 26 26" version="1.1">
<g id="surface1">
<path style=" stroke:none;fill-rule:evenodd;fill:rgb(97.254902%,67.843137%,19.607843%);fill-opacity:1;" d="M 26.199219 17.023438 C 26.199219 12.0625 20.335938 8.042969 13.101562 8.042969 C 5.863281 8.042969 0 12.0625 0 17.023438 C 0 21.980469 5.863281 26 13.101562 26 C 20.335938 26 26.199219 21.980469 26.199219 17.023438 Z M 26.199219 17.023438 "/>
<path style=" stroke:none;fill-rule:evenodd;fill:rgb(27.843137%,62.352941%,0%);fill-opacity:1;" d="M 24.003906 2.078125 C 18.242188 2.078125 13.570312 5.367188 13.570312 9.421875 C 13.574219 9.503906 13.578125 9.589844 13.582031 9.671875 C 13.8125 9.6875 14.046875 9.695312 14.277344 9.695312 C 20.039062 9.695312 24.710938 6.410156 24.710938 2.355469 C 24.707031 2.269531 24.703125 2.1875 24.695312 2.105469 C 24.464844 2.089844 24.234375 2.082031 24.003906 2.078125 Z M 24.003906 2.078125 "/>
<path style=" stroke:none;fill-rule:evenodd;fill:rgb(27.843137%,62.352941%,0%);fill-opacity:1;" d="M 4.460938 3.84375 C 8.886719 3.84375 12.472656 6.371094 12.472656 9.484375 C 12.46875 9.550781 12.46875 9.613281 12.460938 9.679688 C 12.285156 9.6875 12.109375 9.695312 11.929688 9.695312 C 7.503906 9.695312 3.917969 7.171875 3.917969 4.058594 C 3.917969 3.992188 3.921875 3.929688 3.925781 3.863281 C 4.105469 3.855469 4.28125 3.847656 4.460938 3.84375 Z M 4.460938 3.84375 "/>
<path style="fill:none;stroke-width:1.834483;stroke-linecap:round;stroke-linejoin:round;stroke:rgb(60.392157%,14.117647%,0%);stroke-opacity:1;stroke-miterlimit:4;" d="M 15.466046 35.859375 C 15.231972 34.21244 13.816106 32.979266 12.149039 32.979266 C 10.481971 32.979266 9.066106 34.204327 8.826322 35.859375 " transform="matrix(0.684211,0,0,0.481481,0,0.000000725293)"/>
<path style="fill:none;stroke-width:1.834483;stroke-linecap:round;stroke-linejoin:round;stroke:rgb(60.392157%,14.117647%,0%);stroke-opacity:1;stroke-miterlimit:4;" d="M 29.402044 35.859375 C 29.162261 34.21244 27.746395 32.979266 26.079328 32.979266 C 24.41226 32.979266 22.996395 34.204327 22.756611 35.859375 " transform="matrix(0.684211,0,0,0.481481,0,0.000000725293)"/>
<path style=" stroke:none;fill-rule:evenodd;fill:rgb(100%,100%,100%);fill-opacity:1;" d="M 6.324219 20.480469 C 6.667969 22.664062 9.597656 24.328125 13.097656 24.332031 C 16.597656 24.332031 19.53125 22.664062 19.878906 20.480469 Z M 6.324219 20.480469 "/>
</g>
</svg>
