<?xml version="1.0" encoding="UTF-8"?>
<svg xmlns="http://www.w3.org/2000/svg" xmlns:xlink="http://www.w3.org/1999/xlink" width="26pt" height="26pt" viewBox="0 0 26 26" version="1.1">
<g id="surface1">
<path style=" stroke:none;fill-rule:nonzero;fill:rgb(23.529412%,52.941176%,22.745098%);fill-opacity:1;" d="M 0.984375 8.835938 C 1.042969 9.148438 0.90625 9.472656 0.675781 9.554688 C 0.445312 9.636719 0.210938 9.449219 0.148438 9.132812 C 0.0898438 8.816406 0.226562 8.496094 0.457031 8.414062 C 0.6875 8.332031 0.921875 8.519531 0.984375 8.835938 Z M 0.984375 8.835938 "/>
<path style=" stroke:none;fill-rule:nonzero;fill:rgb(100%,100%,100%);fill-opacity:1;" d="M 0.714844 9.046875 C 0.742188 9.199219 0.679688 9.347656 0.570312 9.386719 C 0.460938 9.425781 0.347656 9.339844 0.320312 9.191406 C 0.292969 9.039062 0.359375 8.890625 0.464844 8.851562 C 0.574219 8.8125 0.6875 8.898438 0.714844 9.046875 Z M 0.714844 9.046875 "/>
<path style="fill:none;stroke-width:0.295;stroke-linecap:butt;stroke-linejoin:miter;stroke:rgb(23.529412%,52.941176%,22.745098%);stroke-opacity:1;stroke-miterlimit:4;" d="M 4.375 76.324219 C 7.019231 77.765625 9.615385 79.242188 12.259615 80.683594 M 31.923077 66.234375 C 31.826923 67.21875 31.730769 68.203125 31.634615 69.222656 M 12.259615 80.683594 C 12.5 79.242188 12.740385 77.835938 13.942308 76.605469 C 15.192308 75.410156 17.403846 74.390625 20.528846 73.195312 C 23.653846 72 27.644231 70.628906 31.634615 69.222656 M 4.134615 76.535156 C 5.721154 75.65625 7.355769 74.777344 9.951923 73.546875 C 12.548077 72.316406 16.105769 70.699219 19.951923 69.398438 C 23.75 68.132812 27.836538 67.183594 31.923077 66.234375 " transform="matrix(0.08125,0,0,0.111111,0,0)"/>
<path style=" stroke:none;fill-rule:nonzero;fill:rgb(23.529412%,52.941176%,22.745098%);fill-opacity:1;" d="M 0.984375 8.832031 C 0.976562 8.792969 0.96875 8.769531 0.960938 8.746094 C 0.921875 8.628906 0.863281 8.539062 0.789062 8.476562 C 0.742188 8.4375 0.703125 8.417969 0.648438 8.40625 C 0.613281 8.394531 0.578125 8.390625 0.539062 8.394531 C 0.511719 8.394531 0.507812 8.394531 0.515625 8.390625 C 0.519531 8.390625 0.546875 8.367188 0.582031 8.347656 C 0.769531 8.210938 1.015625 8.054688 1.199219 7.949219 C 1.421875 7.820312 1.609375 7.730469 1.828125 7.640625 C 1.910156 7.609375 2.191406 7.507812 2.304688 7.472656 C 2.4375 7.429688 2.578125 7.382812 2.578125 7.382812 C 2.582031 7.382812 2.558594 7.671875 2.558594 7.675781 C 2.558594 7.675781 2.542969 7.683594 2.527344 7.691406 C 2.507812 7.703125 2.429688 7.738281 2.347656 7.777344 C 1.511719 8.179688 1.285156 8.3125 1.152344 8.46875 C 1.070312 8.5625 1.027344 8.667969 1 8.832031 L 0.992188 8.882812 Z M 0.984375 8.832031 "/>
<path style=" stroke:none;fill-rule:nonzero;fill:rgb(62.745098%,62.745098%,62.745098%);fill-opacity:1;" d="M 0.984375 8.835938 C 0.957031 8.679688 0.886719 8.554688 0.785156 8.472656 C 0.710938 8.414062 0.632812 8.386719 0.542969 8.390625 C 0.527344 8.394531 0.519531 8.394531 0.519531 8.390625 C 0.53125 8.382812 0.734375 8.242188 0.835938 8.175781 C 1.195312 7.941406 1.476562 7.789062 1.796875 7.65625 C 1.878906 7.621094 2.257812 7.488281 2.398438 7.441406 C 2.519531 7.402344 2.578125 7.386719 2.578125 7.386719 C 2.578125 7.386719 2.570312 7.507812 2.5625 7.613281 C 2.558594 7.648438 2.558594 7.675781 2.554688 7.675781 C 2.550781 7.679688 2.5 7.703125 2.324219 7.789062 C 1.507812 8.183594 1.28125 8.3125 1.148438 8.46875 C 1.070312 8.558594 1.027344 8.660156 1 8.820312 C 0.996094 8.847656 0.992188 8.871094 0.992188 8.871094 C 0.992188 8.871094 0.988281 8.855469 0.984375 8.835938 Z M 0.984375 8.835938 "/>
<path style=" stroke:none;fill-rule:nonzero;fill:rgb(23.529412%,52.941176%,22.745098%);fill-opacity:1;" d="M 0.988281 8.851562 C 0.988281 8.847656 0.984375 8.832031 0.980469 8.816406 C 0.972656 8.765625 0.945312 8.695312 0.921875 8.644531 C 0.886719 8.574219 0.839844 8.519531 0.785156 8.472656 C 0.707031 8.414062 0.640625 8.390625 0.550781 8.390625 C 0.535156 8.390625 0.523438 8.390625 0.527344 8.390625 C 0.527344 8.386719 0.53125 8.382812 0.539062 8.378906 C 0.546875 8.375 0.550781 8.371094 0.550781 8.367188 C 0.554688 8.367188 0.59375 8.339844 0.59375 8.335938 C 0.589844 8.335938 0.59375 8.335938 0.59375 8.335938 C 0.597656 8.335938 0.609375 8.328125 0.621094 8.320312 C 0.707031 8.261719 0.859375 8.160156 0.953125 8.101562 C 1.046875 8.042969 1.207031 7.945312 1.246094 7.925781 C 1.253906 7.921875 1.257812 7.917969 1.253906 7.917969 C 1.253906 7.917969 1.253906 7.917969 1.257812 7.914062 C 1.265625 7.914062 1.304688 7.894531 1.300781 7.894531 C 1.300781 7.890625 1.304688 7.890625 1.3125 7.890625 C 1.320312 7.886719 1.320312 7.886719 1.316406 7.882812 C 1.3125 7.882812 1.316406 7.882812 1.320312 7.882812 C 1.324219 7.882812 1.351562 7.867188 1.378906 7.855469 C 1.5 7.789062 1.699219 7.695312 1.777344 7.664062 C 1.792969 7.660156 1.792969 7.660156 1.785156 7.660156 C 1.765625 7.664062 2.304688 7.472656 2.394531 7.445312 C 2.535156 7.398438 2.570312 7.386719 2.574219 7.390625 C 2.578125 7.390625 2.574219 7.433594 2.5625 7.582031 C 2.558594 7.671875 2.558594 7.671875 2.546875 7.679688 C 2.539062 7.683594 2.492188 7.707031 2.292969 7.804688 C 1.484375 8.195312 1.277344 8.316406 1.144531 8.476562 C 1.074219 8.558594 1.03125 8.660156 1.003906 8.796875 C 1 8.816406 0.996094 8.839844 0.996094 8.847656 L 0.992188 8.863281 Z M 0.988281 8.851562 "/>
<path style="fill-rule:nonzero;fill:rgb(23.529412%,52.941176%,22.745098%);fill-opacity:1;stroke-width:0.338;stroke-linecap:butt;stroke-linejoin:miter;stroke:rgb(23.529412%,52.941176%,22.745098%);stroke-opacity:1;stroke-miterlimit:4;" d="M 275.961538 176.378906 C 275.913462 156.796875 275.721154 117.597656 275.576923 96.714844 C 275.480769 75.867188 275.336538 73.230469 274.182692 69.820312 C 273.076923 66.375 270.913462 62.121094 268.173077 58.324219 C 265.432692 54.527344 262.067308 51.222656 258.75 48.621094 C 255.432692 46.054688 252.163462 44.15625 249.086538 42.960938 C 246.009615 41.765625 243.076923 41.273438 240.096154 40.992188 C 237.115385 40.746094 234.038462 40.746094 227.451923 41.519531 C 220.865385 42.257812 210.721154 43.769531 191.778846 46.933594 C 172.836538 50.0625 145.048077 54.84375 130.288462 57.375 C 115.576923 59.871094 113.894231 60.117188 111.394231 60.363281 C 108.894231 60.609375 105.528846 60.820312 102.259615 60.996094 C 98.942308 61.136719 95.721154 61.242188 93.461538 61.136719 C 91.201923 61.03125 89.951923 60.75 88.125 60.363281 C 86.298077 59.976562 83.942308 59.449219 81.490385 58.5 C 78.990385 57.515625 76.346154 56.144531 74.230769 54.667969 C 72.067308 53.191406 70.432692 51.644531 69.086538 50.0625 C 67.692308 48.515625 66.586538 46.96875 65.528846 45 C 64.423077 43.066406 63.413462 40.710938 62.307692 38.320312 C 61.25 35.964844 60.144231 33.574219 59.230769 31.816406 C 58.365385 30.09375 57.740385 28.933594 56.826923 28.160156 C 55.913462 27.351562 54.711538 26.859375 48.076923 26.613281 C 41.490385 26.332031 29.471154 26.261719 23.269231 26.261719 C 17.115385 26.226562 16.730769 26.226562 16.538462 26.4375 C 16.394231 26.648438 16.394231 27.105469 16.394231 46.054688 C 16.394231 65.003906 16.442308 102.445312 16.442308 121.394531 C 16.442308 140.378906 16.394231 140.835938 16.586538 141.011719 C 16.778846 141.222656 17.163462 141.152344 22.067308 141.117188 C 26.971154 141.046875 36.394231 140.976562 41.586538 140.871094 C 46.778846 140.765625 47.644231 140.625 48.413462 140.34375 C 49.182692 140.097656 49.807692 139.746094 50.240385 138.867188 C 50.673077 138.023438 50.865385 136.617188 51.057692 135.140625 C 51.25 133.699219 51.442308 132.152344 51.826923 130.21875 C 52.211538 128.285156 52.788462 125.964844 53.461538 123.855469 C 54.134615 121.746094 54.951923 119.847656 55.961538 118.089844 C 57.019231 116.332031 58.269231 114.679688 59.423077 113.273438 C 60.576923 111.867188 61.634615 110.671875 62.788462 109.511719 C 63.942308 108.316406 65.192308 107.15625 66.394231 106.171875 C 67.548077 105.1875 68.701923 104.414062 69.759615 103.816406 C 70.817308 103.253906 71.778846 102.832031 72.980769 102.585938 C 74.134615 102.304688 75.480769 102.199219 94.567308 102.128906 C 113.701923 102.09375 150.625 102.058594 169.134615 102.058594 C 187.692308 102.058594 187.836538 102.058594 187.884615 102.058594 C 187.980769 102.058594 187.980769 102.058594 188.846154 102.128906 C 189.711538 102.234375 191.442308 102.375 193.028846 102.726562 C 194.615385 103.078125 196.105769 103.605469 197.307692 104.167969 C 198.509615 104.765625 199.519231 105.398438 200.240385 105.996094 C 200.961538 106.59375 201.490385 107.121094 202.067308 107.894531 C 202.644231 108.667969 203.269231 109.652344 203.75 110.847656 C 204.278846 112.042969 204.615385 113.414062 204.855769 115.03125 C 205.048077 116.683594 205.096154 118.546875 205.048077 120.234375 C 204.951923 121.921875 204.711538 123.433594 204.471154 124.804688 C 204.230769 126.210938 203.894231 127.476562 203.461538 129.09375 C 202.980769 130.710938 202.355769 132.679688 201.346154 135.246094 C 200.336538 137.847656 198.942308 141.046875 197.115385 144.808594 C 195.240385 148.605469 192.932692 152.894531 190.673077 156.726562 C 188.413462 160.558594 186.298077 163.933594 184.326923 166.816406 C 182.403846 169.734375 180.673077 172.195312 179.423077 174.09375 C 178.173077 175.992188 177.403846 177.328125 176.730769 178.523438 C 176.105769 179.753906 175.528846 180.878906 174.951923 182.214844 C 174.375 183.550781 173.75 185.097656 173.269231 186.679688 C 172.788462 188.296875 172.403846 189.914062 172.163462 191.285156 C 171.875 192.65625 171.778846 193.710938 171.730769 194.449219 C 171.682692 195.222656 171.682692 195.644531 171.682692 195.855469 C 171.730769 196.066406 171.730769 196.03125 188.701923 196.03125 C 205.673077 195.996094 240.480769 195.996094 257.788462 195.960938 C 275.096154 195.960938 275.384615 195.960938 275.625 195.960938 C 275.817308 195.960938 275.961538 195.960938 276.009615 195.960938 C 276.057692 195.960938 276.057692 195.960938 275.961538 176.378906 Z M 275.961538 176.378906 " transform="matrix(0.08125,0,0,0.111111,0,0)"/>
<path style=" stroke:none;fill-rule:nonzero;fill:rgb(23.529412%,52.941176%,22.745098%);fill-opacity:1;" d="M 22.371094 9.734375 L 23.160156 9.734375 L 23.160156 12.03125 L 22.371094 12.03125 Z M 22.371094 9.734375 "/>
<path style=" stroke:none;fill-rule:nonzero;fill:rgb(23.529412%,52.941176%,22.745098%);fill-opacity:1;" d="M 24.800781 7.34375 C 23.808594 7.445312 23.03125 9 23.03125 10.882812 C 23.035156 12.765625 23.808594 14.320312 24.800781 14.421875 Z M 24.800781 7.34375 "/>
<path style="fill-rule:nonzero;fill:rgb(23.529412%,52.941176%,22.745098%);fill-opacity:1;stroke-width:6.903;stroke-linecap:round;stroke-linejoin:round;stroke:rgb(23.529412%,52.941176%,22.745098%);stroke-opacity:1;stroke-miterlimit:4;" d="M 308.605769 49.429688 L 315.673077 49.429688 L 315.673077 146.460938 L 308.605769 146.460938 Z M 308.605769 49.429688 " transform="matrix(0.08125,0,0,0.111111,0,0)"/>
<path style="fill-rule:nonzero;fill:rgb(23.529412%,52.941176%,22.745098%);fill-opacity:1;stroke-width:1.774;stroke-linecap:butt;stroke-linejoin:round;stroke:rgb(23.529412%,52.941176%,22.745098%);stroke-opacity:1;stroke-miterlimit:4;" d="M 20.480769 197.226562 C 16.394231 197.648438 13.125 202.359375 12.740385 208.371094 L 12.740385 233.015625 L 297.932692 233.015625 L 297.932692 208.371094 C 297.548077 202.359375 294.278846 197.648438 290.192308 197.226562 Z M 20.480769 197.226562 " transform="matrix(0.08125,0,0,0.111111,0,0)"/>
<path style=" stroke:none;fill-rule:nonzero;fill:rgb(23.529412%,52.941176%,22.745098%);fill-opacity:1;" d="M 2.179688 15.644531 L 3.140625 15.644531 L 3.140625 17.636719 L 2.179688 17.636719 Z M 2.179688 15.644531 "/>
<path style=" stroke:none;fill-rule:nonzero;fill:rgb(23.529412%,52.941176%,22.745098%);fill-opacity:1;" d="M 2.5 16.945312 L 2.855469 16.945312 L 2.855469 20.476562 L 2.5 20.476562 Z M 2.5 16.945312 "/>
<path style=" stroke:none;fill-rule:nonzero;fill:rgb(23.529412%,52.941176%,22.745098%);fill-opacity:1;" d="M 2.492188 19.046875 L 2.386719 19.046875 L 2.386719 19.355469 L 2.492188 19.355469 Z M 2.492188 19.046875 "/>
<path style=" stroke:none;fill-rule:nonzero;fill:rgb(23.529412%,52.941176%,22.745098%);fill-opacity:1;" d="M 2.164062 18.726562 C 2.296875 18.738281 2.402344 18.949219 2.402344 19.199219 C 2.402344 19.453125 2.296875 19.660156 2.164062 19.675781 Z M 2.164062 18.726562 "/>
<path style="fill-rule:nonzero;fill:rgb(23.529412%,52.941176%,22.745098%);fill-opacity:1;stroke-width:0.927;stroke-linecap:round;stroke-linejoin:round;stroke:rgb(23.529412%,52.941176%,22.745098%);stroke-opacity:1;stroke-miterlimit:4;" d="M 26.201923 166.289062 L 25.240385 166.289062 L 25.240385 179.332031 L 26.201923 179.332031 Z M 26.201923 166.289062 " transform="matrix(0.08125,0,0,0.111111,0,0)"/>
<path style=" stroke:none;fill-rule:nonzero;fill:rgb(23.529412%,52.941176%,22.745098%);fill-opacity:1;" d="M 19.394531 0.160156 L 19.753906 0.160156 L 19.753906 5.160156 L 19.394531 5.160156 Z M 19.394531 0.160156 "/>
<path style=" stroke:none;fill-rule:nonzero;fill:rgb(23.529412%,52.941176%,22.745098%);fill-opacity:1;" d="M 17.980469 3.957031 L 21.167969 3.957031 L 21.167969 4.371094 L 17.980469 4.371094 Z M 17.980469 3.957031 "/>
<path style=" stroke:none;fill-rule:nonzero;fill:rgb(23.529412%,52.941176%,22.745098%);fill-opacity:1;" d="M 2.011719 1.015625 C 2.007812 1.066406 2.007812 1.113281 2.007812 1.164062 C 2.007812 2.203125 2.386719 3.046875 2.859375 3.046875 C 3.328125 3.046875 3.707031 2.203125 3.707031 1.164062 C 3.707031 1.113281 3.707031 1.066406 3.707031 1.015625 Z M 2.011719 1.015625 "/>
<path style="fill-rule:nonzero;fill:rgb(23.529412%,52.941176%,22.745098%);fill-opacity:1;stroke-width:3.069;stroke-linecap:round;stroke-linejoin:round;stroke:rgb(23.529412%,52.941176%,22.745098%);stroke-opacity:1;stroke-miterlimit:4;" d="M 14.134615 108.210938 L 21.153846 108.210938 L 21.153846 127.40625 L 14.134615 127.40625 Z M 14.134615 108.210938 " transform="matrix(0.08125,0,0,0.111111,0,0)"/>
<path style=" stroke:none;fill-rule:nonzero;fill:rgb(23.529412%,52.941176%,22.745098%);fill-opacity:1;" d="M 2.65625 20.476562 L 2.699219 20.476562 L 2.699219 20.925781 L 2.65625 20.925781 Z M 2.65625 20.476562 "/>
</g>
</svg>
