<?xml version="1.0" encoding="UTF-8"?>
<svg xmlns="http://www.w3.org/2000/svg" xmlns:xlink="http://www.w3.org/1999/xlink" width="26pt" height="26pt" viewBox="0 0 26 26" version="1.1">
<defs>
<filter id="alpha" filterUnits="objectBoundingBox" x="0%" y="0%" width="100%" height="100%">
  <feColorMatrix type="matrix" in="SourceGraphic" values="0 0 0 0 1 0 0 0 0 1 0 0 0 0 1 0 0 0 1 0"/>
</filter>
<mask id="mask0">
  <g filter="url(#alpha)">
<rect x="0" y="0" width="26" height="26" style="fill:rgb(0%,0%,0%);fill-opacity:0.2;stroke:none;"/>
  </g>
</mask>
<radialGradient id="radial0" gradientUnits="userSpaceOnUse" cx="24.812" cy="39.125" fx="24.812" fy="39.125" r="17.688" gradientTransform="matrix(0.406857,0,0,0.117411,9.230542,18.158719)">
<stop offset="0" style="stop-color:rgb(0%,0%,0%);stop-opacity:1;"/>
<stop offset="1" style="stop-color:rgb(0%,0%,0%);stop-opacity:0;"/>
</radialGradient>
<clipPath id="clip1">
  <rect x="0" y="0" width="26" height="26"/>
</clipPath>
<g id="surface5" clip-path="url(#clip1)">
<path style=" stroke:none;fill-rule:nonzero;fill:url(#radial0);" d="M 26.523438 22.753906 C 26.542969 23.5 25.175781 24.191406 22.941406 24.5625 C 20.703125 24.9375 17.945312 24.9375 15.710938 24.5625 C 13.476562 24.191406 12.109375 23.5 12.128906 22.753906 C 12.109375 22.007812 13.476562 21.316406 15.710938 20.941406 C 17.945312 20.566406 20.703125 20.566406 22.941406 20.941406 C 25.175781 21.316406 26.542969 22.007812 26.523438 22.753906 Z M 26.523438 22.753906 "/>
</g>
<mask id="mask1">
  <g filter="url(#alpha)">
<rect x="0" y="0" width="26" height="26" style="fill:rgb(0%,0%,0%);fill-opacity:0.313725;stroke:none;"/>
  </g>
</mask>
<radialGradient id="radial1" gradientUnits="userSpaceOnUse" cx="24.812" cy="39.125" fx="24.812" fy="39.125" r="17.688" gradientTransform="matrix(0.452871,0,0,0.139067,-4.31145,17.599138)">
<stop offset="0" style="stop-color:rgb(0%,0%,0%);stop-opacity:1;"/>
<stop offset="1" style="stop-color:rgb(0%,0%,0%);stop-opacity:0;"/>
</radialGradient>
<clipPath id="clip2">
  <rect x="0" y="0" width="26" height="26"/>
</clipPath>
<g id="surface8" clip-path="url(#clip2)">
<path style=" stroke:none;fill-rule:nonzero;fill:url(#radial1);" d="M 14.9375 23.039062 C 14.957031 23.921875 13.433594 24.742188 10.949219 25.1875 C 8.460938 25.628906 5.390625 25.628906 2.902344 25.1875 C 0.414062 24.742188 -1.105469 23.921875 -1.085938 23.039062 C -1.105469 22.15625 0.414062 21.339844 2.902344 20.894531 C 5.390625 20.449219 8.460938 20.449219 10.949219 20.894531 C 13.433594 21.339844 14.957031 22.15625 14.9375 23.039062 Z M 14.9375 23.039062 "/>
</g>
<linearGradient id="linear0" gradientUnits="userSpaceOnUse" x1="19.648" y1="42.254" x2="20.631" y2="6.7758" gradientTransform="matrix(0.87827,0,0,0.87827,2.537,4.9677)">
<stop offset="0" style="stop-color:rgb(71.372549%,71.372549%,71.372549%);stop-opacity:1;"/>
<stop offset="0.5" style="stop-color:rgb(94.901961%,94.901961%,94.901961%);stop-opacity:1;"/>
<stop offset="0.67613" style="stop-color:rgb(98.039216%,98.039216%,98.039216%);stop-opacity:1;"/>
<stop offset="0.84052" style="stop-color:rgb(84.705882%,84.705882%,84.705882%);stop-opacity:1;"/>
<stop offset="0.875" style="stop-color:rgb(94.901961%,94.901961%,94.901961%);stop-opacity:1;"/>
<stop offset="1" style="stop-color:rgb(85.882353%,85.882353%,85.882353%);stop-opacity:1;"/>
</linearGradient>
<mask id="mask2">
  <g filter="url(#alpha)">
<rect x="0" y="0" width="26" height="26" style="fill:rgb(0%,0%,0%);fill-opacity:0.427451;stroke:none;"/>
  </g>
</mask>
<clipPath id="clip3">
  <rect x="0" y="0" width="26" height="26"/>
</clipPath>
<g id="surface11" clip-path="url(#clip3)">
<path style="fill:none;stroke-width:1;stroke-linecap:butt;stroke-linejoin:miter;stroke:rgb(100%,100%,100%);stroke-opacity:1;stroke-miterlimit:4;" d="M 18.115385 19.939904 L 37.319712 39.966346 C 37.918269 40.651442 39.800481 41.170673 41.0625 39.966346 C 42.274038 38.805288 41.992788 37.161058 40.802885 35.971154 L 22.3125 16.348558 C 23.8125 9.850962 20.451923 6.346154 15.454327 6.475962 L 15.1875 6.742788 L 18.786058 9.980769 L 18.915865 14.163462 L 15.302885 17.459135 L 11.0625 17.004808 L 7.882212 14.012019 L 7.528846 14.444712 C 7.21875 20.408654 14.026442 23.127404 18.115385 19.939904 Z M 18.115385 19.939904 " transform="matrix(0.541667,0,0,0.541667,0,0)"/>
</g>
<mask id="mask3">
  <g filter="url(#alpha)">
<rect x="0" y="0" width="26" height="26" style="fill:rgb(0%,0%,0%);fill-opacity:0.168627;stroke:none;"/>
  </g>
</mask>
<linearGradient id="linear1" gradientUnits="userSpaceOnUse" x1="50.153" y1="-3.6324" x2="25.291" y2="-4.3003" gradientTransform="matrix(0.87827,-0.000000000000001443,0.000000000000001443,0.87827,5.3283,1.6502)">
<stop offset="0" style="stop-color:rgb(100%,100%,100%);stop-opacity:1;"/>
<stop offset="1" style="stop-color:rgb(0%,0%,0%);stop-opacity:1;"/>
</linearGradient>
<clipPath id="clip4">
  <rect x="0" y="0" width="26" height="26"/>
</clipPath>
<g id="surface14" clip-path="url(#clip4)">
<path style="fill:none;stroke-width:1;stroke-linecap:butt;stroke-linejoin:miter;stroke:url(#linear1);stroke-miterlimit:4;" d="M 29.065451 -2.618289 L 50.56598 -2.619856 C 51.055607 -2.615964 51.453411 -2.218208 51.454552 -1.733746 L 51.453197 -1.443043 C 51.454337 -0.958581 51.056581 -0.560777 50.566955 -0.564669 L 29.066426 -0.563102 C 28.581964 -0.561962 28.18416 -0.959718 28.183019 -1.444179 L 28.184374 -1.734883 C 28.188267 -2.224509 28.58099 -2.617149 29.065451 -2.618289 Z M 29.065451 -2.618289 " transform="matrix(0.378051,0.387918,-0.387918,0.378051,0,0)"/>
</g>
<linearGradient id="linear2" gradientUnits="userSpaceOnUse" x1="38.228" y1="13.603" x2="37.535" y2="6.6286" gradientTransform="matrix(0.87827,0,0,0.87827,2.8475,5.5887)">
<stop offset="0" style="stop-color:rgb(59.607843%,62.745098%,66.27451%);stop-opacity:1;"/>
<stop offset="1" style="stop-color:rgb(76.470588%,81.568627%,86.666667%);stop-opacity:1;"/>
</linearGradient>
<mask id="mask4">
  <g filter="url(#alpha)">
<rect x="0" y="0" width="26" height="26" style="fill:rgb(0%,0%,0%);fill-opacity:0.541176;stroke:none;"/>
  </g>
</mask>
<linearGradient id="linear3" gradientUnits="userSpaceOnUse" x1="31.177" y1="19.822" x2="40.859" y2="9.6569" >
<stop offset="0" style="stop-color:rgb(100%,100%,100%);stop-opacity:1;"/>
<stop offset="1" style="stop-color:rgb(100%,100%,100%);stop-opacity:0;"/>
</linearGradient>
<clipPath id="clip5">
  <rect x="0" y="0" width="26" height="26"/>
</clipPath>
<g id="surface17" clip-path="url(#clip5)">
<path style="fill:none;stroke-width:1;stroke-linecap:butt;stroke-linejoin:miter;stroke:url(#linear3);stroke-miterlimit:4;" d="M 22.399038 29.084135 C 23.048077 28.528846 35.423077 15.858173 35.423077 15.858173 L 38.358173 15.605769 L 42.569712 9.944712 L 39.677885 7.399038 L 34.204327 12.115385 L 34.355769 14.963942 L 21.685096 28.254808 C 21.216346 28.723558 21.807692 29.596154 22.399038 29.084135 Z M 22.399038 29.084135 " transform="matrix(0.541667,0,0,0.541667,0,0)"/>
</g>
<linearGradient id="linear4" gradientUnits="userSpaceOnUse" x1="9.7503" y1="32.284" x2="16.915" y2="39.443" gradientTransform="matrix(0.87827,0,0,0.87827,2.537,4.9677)">
<stop offset="0" style="stop-color:rgb(20.392157%,39.607843%,64.313725%);stop-opacity:1;"/>
<stop offset="0" style="stop-color:rgb(62.352941%,73.72549%,88.235294%);stop-opacity:1;"/>
<stop offset="0" style="stop-color:rgb(41.960784%,58.431373%,79.215686%);stop-opacity:1;"/>
<stop offset="0.75" style="stop-color:rgb(23.921569%,41.568627%,64.705882%);stop-opacity:1;"/>
<stop offset="1" style="stop-color:rgb(21.960784%,43.137255%,70.588235%);stop-opacity:1;"/>
</linearGradient>
<mask id="mask5">
  <g filter="url(#alpha)">
<rect x="0" y="0" width="26" height="26" style="fill:rgb(0%,0%,0%);fill-opacity:0.603922;stroke:none;"/>
  </g>
</mask>
<clipPath id="clip6">
  <rect x="0" y="0" width="26" height="26"/>
</clipPath>
<g id="surface20" clip-path="url(#clip6)">
<path style=" stroke:none;fill-rule:nonzero;fill:rgb(100%,100%,100%);fill-opacity:1;" d="M 11.382812 14.816406 C 11.386719 15.011719 11.28125 15.195312 11.113281 15.296875 C 10.941406 15.398438 10.730469 15.398438 10.558594 15.296875 C 10.386719 15.195312 10.285156 15.011719 10.289062 14.816406 C 10.285156 14.617188 10.386719 14.433594 10.558594 14.332031 C 10.730469 14.234375 10.941406 14.234375 11.113281 14.332031 C 11.28125 14.433594 11.386719 14.617188 11.382812 14.816406 Z M 11.382812 14.816406 "/>
</g>
<linearGradient id="linear5" gradientUnits="userSpaceOnUse" x1="12.005" y1="35.688" x2="10.651" y2="33.195" gradientTransform="matrix(1.0073,-0.026365,0.026365,1.0073,1.5934,0.079191)">
<stop offset="0" style="stop-color:rgb(100%,100%,100%);stop-opacity:1;"/>
<stop offset="1" style="stop-color:rgb(100%,100%,100%);stop-opacity:0;"/>
</linearGradient>
<mask id="mask6">
  <g filter="url(#alpha)">
<rect x="0" y="0" width="26" height="26" style="fill:rgb(0%,0%,0%);fill-opacity:0.2;stroke:none;"/>
  </g>
</mask>
<clipPath id="clip7">
  <rect x="0" y="0" width="26" height="26"/>
</clipPath>
<g id="surface23" clip-path="url(#clip7)">
<path style="fill:none;stroke-width:1;stroke-linecap:butt;stroke-linejoin:miter;stroke:rgb(100%,100%,100%);stroke-opacity:1;stroke-miterlimit:4;" d="M 8.805288 42.490385 C 10.247596 44.235577 13.40625 44.646635 14.394231 42.115385 C 15.079327 40.377404 17.733173 36.447115 22.59375 32.069712 C 23.408654 31.341346 24.274038 29.661058 23.545673 28.752404 L 21.641827 26.855769 C 20.870192 25.990385 18.706731 26.394231 17.819712 27.598558 C 15.180288 31.211538 9.338942 35.942308 7.925481 36.403846 C 5.740385 37.125 6.151442 39.627404 7.384615 40.932692 Z M 8.805288 42.490385 " transform="matrix(0.541667,0,0,0.541667,0,0)"/>
</g>
<mask id="mask7">
  <g filter="url(#alpha)">
<rect x="0" y="0" width="26" height="26" style="fill:rgb(0%,0%,0%);fill-opacity:0.278431;stroke:none;"/>
  </g>
</mask>
<linearGradient id="linear6" gradientUnits="userSpaceOnUse" x1="14.018" y1="36.943" x2="15.416" y2="38.268" gradientTransform="matrix(0.8781,-0.017324,0.017324,0.8781,2.1637,4.0679)">
<stop offset="0" style="stop-color:rgb(0%,0%,0%);stop-opacity:1;"/>
<stop offset="1" style="stop-color:rgb(0%,0%,0%);stop-opacity:0;"/>
</linearGradient>
<clipPath id="clip8">
  <rect x="0" y="0" width="26" height="26"/>
</clipPath>
<g id="surface26" clip-path="url(#clip8)">
<path style="fill:none;stroke-width:2.2945;stroke-linecap:round;stroke-linejoin:round;stroke:url(#linear6);stroke-miterlimit:4;" d="M 20.826923 31.262019 C 20.826923 31.262019 13.5 37.875 11.913462 42.122596 " transform="matrix(0.541667,0,0,0.541667,0,0)"/>
</g>
</defs>
<g id="surface1">
<use xlink:href="#surface5" mask="url(#mask0)"/>
<use xlink:href="#surface8" mask="url(#mask1)"/>
<path style="fill-rule:nonzero;fill:url(#linear0);stroke-width:1;stroke-linecap:butt;stroke-linejoin:miter;stroke:rgb(53.333333%,54.117647%,52.156863%);stroke-opacity:1;stroke-miterlimit:4;" d="M 17.90625 21.216346 L 36.901442 40.644231 C 37.665865 41.524038 40.103365 42.201923 41.733173 40.644231 C 43.298077 39.144231 42.9375 37.024038 41.401442 35.487981 L 23.177885 15.944712 C 25.427885 9.699519 20.870192 4.449519 15 5.574519 L 13.737981 6.721154 L 17.689904 10.456731 L 17.90625 13.752404 L 14.956731 16.442308 L 11.430288 16.052885 L 7.810096 12.65625 L 6.533654 13.903846 C 5.942308 19.550481 11.841346 24.591346 17.90625 21.216346 Z M 17.90625 21.216346 " transform="matrix(0.541667,0,0,0.541667,0,0)"/>
<use xlink:href="#surface11" mask="url(#mask2)"/>
<use xlink:href="#surface14" mask="url(#mask3)"/>
<path style="fill-rule:nonzero;fill:url(#linear2);stroke-width:1;stroke-linecap:butt;stroke-linejoin:miter;stroke:rgb(52.941176%,56.078431%,61.568627%);stroke-opacity:1;stroke-miterlimit:4;" d="M 22.5 30.122596 C 23.329327 29.408654 35.783654 16.680288 35.783654 16.680288 L 38.855769 16.456731 L 43.6875 9.757212 L 39.663462 6.173077 L 33.403846 11.552885 L 33.403846 14.632212 L 20.668269 27.858173 C 20.0625 28.463942 21.728365 30.786058 22.5 30.122596 Z M 22.5 30.122596 " transform="matrix(0.541667,0,0,0.541667,0,0)"/>
<use xlink:href="#surface17" mask="url(#mask4)"/>
<path style="fill-rule:nonzero;fill:url(#linear4);stroke-width:1;stroke-linecap:butt;stroke-linejoin:miter;stroke:rgb(12.54902%,29.019608%,52.941176%);stroke-opacity:1;stroke-miterlimit:4;" d="M 8.466346 43.615385 C 9.778846 45.079327 13.442308 45.742788 15.057692 42.901442 C 15.764423 41.661058 17.15625 38.199519 23.34375 32.632212 C 24.382212 31.694712 25.485577 29.560096 24.548077 28.40625 L 22.132212 25.990385 C 21.144231 24.894231 18.396635 25.40625 17.271635 26.942308 C 13.911058 31.536058 8.423077 35.199519 7.189904 35.639423 C 4.817308 36.483173 5.084135 39.973558 6.65625 41.632212 Z M 8.466346 43.615385 " transform="matrix(0.541667,0,0,0.541667,0,0)"/>
<path style="fill-rule:nonzero;fill:rgb(100%,100%,100%);fill-opacity:1;stroke-width:1.1386;stroke-linecap:butt;stroke-linejoin:miter;stroke:rgb(63.137255%,63.137255%,63.137255%);stroke-opacity:1;stroke-miterlimit:4;" d="M 43.251234 37.49931 C 43.251234 38.26294 42.635404 38.87877 41.871774 38.87877 C 41.116355 38.87877 40.500525 38.26294 40.500525 37.49931 C 40.500525 36.743892 41.116355 36.128061 41.871774 36.128061 C 42.635404 36.128061 43.251234 36.743892 43.251234 37.49931 Z M 43.251234 37.49931 " transform="matrix(0.47573,0,0,0.47573,1.314733,2.750312)"/>
<use xlink:href="#surface20" mask="url(#mask5)"/>
<path style="fill:none;stroke-width:2.2945;stroke-linecap:round;stroke-linejoin:round;stroke:url(#linear5);stroke-miterlimit:4;" d="M 18.677885 29.625 C 18.677885 29.625 11.509615 36.923077 8.149038 38.163462 " transform="matrix(0.541667,0,0,0.541667,0,0)"/>
<use xlink:href="#surface23" mask="url(#mask6)"/>
<use xlink:href="#surface26" mask="url(#mask7)"/>
</g>
</svg>
