<?xml version="1.0" encoding="UTF-8"?>
<svg xmlns="http://www.w3.org/2000/svg" xmlns:xlink="http://www.w3.org/1999/xlink" width="26pt" height="26pt" viewBox="0 0 26 26" version="1.1">
<g id="surface1">
<path style=" stroke:none;fill-rule:evenodd;fill:rgb(74.901961%,3.921569%,18.823529%);fill-opacity:1;" d="M 0.0351562 23.855469 L 25.964844 23.855469 L 25.964844 25.933594 L 0.0351562 25.933594 Z M 0.0351562 23.855469 "/>
<path style=" stroke:none;fill-rule:evenodd;fill:rgb(100%,100%,100%);fill-opacity:1;" d="M 0.0351562 21.773438 L 25.964844 21.773438 L 25.964844 23.855469 L 0.0351562 23.855469 Z M 0.0351562 21.773438 "/>
<path style=" stroke:none;fill-rule:evenodd;fill:rgb(74.901961%,3.921569%,18.823529%);fill-opacity:1;" d="M 0.0351562 19.695312 L 25.964844 19.695312 L 25.964844 21.773438 L 0.0351562 21.773438 Z M 0.0351562 19.695312 "/>
<path style=" stroke:none;fill-rule:evenodd;fill:rgb(100%,100%,100%);fill-opacity:1;" d="M 0.0351562 17.613281 L 25.964844 17.613281 L 25.964844 19.695312 L 0.0351562 19.695312 Z M 0.0351562 17.613281 "/>
<path style=" stroke:none;fill-rule:evenodd;fill:rgb(74.901961%,3.921569%,18.823529%);fill-opacity:1;" d="M 0.0351562 15.664062 L 25.964844 15.664062 L 25.964844 17.613281 L 0.0351562 17.613281 Z M 0.0351562 15.664062 "/>
<path style=" stroke:none;fill-rule:evenodd;fill:rgb(100%,100%,100%);fill-opacity:1;" d="M 0.0351562 13.714844 L 25.964844 13.714844 L 25.964844 15.664062 L 0.0351562 15.664062 Z M 0.0351562 13.714844 "/>
<path style=" stroke:none;fill-rule:evenodd;fill:rgb(74.901961%,3.921569%,18.823529%);fill-opacity:1;" d="M 0.0351562 11.765625 L 25.964844 11.765625 L 25.964844 13.714844 L 0.0351562 13.714844 Z M 0.0351562 11.765625 "/>
<path style=" stroke:none;fill-rule:evenodd;fill:rgb(100%,100%,100%);fill-opacity:1;" d="M 0.0351562 9.816406 L 25.964844 9.816406 L 25.964844 11.765625 L 0.0351562 11.765625 Z M 0.0351562 9.816406 "/>
<path style=" stroke:none;fill-rule:evenodd;fill:rgb(74.901961%,3.921569%,18.823529%);fill-opacity:1;" d="M 0.0351562 7.863281 L 25.964844 7.863281 L 25.964844 9.816406 L 0.0351562 9.816406 Z M 0.0351562 7.863281 "/>
<path style=" stroke:none;fill-rule:evenodd;fill:rgb(100%,100%,100%);fill-opacity:1;" d="M 0.0351562 5.914062 L 25.964844 5.914062 L 25.964844 7.863281 L 0.0351562 7.863281 Z M 0.0351562 5.914062 "/>
<path style=" stroke:none;fill-rule:evenodd;fill:rgb(74.901961%,3.921569%,18.823529%);fill-opacity:1;" d="M 0.0351562 3.964844 L 25.964844 3.964844 L 25.964844 5.914062 L 0.0351562 5.914062 Z M 0.0351562 3.964844 "/>
<path style=" stroke:none;fill-rule:evenodd;fill:rgb(100%,100%,100%);fill-opacity:1;" d="M 0.0351562 2.015625 L 25.964844 2.015625 L 25.964844 3.964844 L 0.0351562 3.964844 Z M 0.0351562 2.015625 "/>
<path style=" stroke:none;fill-rule:evenodd;fill:rgb(74.901961%,3.921569%,18.823529%);fill-opacity:1;" d="M 0.0351562 0.0664062 L 25.964844 0.0664062 L 25.964844 2.015625 L 0.0351562 2.015625 Z M 0.0351562 0.0664062 "/>
<path style=" stroke:none;fill-rule:evenodd;fill:rgb(0%,15.686275%,40.784314%);fill-opacity:1;" d="M 0.0351562 0.0664062 L 10.433594 0.0664062 L 10.433594 13.714844 L 0.0351562 13.714844 Z M 0.0351562 0.0664062 "/>
<path style=" stroke:none;fill-rule:evenodd;fill:rgb(100%,100%,100%);fill-opacity:1;" d="M 0.46875 12.105469 L 0.769531 12.042969 L 0.886719 11.484375 L 1.007812 12.035156 L 1.308594 12.082031 L 1.085938 12.484375 L 1.15625 13.070312 L 0.894531 12.765625 L 0.636719 13.085938 L 0.699219 12.496094 Z M 0.46875 12.105469 "/>
<path style=" stroke:none;fill-rule:evenodd;fill:rgb(100%,100%,100%);fill-opacity:1;" d="M 2.179688 12.105469 L 2.480469 12.042969 L 2.597656 11.484375 L 2.71875 12.035156 L 3.019531 12.082031 L 2.796875 12.484375 L 2.867188 13.070312 L 2.605469 12.765625 L 2.347656 13.085938 L 2.410156 12.496094 Z M 2.179688 12.105469 "/>
<path style=" stroke:none;fill-rule:evenodd;fill:rgb(100%,100%,100%);fill-opacity:1;" d="M 3.957031 12.105469 L 4.257812 12.042969 L 4.375 11.484375 L 4.496094 12.035156 L 4.800781 12.082031 L 4.574219 12.484375 L 4.644531 13.070312 L 4.382812 12.765625 L 4.125 13.085938 L 4.1875 12.496094 Z M 3.957031 12.105469 "/>
<path style=" stroke:none;fill-rule:evenodd;fill:rgb(100%,100%,100%);fill-opacity:1;" d="M 5.667969 12.105469 L 5.96875 12.042969 L 6.085938 11.484375 L 6.207031 12.035156 L 6.511719 12.082031 L 6.285156 12.484375 L 6.355469 13.070312 L 6.09375 12.765625 L 5.835938 13.085938 L 5.898438 12.496094 Z M 5.667969 12.105469 "/>
<path style=" stroke:none;fill-rule:evenodd;fill:rgb(100%,100%,100%);fill-opacity:1;" d="M 7.378906 12.105469 L 7.679688 12.042969 L 7.796875 11.484375 L 7.917969 12.035156 L 8.222656 12.082031 L 7.996094 12.484375 L 8.066406 13.070312 L 7.804688 12.765625 L 7.546875 13.085938 L 7.609375 12.496094 Z M 7.378906 12.105469 "/>
<path style=" stroke:none;fill-rule:evenodd;fill:rgb(100%,100%,100%);fill-opacity:1;" d="M 9.15625 12.105469 L 9.460938 12.042969 L 9.574219 11.484375 L 9.699219 12.035156 L 10 12.082031 L 9.773438 12.484375 L 9.847656 13.070312 L 9.582031 12.765625 L 9.324219 13.085938 L 9.390625 12.496094 Z M 9.15625 12.105469 "/>
<path style=" stroke:none;fill-rule:evenodd;fill:rgb(100%,100%,100%);fill-opacity:1;" d="M 1.359375 10.804688 L 1.660156 10.742188 L 1.773438 10.183594 L 1.898438 10.738281 L 2.199219 10.78125 L 1.972656 11.183594 L 2.046875 11.769531 L 1.785156 11.46875 L 1.527344 11.785156 L 1.589844 11.195312 Z M 1.359375 10.804688 "/>
<path style=" stroke:none;fill-rule:evenodd;fill:rgb(100%,100%,100%);fill-opacity:1;" d="M 0.46875 9.375 L 0.769531 9.3125 L 0.886719 8.753906 L 1.007812 9.304688 L 1.308594 9.351562 L 1.085938 9.753906 L 1.15625 10.339844 L 0.894531 10.039062 L 0.636719 10.355469 L 0.699219 9.765625 Z M 0.46875 9.375 "/>
<path style=" stroke:none;fill-rule:evenodd;fill:rgb(100%,100%,100%);fill-opacity:1;" d="M 1.359375 8.074219 L 1.660156 8.011719 L 1.773438 7.457031 L 1.898438 8.007812 L 2.199219 8.050781 L 1.972656 8.453125 L 2.046875 9.039062 L 1.785156 8.738281 L 1.527344 9.054688 L 1.589844 8.464844 Z M 1.359375 8.074219 "/>
<path style=" stroke:none;fill-rule:evenodd;fill:rgb(100%,100%,100%);fill-opacity:1;" d="M 0.46875 6.644531 L 0.769531 6.582031 L 0.886719 6.023438 L 1.007812 6.578125 L 1.308594 6.621094 L 1.085938 7.023438 L 1.15625 7.609375 L 0.894531 7.308594 L 0.636719 7.625 L 0.699219 7.035156 Z M 0.46875 6.644531 "/>
<path style=" stroke:none;fill-rule:evenodd;fill:rgb(100%,100%,100%);fill-opacity:1;" d="M 1.359375 5.34375 L 1.660156 5.28125 L 1.773438 4.726562 L 1.898438 5.277344 L 2.199219 5.320312 L 1.972656 5.722656 L 2.046875 6.308594 L 1.785156 6.007812 L 1.527344 6.324219 L 1.589844 5.734375 Z M 1.359375 5.34375 "/>
<path style=" stroke:none;fill-rule:evenodd;fill:rgb(100%,100%,100%);fill-opacity:1;" d="M 0.46875 3.914062 L 0.769531 3.851562 L 0.886719 3.296875 L 1.007812 3.847656 L 1.308594 3.890625 L 1.085938 4.292969 L 1.15625 4.878906 L 0.894531 4.578125 L 0.636719 4.894531 L 0.699219 4.304688 Z M 0.46875 3.914062 "/>
<path style=" stroke:none;fill-rule:evenodd;fill:rgb(100%,100%,100%);fill-opacity:1;" d="M 1.359375 2.613281 L 1.660156 2.554688 L 1.773438 1.996094 L 1.898438 2.546875 L 2.199219 2.59375 L 1.972656 2.996094 L 2.046875 3.582031 L 1.785156 3.277344 L 1.527344 3.59375 L 1.589844 3.003906 Z M 1.359375 2.613281 "/>
<path style=" stroke:none;fill-rule:evenodd;fill:rgb(100%,100%,100%);fill-opacity:1;" d="M 0.46875 1.183594 L 0.769531 1.125 L 0.886719 0.566406 L 1.007812 1.117188 L 1.308594 1.160156 L 1.085938 1.5625 L 1.15625 2.148438 L 0.894531 1.847656 L 0.636719 2.164062 L 0.699219 1.574219 Z M 0.46875 1.183594 "/>
<path style=" stroke:none;fill-rule:evenodd;fill:rgb(100%,100%,100%);fill-opacity:1;" d="M 3.070312 10.804688 L 3.371094 10.742188 L 3.484375 10.183594 L 3.609375 10.738281 L 3.910156 10.78125 L 3.683594 11.183594 L 3.757812 11.769531 L 3.492188 11.46875 L 3.234375 11.785156 L 3.300781 11.195312 Z M 3.070312 10.804688 "/>
<path style=" stroke:none;fill-rule:evenodd;fill:rgb(100%,100%,100%);fill-opacity:1;" d="M 2.179688 9.375 L 2.480469 9.3125 L 2.597656 8.753906 L 2.71875 9.304688 L 3.019531 9.351562 L 2.796875 9.753906 L 2.867188 10.339844 L 2.605469 10.039062 L 2.347656 10.355469 L 2.410156 9.765625 Z M 2.179688 9.375 "/>
<path style=" stroke:none;fill-rule:evenodd;fill:rgb(100%,100%,100%);fill-opacity:1;" d="M 3.070312 8.074219 L 3.371094 8.011719 L 3.484375 7.457031 L 3.609375 8.007812 L 3.910156 8.050781 L 3.683594 8.453125 L 3.757812 9.039062 L 3.492188 8.738281 L 3.234375 9.054688 L 3.300781 8.464844 Z M 3.070312 8.074219 "/>
<path style=" stroke:none;fill-rule:evenodd;fill:rgb(100%,100%,100%);fill-opacity:1;" d="M 2.179688 6.644531 L 2.480469 6.582031 L 2.597656 6.023438 L 2.71875 6.578125 L 3.019531 6.621094 L 2.796875 7.023438 L 2.867188 7.609375 L 2.605469 7.308594 L 2.347656 7.625 L 2.410156 7.035156 Z M 2.179688 6.644531 "/>
<path style=" stroke:none;fill-rule:evenodd;fill:rgb(100%,100%,100%);fill-opacity:1;" d="M 3.070312 5.34375 L 3.371094 5.28125 L 3.484375 4.726562 L 3.609375 5.277344 L 3.910156 5.320312 L 3.683594 5.722656 L 3.757812 6.308594 L 3.492188 6.007812 L 3.234375 6.324219 L 3.300781 5.734375 Z M 3.070312 5.34375 "/>
<path style=" stroke:none;fill-rule:evenodd;fill:rgb(100%,100%,100%);fill-opacity:1;" d="M 2.179688 3.914062 L 2.480469 3.851562 L 2.597656 3.296875 L 2.71875 3.847656 L 3.019531 3.890625 L 2.796875 4.292969 L 2.867188 4.878906 L 2.605469 4.578125 L 2.347656 4.894531 L 2.410156 4.304688 Z M 2.179688 3.914062 "/>
<path style=" stroke:none;fill-rule:evenodd;fill:rgb(100%,100%,100%);fill-opacity:1;" d="M 3.070312 2.613281 L 3.371094 2.554688 L 3.484375 1.996094 L 3.609375 2.546875 L 3.910156 2.59375 L 3.683594 2.996094 L 3.757812 3.582031 L 3.492188 3.277344 L 3.234375 3.59375 L 3.300781 3.003906 Z M 3.070312 2.613281 "/>
<path style=" stroke:none;fill-rule:evenodd;fill:rgb(100%,100%,100%);fill-opacity:1;" d="M 2.179688 1.183594 L 2.480469 1.125 L 2.597656 0.566406 L 2.71875 1.117188 L 3.019531 1.160156 L 2.796875 1.5625 L 2.867188 2.148438 L 2.605469 1.847656 L 2.347656 2.164062 L 2.410156 1.574219 Z M 2.179688 1.183594 "/>
<path style=" stroke:none;fill-rule:evenodd;fill:rgb(100%,100%,100%);fill-opacity:1;" d="M 4.777344 10.804688 L 5.082031 10.742188 L 5.195312 10.183594 L 5.320312 10.738281 L 5.621094 10.78125 L 5.394531 11.183594 L 5.46875 11.769531 L 5.203125 11.46875 L 4.945312 11.785156 L 5.011719 11.195312 Z M 4.777344 10.804688 "/>
<path style=" stroke:none;fill-rule:evenodd;fill:rgb(100%,100%,100%);fill-opacity:1;" d="M 3.957031 9.375 L 4.257812 9.3125 L 4.375 8.753906 L 4.496094 9.304688 L 4.800781 9.351562 L 4.574219 9.753906 L 4.644531 10.339844 L 4.382812 10.039062 L 4.125 10.355469 L 4.1875 9.765625 Z M 3.957031 9.375 "/>
<path style=" stroke:none;fill-rule:evenodd;fill:rgb(100%,100%,100%);fill-opacity:1;" d="M 7.378906 9.375 L 7.679688 9.3125 L 7.796875 8.753906 L 7.917969 9.304688 L 8.222656 9.351562 L 7.996094 9.753906 L 8.066406 10.339844 L 7.804688 10.039062 L 7.546875 10.355469 L 7.609375 9.765625 Z M 7.378906 9.375 "/>
<path style=" stroke:none;fill-rule:evenodd;fill:rgb(100%,100%,100%);fill-opacity:1;" d="M 5.667969 9.375 L 5.96875 9.3125 L 6.085938 8.753906 L 6.207031 9.304688 L 6.511719 9.351562 L 6.285156 9.753906 L 6.355469 10.339844 L 6.09375 10.039062 L 5.835938 10.355469 L 5.898438 9.765625 Z M 5.667969 9.375 "/>
<path style=" stroke:none;fill-rule:evenodd;fill:rgb(100%,100%,100%);fill-opacity:1;" d="M 8.269531 10.804688 L 8.570312 10.742188 L 8.683594 10.183594 L 8.808594 10.738281 L 9.109375 10.78125 L 8.882812 11.183594 L 8.957031 11.769531 L 8.695312 11.46875 L 8.4375 11.785156 L 8.5 11.195312 Z M 8.269531 10.804688 "/>
<path style=" stroke:none;fill-rule:evenodd;fill:rgb(100%,100%,100%);fill-opacity:1;" d="M 6.558594 10.804688 L 6.859375 10.742188 L 6.976562 10.183594 L 7.097656 10.738281 L 7.398438 10.78125 L 7.175781 11.183594 L 7.246094 11.769531 L 6.984375 11.46875 L 6.726562 11.785156 L 6.789062 11.195312 Z M 6.558594 10.804688 "/>
<path style=" stroke:none;fill-rule:evenodd;fill:rgb(100%,100%,100%);fill-opacity:1;" d="M 3.957031 1.183594 L 4.257812 1.125 L 4.375 0.566406 L 4.496094 1.117188 L 4.800781 1.160156 L 4.574219 1.5625 L 4.644531 2.148438 L 4.382812 1.847656 L 4.125 2.164062 L 4.1875 1.574219 Z M 3.957031 1.183594 "/>
<path style=" stroke:none;fill-rule:evenodd;fill:rgb(100%,100%,100%);fill-opacity:1;" d="M 4.777344 2.613281 L 5.082031 2.554688 L 5.195312 1.996094 L 5.320312 2.546875 L 5.621094 2.59375 L 5.394531 2.996094 L 5.46875 3.582031 L 5.203125 3.277344 L 4.945312 3.59375 L 5.011719 3.003906 Z M 4.777344 2.613281 "/>
<path style=" stroke:none;fill-rule:evenodd;fill:rgb(100%,100%,100%);fill-opacity:1;" d="M 3.957031 3.914062 L 4.257812 3.851562 L 4.375 3.296875 L 4.496094 3.847656 L 4.800781 3.890625 L 4.574219 4.292969 L 4.644531 4.878906 L 4.382812 4.578125 L 4.125 4.894531 L 4.1875 4.304688 Z M 3.957031 3.914062 "/>
<path style=" stroke:none;fill-rule:evenodd;fill:rgb(100%,100%,100%);fill-opacity:1;" d="M 4.777344 5.34375 L 5.082031 5.28125 L 5.195312 4.726562 L 5.320312 5.277344 L 5.621094 5.320312 L 5.394531 5.722656 L 5.46875 6.308594 L 5.203125 6.007812 L 4.945312 6.324219 L 5.011719 5.734375 Z M 4.777344 5.34375 "/>
<path style=" stroke:none;fill-rule:evenodd;fill:rgb(100%,100%,100%);fill-opacity:1;" d="M 3.957031 6.644531 L 4.257812 6.582031 L 4.375 6.023438 L 4.496094 6.578125 L 4.800781 6.621094 L 4.574219 7.023438 L 4.644531 7.609375 L 4.382812 7.308594 L 4.125 7.625 L 4.1875 7.035156 Z M 3.957031 6.644531 "/>
<path style=" stroke:none;fill-rule:evenodd;fill:rgb(100%,100%,100%);fill-opacity:1;" d="M 4.777344 8.074219 L 5.082031 8.011719 L 5.195312 7.457031 L 5.320312 8.007812 L 5.621094 8.050781 L 5.394531 8.453125 L 5.46875 9.039062 L 5.203125 8.738281 L 4.945312 9.054688 L 5.011719 8.464844 Z M 4.777344 8.074219 "/>
<path style=" stroke:none;fill-rule:evenodd;fill:rgb(100%,100%,100%);fill-opacity:1;" d="M 9.15625 9.375 L 9.460938 9.3125 L 9.574219 8.753906 L 9.699219 9.304688 L 10 9.351562 L 9.773438 9.753906 L 9.847656 10.339844 L 9.582031 10.039062 L 9.324219 10.355469 L 9.390625 9.765625 Z M 9.15625 9.375 "/>
<path style=" stroke:none;fill-rule:evenodd;fill:rgb(100%,100%,100%);fill-opacity:1;" d="M 5.667969 6.644531 L 5.96875 6.582031 L 6.085938 6.023438 L 6.207031 6.578125 L 6.511719 6.621094 L 6.285156 7.023438 L 6.355469 7.609375 L 6.09375 7.308594 L 5.835938 7.625 L 5.898438 7.035156 Z M 5.667969 6.644531 "/>
<path style=" stroke:none;fill-rule:evenodd;fill:rgb(100%,100%,100%);fill-opacity:1;" d="M 5.667969 1.183594 L 5.96875 1.125 L 6.085938 0.566406 L 6.207031 1.117188 L 6.511719 1.160156 L 6.285156 1.5625 L 6.355469 2.148438 L 6.09375 1.847656 L 5.835938 2.164062 L 5.898438 1.574219 Z M 5.667969 1.183594 "/>
<path style=" stroke:none;fill-rule:evenodd;fill:rgb(100%,100%,100%);fill-opacity:1;" d="M 5.667969 3.914062 L 5.96875 3.851562 L 6.085938 3.296875 L 6.207031 3.847656 L 6.511719 3.890625 L 6.285156 4.292969 L 6.355469 4.878906 L 6.09375 4.578125 L 5.835938 4.894531 L 5.898438 4.304688 Z M 5.667969 3.914062 "/>
<path style=" stroke:none;fill-rule:evenodd;fill:rgb(100%,100%,100%);fill-opacity:1;" d="M 8.269531 8.074219 L 8.570312 8.011719 L 8.683594 7.457031 L 8.808594 8.007812 L 9.109375 8.050781 L 8.882812 8.453125 L 8.957031 9.039062 L 8.695312 8.738281 L 8.4375 9.054688 L 8.5 8.464844 Z M 8.269531 8.074219 "/>
<path style=" stroke:none;fill-rule:evenodd;fill:rgb(100%,100%,100%);fill-opacity:1;" d="M 6.558594 8.074219 L 6.859375 8.011719 L 6.976562 7.457031 L 7.097656 8.007812 L 7.398438 8.050781 L 7.175781 8.453125 L 7.246094 9.039062 L 6.984375 8.738281 L 6.726562 9.054688 L 6.789062 8.464844 Z M 6.558594 8.074219 "/>
<path style=" stroke:none;fill-rule:evenodd;fill:rgb(100%,100%,100%);fill-opacity:1;" d="M 6.558594 2.613281 L 6.859375 2.554688 L 6.976562 1.996094 L 7.097656 2.546875 L 7.398438 2.59375 L 7.175781 2.996094 L 7.246094 3.582031 L 6.984375 3.277344 L 6.726562 3.59375 L 6.789062 3.003906 Z M 6.558594 2.613281 "/>
<path style=" stroke:none;fill-rule:evenodd;fill:rgb(100%,100%,100%);fill-opacity:1;" d="M 6.558594 5.34375 L 6.859375 5.28125 L 6.976562 4.726562 L 7.097656 5.277344 L 7.398438 5.320312 L 7.175781 5.722656 L 7.246094 6.308594 L 6.984375 6.007812 L 6.726562 6.324219 L 6.789062 5.734375 Z M 6.558594 5.34375 "/>
<path style=" stroke:none;fill-rule:evenodd;fill:rgb(100%,100%,100%);fill-opacity:1;" d="M 9.15625 6.644531 L 9.460938 6.582031 L 9.574219 6.023438 L 9.699219 6.578125 L 10 6.621094 L 9.773438 7.023438 L 9.847656 7.609375 L 9.582031 7.308594 L 9.324219 7.625 L 9.390625 7.035156 Z M 9.15625 6.644531 "/>
<path style=" stroke:none;fill-rule:evenodd;fill:rgb(100%,100%,100%);fill-opacity:1;" d="M 7.378906 6.644531 L 7.679688 6.582031 L 7.796875 6.023438 L 7.917969 6.578125 L 8.222656 6.621094 L 7.996094 7.023438 L 8.066406 7.609375 L 7.804688 7.308594 L 7.546875 7.625 L 7.609375 7.035156 Z M 7.378906 6.644531 "/>
<path style=" stroke:none;fill-rule:evenodd;fill:rgb(100%,100%,100%);fill-opacity:1;" d="M 7.378906 1.183594 L 7.679688 1.125 L 7.796875 0.566406 L 7.917969 1.117188 L 8.222656 1.160156 L 7.996094 1.5625 L 8.066406 2.148438 L 7.804688 1.847656 L 7.546875 2.164062 L 7.609375 1.574219 Z M 7.378906 1.183594 "/>
<path style=" stroke:none;fill-rule:evenodd;fill:rgb(100%,100%,100%);fill-opacity:1;" d="M 7.378906 3.914062 L 7.679688 3.851562 L 7.796875 3.296875 L 7.917969 3.847656 L 8.222656 3.890625 L 7.996094 4.292969 L 8.066406 4.878906 L 7.804688 4.578125 L 7.546875 4.894531 L 7.609375 4.304688 Z M 7.378906 3.914062 "/>
<path style=" stroke:none;fill-rule:evenodd;fill:rgb(100%,100%,100%);fill-opacity:1;" d="M 9.15625 1.183594 L 9.460938 1.125 L 9.574219 0.566406 L 9.699219 1.117188 L 10 1.160156 L 9.773438 1.5625 L 9.847656 2.148438 L 9.582031 1.847656 L 9.324219 2.164062 L 9.390625 1.574219 Z M 9.15625 1.183594 "/>
<path style=" stroke:none;fill-rule:evenodd;fill:rgb(100%,100%,100%);fill-opacity:1;" d="M 8.269531 2.613281 L 8.570312 2.554688 L 8.683594 1.996094 L 8.808594 2.546875 L 9.109375 2.59375 L 8.882812 2.996094 L 8.957031 3.582031 L 8.695312 3.277344 L 8.4375 3.59375 L 8.5 3.003906 Z M 8.269531 2.613281 "/>
<path style=" stroke:none;fill-rule:evenodd;fill:rgb(100%,100%,100%);fill-opacity:1;" d="M 9.15625 3.914062 L 9.460938 3.851562 L 9.574219 3.296875 L 9.699219 3.847656 L 10 3.890625 L 9.773438 4.292969 L 9.847656 4.878906 L 9.582031 4.578125 L 9.324219 4.894531 L 9.390625 4.304688 Z M 9.15625 3.914062 "/>
<path style=" stroke:none;fill-rule:evenodd;fill:rgb(100%,100%,100%);fill-opacity:1;" d="M 8.269531 5.34375 L 8.570312 5.28125 L 8.683594 4.726562 L 8.808594 5.277344 L 9.109375 5.320312 L 8.882812 5.722656 L 8.957031 6.308594 L 8.695312 6.007812 L 8.4375 6.324219 L 8.5 5.734375 Z M 8.269531 5.34375 "/>
<path style=" stroke:none;fill-rule:nonzero;fill:rgb(100%,100%,100%);fill-opacity:1;" d="M 0.00390625 25.992188 L 26.074219 0.175781 L 26.011719 26.050781 Z M 0.00390625 25.992188 "/>
<path style=" stroke:none;fill-rule:nonzero;fill:rgb(0%,14.117647%,49.019608%);fill-opacity:1;" d="M 15.125 25.960938 L 15.101562 16.519531 L 25.957031 16.539062 L 25.972656 25.941406 Z M 15.125 25.960938 "/>
<path style=" stroke:none;fill-rule:nonzero;fill:rgb(0%,14.117647%,49.019608%);fill-opacity:1;" d="M 25.964844 0.117188 L 17.144531 8.996094 L 25.949219 8.996094 Z M 25.964844 0.117188 "/>
<path style=" stroke:none;fill-rule:nonzero;fill:rgb(0%,14.117647%,49.019608%);fill-opacity:1;" d="M 0.0351562 25.964844 L 9.71875 16.382812 L 11.070312 16.414062 L 11.039062 25.992188 Z M 0.0351562 25.964844 "/>
<path style=" stroke:none;fill-rule:nonzero;fill:rgb(100%,100%,100%);fill-opacity:1;" d="M 26.023438 23.359375 L 25.996094 25.902344 L 23.730469 26.167969 L 14.832031 17.300781 L 14.933594 16.066406 L 18.878906 16.269531 Z M 26.023438 23.359375 "/>
<path style=" stroke:none;fill-rule:nonzero;fill:rgb(100%,100%,100%);fill-opacity:1;" d="M 26.042969 0 L 16.914062 9.230469 L 19.742188 9.34375 L 25.996094 3.035156 Z M 26.042969 0 "/>
<path style=" stroke:none;fill-rule:nonzero;fill:rgb(100%,100%,100%);fill-opacity:1;" d="M 0.00390625 25.875 L 10.171875 15.949219 L 11.210938 16.027344 L 11.214844 17.910156 L 3.234375 25.933594 Z M 0.00390625 25.875 "/>
<path style=" stroke:none;fill-rule:nonzero;fill:rgb(81.176471%,7.843137%,16.862745%);fill-opacity:1;" d="M -0.0117188 25.90625 L 10.015625 16.085938 L 11.070312 16.09375 L 11.039062 17.113281 L 2.183594 25.933594 Z M -0.0117188 25.90625 "/>
<path style=" stroke:none;fill-rule:nonzero;fill:rgb(81.176471%,7.843137%,16.862745%);fill-opacity:1;" d="M 16.328125 16.238281 L 18.296875 16.355469 L 25.980469 24.183594 L 25.953125 25.875 Z M 16.328125 16.238281 "/>
<path style=" stroke:none;fill-rule:nonzero;fill:rgb(81.176471%,7.843137%,16.862745%);fill-opacity:1;" d="M 25.964844 15.101562 L 10.988281 15.070312 L 15.953125 10.238281 L 25.964844 10.277344 Z M 25.964844 15.101562 "/>
<path style=" stroke:none;fill-rule:nonzero;fill:rgb(81.176471%,7.843137%,16.862745%);fill-opacity:1;" d="M 14.347656 25.875 L 14.378906 11.894531 L 11.789062 14.382812 L 11.792969 25.929688 Z M 14.347656 25.875 "/>
<path style="fill:none;stroke-width:1;stroke-linecap:butt;stroke-linejoin:miter;stroke:rgb(0%,0%,0%);stroke-opacity:1;stroke-miterlimit:4;" d="M 0.0138221 1.010817 L 378.986178 1.010817 L 378.986178 199.989183 L 0.0138221 199.989183 Z M 0.0138221 1.010817 " transform="matrix(0.0684211,0,0,0.13,0.0342105,-0.065)"/>
</g>
</svg>
